<svg xmlns="http://www.w3.org/2000/svg" version="1.1" xmlns:xlink="http://www.w3.org/1999/xlink" xmlns:svgjs="http://svgjs.dev/svgjs" width="1500" height="1000" viewBox="0 0 1500 1687"><g transform="matrix(1,0,0,1,0.00017343749982501322,0)"><svg viewBox="0 0 320 360" data-background-color="#ffffff" preserveAspectRatio="xMidYMid meet" height="1687" width="1500" xmlns="http://www.w3.org/2000/svg" xmlns:xlink="http://www.w3.org/1999/xlink"><g id="tight-bounds" transform="matrix(1,0,0,1,-0.0000369999999634274,0)"><svg viewBox="0 0 320 360" height="360" width="320"><g><svg></svg></g><g><svg viewBox="0 0 320 360" height="360" width="320"><g><path transform="translate(-29.57346,-9.38389) scale(3.79147,3.79147)" d="M50 13.6c19.1 0 34.8 14.8 36.3 33.5h5.9c-0.3-4.7-1.4-9.2-3.2-13.5-2.1-5-5.2-9.6-9.1-13.4-3.9-3.9-8.4-6.9-13.4-9.1-5.3-2.2-10.8-3.4-16.5-3.4-5.7 0-11.2 1.1-16.5 3.3-5 2.1-9.6 5.2-13.4 9.1-3.9 3.9-6.9 8.4-9.1 13.4-1.8 4.3-2.9 8.9-3.2 13.5h5.9c1.5-18.6 17.2-33.4 36.3-33.4zM50 86.4c-19.1 0-34.8-14.8-36.3-33.5h-5.9c0.3 4.7 1.4 9.2 3.2 13.5 2.1 5 5.2 9.6 9.1 13.4 3.9 3.9 8.4 6.9 13.4 9.1 5.2 2.2 10.7 3.3 16.5 3.3 5.8 0 11.2-1.1 16.5-3.3 5-2.1 9.6-5.2 13.4-9.1 3.9-3.9 6.9-8.4 9.1-13.4 1.8-4.3 2.9-8.9 3.2-13.5h-5.9c-1.5 18.7-17.2 33.5-36.3 33.5z" fill="#25d366" fill-rule="nonzero" stroke="none" stroke-width="1" stroke-linecap="butt" stroke-linejoin="miter" stroke-miterlimit="10" stroke-dasharray="" stroke-dashoffset="0" font-family="none" font-weight="none" font-size="none" text-anchor="none" style="mix-blend-mode: normal" data-fill-palette-color="tertiary"></path></g><g transform="matrix(1,0,0,1,56,118.89956133139663)"><svg viewBox="0 0 208 122.20087733720673" height="122.20087733720673" width="208"><g><svg viewBox="0 0 208 122.20087733720673" height="122.20087733720673" width="208"><g transform="matrix(1,0,0,1,0,88.44350156130255)"><svg viewBox="0 0 208 33.75737577590418" height="33.75737577590418" width="208"><g id="textblocktransform"><svg viewBox="0 0 208 33.75737577590418" height="33.75737577590418" width="208" id="textblock"><g><svg viewBox="0 0 208 22.146318803993402" height="22.146318803993402" width="208"><g transform="matrix(1,0,0,1,0,0)"><svg width="208" viewBox="-0.12263122225950332 -33.43704103633517 438.40201310923857 46.67784117496922" height="22.146318803993402" data-palette-color="#25d366"><path d="M20.209-22.111c0.697-0.068 1.248-0.015 1.654 0.159 0.4 0.182 0.619 0.472 0.658 0.87v0c0.016 0.166-0.012 0.386-0.086 0.662v0c-0.076 0.249-0.195 0.471-0.357 0.668-0.168 0.204-0.32 0.353-0.458 0.446-0.144 0.101-0.246 0.188-0.306 0.262v0c-0.502 0.351-0.9 0.725-1.197 1.122-0.303 0.398-0.532 0.993-0.689 1.785v0l-3.922 22.098c-0.097 0.445-0.126 0.87-0.087 1.275v0c0.039 0.398 0.131 0.724 0.277 0.978 0.145 0.254 0.349 0.518 0.611 0.794v0c0.341 0.402 0.524 0.736 0.55 1.001v0c0.006 0.066-0.01 0.239-0.05 0.517v0c-0.087 0.477-0.354 0.829-0.801 1.053-0.453 0.232-1.144 0.393-2.073 0.485v0l-11.733 1.15c-0.697 0.068-1.249 0.005-1.657-0.189-0.401-0.195-0.621-0.492-0.66-0.89v0c-0.02-0.199 0.009-0.423 0.085-0.671v0c0.097-0.378 0.285-0.681 0.564-0.91 0.279-0.228 0.45-0.362 0.513-0.402v0c0.498-0.384 0.896-0.768 1.194-1.152 0.305-0.378 0.534-0.98 0.687-1.805v0l3.982-22.104c0.09-0.451 0.115-0.875 0.077-1.274v0c-0.036-0.365-0.126-0.668-0.27-0.908-0.143-0.234-0.331-0.507-0.563-0.819v0c-0.342-0.409-0.525-0.746-0.551-1.011v0c-0.01-0.1 0.006-0.285 0.046-0.557v0c0.09-0.444 0.352-0.781 0.785-1.011 0.434-0.223 1.115-0.381 2.043-0.472v0zM52.602-24.872c1.236-0.105 2.215 0.08 2.937 0.554 0.729 0.473 1.134 1.178 1.213 2.115v0c0.039 0.465 0.011 0.919-0.085 1.362v0l-0.901 4.763c-0.157 0.916-0.446 1.57-0.868 1.96-0.422 0.384-1.049 0.611-1.879 0.681v0c-0.804 0.068-1.443-0.052-1.917-0.359-0.482-0.314-0.872-0.859-1.173-1.637v0l-1.038-2.782c-0.217-0.59-0.454-0.975-0.71-1.154-0.249-0.18-0.706-0.241-1.371-0.185v0l-5.251 0.445-1.737 9.109 2.192-0.186c0.233-0.02 0.537-0.213 0.914-0.579v0l1.567-1.648c0.462-0.474 0.87-0.826 1.225-1.057 0.348-0.23 0.788-0.368 1.32-0.413v0c0.598-0.051 1.103 0.067 1.515 0.353 0.412 0.28 0.639 0.672 0.682 1.177v0c0.011 0.133-0.005 0.335-0.049 0.606v0l-1.464 7.119c-0.137 0.748-0.434 1.318-0.889 1.711-0.456 0.387-0.966 0.604-1.53 0.652v0c-0.93 0.079-1.668-0.344-2.215-1.268v0l-1.005-1.671c-0.275-0.485-0.662-0.707-1.16-0.664v0l-1.953 0.165-2.051 10.852 4.404-0.373c0.631-0.053 1.178-0.227 1.642-0.521 0.464-0.294 0.951-0.78 1.462-1.458v0l2.72-3.553c0.484-0.61 0.957-1.061 1.42-1.354 0.457-0.286 1.038-0.459 1.743-0.519v0c0.731-0.062 1.343 0.053 1.836 0.346 0.493 0.293 0.768 0.771 0.824 1.435v0c0.023 0.266-0.001 0.585-0.07 0.96v0l-1.016 5.174c-0.258 1.3-0.718 2.229-1.38 2.786-0.655 0.557-1.647 0.892-2.976 1.005v0l-23.844 2.021c-0.698 0.059-1.249-0.011-1.654-0.211-0.398-0.2-0.614-0.5-0.648-0.899v0c-0.017-0.199 0.014-0.423 0.094-0.67v0c0.102-0.377 0.294-0.677 0.576-0.902 0.282-0.225 0.455-0.356 0.518-0.395v0c0.503-0.377 0.906-0.756 1.208-1.136 0.31-0.374 0.546-0.973 0.711-1.797v0l4.323-22.053c0.096-0.45 0.128-0.857 0.098-1.223v0c-0.034-0.399-0.122-0.726-0.264-0.981-0.135-0.256-0.335-0.524-0.6-0.802v0c-0.336-0.413-0.515-0.752-0.538-1.019v0c-0.008-0.1 0.009-0.285 0.053-0.556v0c0.096-0.443 0.372-0.778 0.828-1.004 0.45-0.219 1.123-0.366 2.02-0.442v0zM83.389-6.568c0.931-0.065 1.653 0.078 2.165 0.429 0.512 0.345 0.793 0.87 0.842 1.575v0c0.021 0.299-0.006 0.635-0.079 1.008v0l-1.245 5.972c-0.332 1.46-0.87 2.504-1.615 3.131-0.745 0.62-1.886 0.984-3.422 1.092v0l-23.512 1.65c-0.698 0.049-1.248-0.029-1.651-0.235-0.395-0.206-0.607-0.509-0.635-0.908v0c-0.014-0.2 0.02-0.422 0.104-0.669v0c0.081-0.273 0.232-0.507 0.452-0.703 0.22-0.203 0.457-0.396 0.711-0.581v0c0.509-0.37 0.917-0.743 1.224-1.119 0.315-0.37 0.56-0.965 0.737-1.786v0l4.592-21.985c0.102-0.448 0.139-0.872 0.112-1.271v0c-0.026-0.366-0.107-0.671-0.245-0.915-0.13-0.238-0.31-0.516-0.54-0.834v0c-0.33-0.418-0.504-0.76-0.523-1.026v0c-0.007-0.1 0.013-0.285 0.061-0.556v0c0.103-0.442 0.374-0.771 0.813-0.989 0.44-0.211 1.125-0.35 2.056-0.415v0l11.761-0.825c0.698-0.049 1.248 0.019 1.649 0.205 0.394 0.193 0.606 0.489 0.633 0.887v0c0.012 0.166-0.023 0.386-0.104 0.659v0c-0.083 0.246-0.208 0.466-0.375 0.658-0.173 0.199-0.33 0.344-0.47 0.434-0.147 0.097-0.251 0.181-0.314 0.253v0c-0.511 0.337-0.92 0.699-1.226 1.088-0.314 0.39-0.56 0.978-0.739 1.766v0l-4.863 23.118 3.102-0.218c0.771-0.054 1.42-0.237 1.947-0.548 0.533-0.305 1.074-0.844 1.62-1.617v0l3.174-4.343c0.58-0.783 1.151-1.361 1.713-1.734 0.555-0.373 1.252-0.589 2.09-0.648zM104.425 5.49c-2.803 0.153-5.35-0.226-7.643-1.136-2.293-0.917-4.154-2.347-5.582-4.292-1.428-1.952-2.221-4.362-2.377-7.232v0c-0.109-2.004 0.122-4.193 0.694-6.567v0c1.265-5.09 3.388-8.831 6.368-11.223 2.988-2.386 6.249-3.676 9.784-3.869v0c1.904-0.104 3.607 0.087 5.109 0.573 1.495 0.486 2.891 1.231 4.188 2.236v0l1.29-1.132c0.867-0.748 1.603-1.272 2.208-1.573 0.598-0.3 1.283-0.471 2.055-0.512v0c0.832-0.045 1.508 0.101 2.027 0.44 0.526 0.339 0.808 0.857 0.846 1.556v0c0.02 0.373-0.026 0.746-0.139 1.119v0l-2.381 7.962c-0.25 0.922-0.575 1.577-0.974 1.966-0.399 0.389-1.015 0.606-1.847 0.651v0c-0.872 0.048-1.598-0.223-2.178-0.813-0.586-0.589-1.27-1.613-2.05-3.072v0c-0.891-1.527-1.6-2.527-2.127-2.999-0.527-0.479-1.276-0.692-2.248-0.639v0c-1.365 0.074-2.637 0.992-3.815 2.752-1.173 1.753-2.187 4.345-3.042 7.777v0c-0.711 2.883-1.014 5.276-0.91 7.18v0c0.091 1.671 0.475 2.895 1.151 3.673 0.677 0.784 1.551 1.147 2.624 1.089v0c1.564-0.085 2.837-0.505 3.817-1.26 0.98-0.754 1.974-1.763 2.979-3.026v0c0.626-0.769 1.139-1.341 1.539-1.717 0.4-0.376 0.833-0.576 1.299-0.601v0c0.599-0.033 1.248 0.236 1.947 0.805 0.705 0.562 1.057 1.144 1.057 1.745v0c0.074 0.737-0.457 1.904-1.592 3.502-1.134 1.604-2.747 3.074-4.837 4.41-2.084 1.335-4.497 2.078-7.24 2.227zM157.298-30.444c3.545-0.115 6.302 0.566 8.271 2.043 1.975 1.47 3.004 3.474 3.086 6.013v0c0.033 1.006-0.086 2.064-0.357 3.173v0c-0.824 3.375-2.59 5.91-5.296 7.606-2.7 1.688-6.156 2.601-10.367 2.737v0l-5.167 0.168-1.503 6.122c-0.067 0.202-0.095 0.47-0.084 0.803v0c0.015 0.473 0.138 0.856 0.368 1.149 0.23 0.293 0.567 0.632 1.013 1.017v0c0.377 0.321 0.635 0.563 0.774 0.726 0.139 0.162 0.212 0.363 0.22 0.603v0c0.018 0.566-0.235 0.975-0.761 1.225-0.525 0.251-1.308 0.393-2.347 0.426v0l-12.584 0.409c-0.866 0.028-1.521-0.111-1.964-0.417-0.443-0.299-0.608-0.737-0.493-1.315v0c0.057-0.302 0.172-0.546 0.346-0.731 0.181-0.193 0.45-0.411 0.809-0.657v0c0.556-0.352 0.994-0.716 1.316-1.093 0.328-0.377 0.579-0.956 0.754-1.735v0l5.416-21.797c0.119-0.444 0.172-0.866 0.159-1.266v0c-0.012-0.366-0.082-0.674-0.21-0.924-0.128-0.243-0.297-0.527-0.508-0.854v0c-0.314-0.43-0.475-0.778-0.484-1.045v0c-0.003-0.1 0.024-0.284 0.082-0.553v0c0.119-0.437 0.402-0.757 0.85-0.958 0.447-0.195 1.137-0.307 2.07-0.337v0zM156.345-19.728c0.327-1.245 0.475-2.337 0.444-3.276v0c-0.063-1.939-0.997-2.879-2.803-2.82v0l-2.259 0.073-3.156 12.499 2.209-0.072c1.406-0.046 2.538-0.526 3.395-1.441 0.857-0.915 1.581-2.569 2.17-4.963zM182.823-24.184c3.846-0.07 6.935 0.584 9.268 1.961 2.332 1.378 3.525 3.523 3.578 6.436v0c0.02 1.1-0.157 2.357-0.532 3.77v0l-1.923 6.957c-0.038 0.134-0.055 0.301-0.051 0.501v0c0.01 0.533 0.235 0.796 0.674 0.787v0c0.4-0.007 0.74-0.187 1.021-0.538 0.274-0.358 0.46-0.538 0.56-0.54v0c0.167-0.003 0.312 0.111 0.436 0.342 0.118 0.231 0.179 0.497 0.185 0.796v0c0.05 0.906-0.273 1.832-0.97 2.779-0.703 0.946-1.652 1.734-2.847 2.362-1.189 0.622-2.503 0.946-3.943 0.972v0c-1.74 0.032-3.232-0.258-4.477-0.869-1.251-0.617-2.122-1.538-2.611-2.763v0c-0.985 1.218-2.154 2.166-3.508 2.845-1.361 0.678-2.828 1.032-4.402 1.06v0c-1.766 0.032-3.259-0.284-4.478-0.948-1.219-0.665-2.128-1.535-2.728-2.611-0.606-1.076-0.92-2.214-0.942-3.413v0c-0.01-0.533 0.031-1.054 0.121-1.563v0c0.491-2.316 1.623-4.074 3.395-5.273 1.765-1.206 3.884-1.831 6.357-1.876v0c2.773-0.051 5.507 0.336 8.202 1.161v0l1.19-3.332c0.408-1.414 0.604-2.505 0.59-3.272v0c-0.048-0.806-0.326-1.404-0.833-1.795-0.507-0.391-1.281-0.577-2.32-0.558v0c0.21 0.53 0.32 1.078 0.33 1.645v0c0.023 1.24-0.424 2.318-1.341 3.235-0.923 0.924-2.252 1.401-3.985 1.432v0c-1.64 0.03-2.926-0.307-3.859-1.009-0.933-0.703-1.409-1.588-1.429-2.655v0c-0.03-1.673 0.881-3.08 2.734-4.22 1.853-1.134 4.699-1.736 8.538-1.806zM180.301-8.936c-0.94 0.017-1.697 0.388-2.27 1.112-0.567 0.73-0.843 1.516-0.827 2.355v0c0.01 0.533 0.141 0.964 0.393 1.293 0.259 0.329 0.622 0.489 1.089 0.481v0c0.433-0.008 0.907-0.193 1.42-0.556 0.514-0.356 0.881-0.89 1.101-1.601v0l0.996-2.968c-0.568-0.09-1.203-0.128-1.902-0.116zM222.561-24.499c1.867-0.004 3.361 0.559 4.484 1.69 1.123 1.137 1.686 2.543 1.689 4.216v0c0.001 0.633-0.064 1.217-0.196 1.751v0c-0.33 1.374-0.961 2.429-1.893 3.164-0.938 0.742-2.057 1.115-3.357 1.118v0c-1.273 0.003-2.237-0.298-2.892-0.904-0.648-0.599-1.226-1.397-1.736-2.396v0c-0.268-0.573-0.519-0.992-0.752-1.258-0.234-0.266-0.501-0.399-0.801-0.398v0c-0.333 0.001-0.626 0.135-0.879 0.402-0.253 0.267-0.478 0.738-0.677 1.411v0l-3.832 12.539c-0.066 0.167-0.099 0.42-0.098 0.76v0c0.001 0.433 0.128 0.79 0.382 1.069 0.247 0.286 0.591 0.562 1.032 0.828v0c0.401 0.266 0.668 0.482 0.802 0.648 0.134 0.166 0.184 0.386 0.151 0.66v0c-0.066 0.433-0.308 0.751-0.728 0.951-0.42 0.201-1.129 0.303-2.129 0.305v0l-12.84 0.029c-0.867 0.002-1.494-0.14-1.881-0.426-0.387-0.279-0.531-0.652-0.433-1.119v0c0.132-0.407 0.485-0.761 1.058-1.062v0c0.499-0.268 0.915-0.585 1.248-0.953 0.333-0.367 0.615-0.955 0.846-1.762v0l4.437-14.5c0.066-0.167 0.099-0.4 0.099-0.7v0c-0.001-0.367-0.078-0.653-0.232-0.859-0.147-0.2-0.391-0.449-0.732-0.749v0c-0.334-0.266-0.568-0.499-0.702-0.698-0.134-0.2-0.151-0.466-0.051-0.8v0c0.198-0.774 1.25-1.453 3.155-2.037 1.905-0.591 3.895-0.889 5.968-0.894v0c1.373-0.003 2.511 0.304 3.412 0.923 0.901 0.611 1.49 1.487 1.766 2.626v0c1.595-2.377 3.699-3.568 6.312-3.575zM244.034-24.349c3.846 0.041 6.915 0.783 9.207 2.227 2.292 1.444 3.422 3.623 3.391 6.536v0c-0.012 1.1-0.225 2.351-0.64 3.754v0l-2.122 6.898c-0.041 0.133-0.063 0.299-0.066 0.499v0c-0.006 0.533 0.212 0.802 0.652 0.807v0c0.4 0.004 0.745-0.165 1.035-0.509 0.284-0.35 0.476-0.525 0.576-0.524v0c0.167 0.002 0.309 0.12 0.426 0.355 0.111 0.235 0.165 0.502 0.162 0.801v0c0.024 0.907-0.326 1.823-1.049 2.75-0.73 0.926-1.701 1.685-2.915 2.279-1.206 0.587-2.529 0.873-3.969 0.858v0c-1.74-0.018-3.223-0.351-4.45-0.997-1.233-0.653-2.077-1.599-2.53-2.837v0c-1.019 1.189-2.216 2.103-3.589 2.743-1.38 0.639-2.857 0.95-4.43 0.933v0c-1.767-0.019-3.25-0.378-4.449-1.077-1.199-0.699-2.083-1.595-2.652-2.688-0.575-1.093-0.856-2.239-0.844-3.439v0c0.006-0.533 0.061-1.053 0.167-1.558v0c0.558-2.301 1.739-4.025 3.545-5.173 1.799-1.154 3.935-1.719 6.408-1.693v0c2.773 0.029 5.495 0.495 8.166 1.396v0l1.284-3.296c0.448-1.402 0.676-2.486 0.685-3.253v0c-0.025-0.807-0.285-1.413-0.781-1.819-0.496-0.405-1.264-0.613-2.304-0.624v0c0.194 0.535 0.289 1.086 0.283 1.653v0c-0.013 1.24-0.491 2.305-1.434 3.195-0.95 0.897-2.291 1.336-4.024 1.318v0c-1.64-0.017-2.916-0.391-3.828-1.121-0.912-0.73-1.363-1.628-1.352-2.694v0c0.018-1.673 0.969-3.053 2.854-4.14 1.885-1.08 4.747-1.6 8.587-1.56zM241.074-9.179c-0.94-0.01-1.707 0.339-2.302 1.046-0.588 0.714-0.886 1.491-0.894 2.33v0c-0.006 0.533 0.113 0.968 0.356 1.304 0.25 0.336 0.608 0.506 1.075 0.512v0c0.433 0.005 0.912-0.167 1.435-0.515 0.524-0.341 0.906-0.864 1.147-1.568v0l1.081-2.939c-0.566-0.106-1.198-0.163-1.898-0.17zM275.823-24.004c2.033 0.05 3.812 0.387 5.337 1.011 1.525 0.618 2.702 1.447 3.53 2.488 0.828 1.041 1.227 2.181 1.196 3.42v0c-0.033 1.333-0.52 2.425-1.461 3.275-0.941 0.844-2.198 1.246-3.77 1.208v0c-1.606-0.039-2.849-0.48-3.729-1.322-0.88-0.835-1.302-1.956-1.268-3.362v0c0.016-0.666 0.134-1.367 0.352-2.102v0c-1.415 0.332-2.679 1.028-3.793 2.088-1.113 1.06-1.875 2.471-2.284 4.235v0c-0.225 1.001-0.347 1.902-0.367 2.701v0c-0.044 1.806 0.422 3.188 1.399 4.146 0.983 0.964 2.411 1.47 4.284 1.516v0c1.066 0.026 1.985-0.061 2.757-0.263 0.778-0.194 1.572-0.468 2.381-0.821v0c0.675-0.317 1.165-0.472 1.472-0.464v0c0.2 0.005 0.332 0.052 0.397 0.139 0.065 0.082 0.094 0.256 0.087 0.523v0c0.003 1.24-0.539 2.524-1.625 3.851-1.086 1.327-2.57 2.428-4.453 3.302-1.875 0.874-3.966 1.283-6.272 1.226v0c-2.406-0.059-4.524-0.555-6.355-1.487-1.838-0.932-3.246-2.237-4.225-3.915-0.979-1.678-1.442-3.62-1.388-5.825v0c0.026-1.04 0.187-2.189 0.485-3.45v0c1.008-4.123 3.084-7.2 6.229-9.229 3.144-2.03 6.839-2.993 11.084-2.889zM318.373-12.472l-3.448 9.752c-0.072 0.131-0.113 0.329-0.124 0.595v0c-0.009 0.233 0.043 0.419 0.158 0.557 0.108 0.138 0.265 0.211 0.472 0.219v0c0.4 0.016 0.746-0.144 1.04-0.479 0.3-0.342 0.501-0.511 0.6-0.507v0c0.167 0.007 0.295 0.122 0.387 0.345 0.091 0.217 0.131 0.476 0.119 0.776v0c-0.005 0.974-0.359 1.907-1.061 2.8-0.703 0.893-1.708 1.604-3.017 2.132-1.316 0.535-2.873 0.767-4.671 0.696v0c-2.205-0.087-3.94-0.666-5.205-1.737-1.265-1.071-1.881-2.46-1.847-4.166v0c0.049-1.232 0.407-2.606 1.074-4.121v0l3.033-7.106c0.19-0.426 0.291-0.772 0.301-1.038v0c0.017-0.44-0.112-0.788-0.389-1.047-0.276-0.264-0.614-0.405-1.014-0.42v0c-0.633-0.025-1.287 0.243-1.963 0.803-0.676 0.56-1.24 1.482-1.691 2.765v0l0.004-0.1-3.56 10.047c-0.116 0.402-0.18 0.753-0.192 1.054v0c-0.017 0.433 0.053 0.779 0.209 1.039 0.157 0.253 0.38 0.502 0.671 0.747v0c0.224 0.242 0.383 0.442 0.477 0.599 0.101 0.157 0.113 0.351 0.037 0.582v0c-0.19 0.426-0.539 0.729-1.047 0.909-0.508 0.18-1.278 0.25-2.31 0.209v0l-11.431-0.452c-0.866-0.034-1.496-0.203-1.891-0.505-0.389-0.296-0.507-0.674-0.356-1.135v0c0.149-0.401 0.516-0.74 1.101-1.017v0c0.51-0.247 0.939-0.547 1.287-0.9 0.348-0.353 0.654-0.928 0.919-1.725v0l8.613-24.699c0.112-0.296 0.172-0.544 0.18-0.743v0c0.015-0.373-0.067-0.68-0.244-0.921-0.177-0.241-0.411-0.483-0.702-0.728v0c-0.323-0.28-0.553-0.522-0.692-0.728-0.145-0.206-0.161-0.473-0.048-0.803v0c0.23-0.765 1.309-1.393 3.237-1.883 1.928-0.491 3.927-0.695 5.999-0.613v0c1.938 0.077 3.353 0.5 4.243 1.268 0.89 0.769 1.31 1.79 1.26 3.062v0c-0.029 0.733-0.177 1.447-0.445 2.145v0l-3.047 8.706c1.366-1.647 2.789-2.779 4.268-3.394 1.485-0.608 3.077-0.879 4.776-0.812v0c2.038 0.081 3.659 0.762 4.863 2.044 1.203 1.289 1.766 2.919 1.688 4.891v0c-0.041 1.033-0.248 2.045-0.621 3.037zM333.765-21.43c1.937 0.103 3.336 0.545 4.196 1.325 0.866 0.787 1.265 1.813 1.198 3.078v0c-0.041 0.772-0.197 1.502-0.467 2.188v0l-5.41 14.724c-0.121 0.401-0.19 0.751-0.206 1.05v0c-0.023 0.433 0.042 0.78 0.195 1.042 0.153 0.255 0.374 0.507 0.661 0.756v0c0.227 0.246 0.387 0.448 0.478 0.607 0.092 0.158 0.098 0.352 0.019 0.581v0c-0.189 0.424-0.542 0.722-1.059 0.895-0.51 0.173-1.281 0.232-2.313 0.178v0l-11.423-0.608c-0.865-0.046-1.49-0.223-1.875-0.531-0.391-0.301-0.508-0.681-0.35-1.14v0c0.155-0.399 0.526-0.733 1.115-1.002v0c0.513-0.24 0.946-0.534 1.299-0.882 0.352-0.348 0.666-0.919 0.942-1.713v0l5.134-14.237c0.116-0.294 0.179-0.541 0.19-0.741v0c0.019-0.366-0.048-0.663-0.203-0.892-0.155-0.229-0.396-0.468-0.723-0.719v0c-0.319-0.284-0.539-0.529-0.662-0.736-0.123-0.207-0.125-0.474-0.007-0.802v0c0.241-0.762 1.329-1.381 3.263-1.859 1.935-0.485 3.938-0.672 6.008-0.562zM337.709-32.315c1.305 0.069 2.367 0.55 3.188 1.441 0.82 0.898 1.197 1.966 1.132 3.205v0c-0.046 0.865-0.314 1.706-0.805 2.52-0.497 0.808-1.169 1.45-2.016 1.926-0.846 0.476-1.769 0.687-2.767 0.634v0c-1.272-0.068-2.311-0.55-3.118-1.448-0.807-0.897-1.193-1.983-1.158-3.256v0c0.044-0.832 0.308-1.646 0.791-2.441 0.476-0.796 1.128-1.439 1.955-1.929 0.834-0.49 1.767-0.707 2.798-0.652zM372.626-9.231l-3.695 9.66c-0.075 0.129-0.121 0.326-0.139 0.592v0c-0.015 0.233 0.033 0.42 0.144 0.56 0.111 0.141 0.266 0.218 0.466 0.231v0c0.399 0.026 0.75-0.125 1.051-0.452 0.309-0.334 0.513-0.498 0.613-0.492v0c0.166 0.011 0.292 0.129 0.378 0.356 0.086 0.219 0.119 0.479 0.1 0.778v0c-0.03 0.973-0.408 1.898-1.133 2.772-0.725 0.875-1.748 1.56-3.07 2.055-1.322 0.502-2.885 0.694-4.687 0.576v0c-2.202-0.143-3.922-0.767-5.16-1.869-1.238-1.103-1.818-2.507-1.74-4.212v0c0.08-1.231 0.473-2.595 1.179-4.092v0l3.224-7.025c0.194-0.422 0.3-0.765 0.317-1.032v0c0.029-0.439-0.092-0.791-0.362-1.056-0.27-0.271-0.604-0.42-1.003-0.446v0c-0.732-0.048-1.453 0.249-2.162 0.891-0.717 0.641-1.257 1.451-1.622 2.43v0l-3.768 10.006c-0.157 0.364-0.247 0.712-0.269 1.045v0c-0.026 0.399 0.036 0.731 0.186 0.994 0.15 0.257 0.366 0.528 0.648 0.814v0c0.226 0.215 0.384 0.409 0.473 0.582 0.089 0.179 0.092 0.383 0.011 0.612v0c-0.161 0.424-0.501 0.719-1.02 0.886-0.512 0.167-1.3 0.216-2.365 0.146v0l-11.415-0.744c-0.865-0.056-1.481-0.24-1.848-0.551-0.368-0.305-0.486-0.686-0.357-1.146v0c0.159-0.397 0.535-0.727 1.127-0.989v0c0.516-0.234 0.953-0.522 1.309-0.866 0.356-0.344 0.677-0.911 0.963-1.701v0l5.402-14.169c0.077-0.162 0.126-0.393 0.146-0.692v0c0.024-0.366-0.034-0.657-0.174-0.873-0.133-0.209-0.36-0.474-0.68-0.796v0c-0.315-0.288-0.533-0.536-0.653-0.744-0.12-0.208-0.119-0.475 0.003-0.802v0c0.25-0.759 1.345-1.365 3.285-1.82 1.941-0.461 3.946-0.625 6.015-0.49v0c1.67 0.109 2.957 0.654 3.861 1.635 0.911 0.981 1.264 2.287 1.058 3.917v0c1.492-1.88 3.031-3.146 4.617-3.798 1.586-0.652 3.277-0.919 5.073-0.802v0c2.036 0.133 3.639 0.855 4.809 2.167 1.177 1.319 1.701 2.964 1.572 4.933v0c-0.067 1.031-0.303 2.038-0.708 3.021zM393.112-17.372c3.834 0.31 6.844 1.266 9.028 2.867 2.185 1.601 3.16 3.854 2.925 6.758v0c-0.089 1.096-0.389 2.33-0.901 3.699v0l-2.602 6.733c-0.051 0.13-0.084 0.294-0.1 0.493v0c-0.043 0.532 0.155 0.815 0.594 0.851v0c0.399 0.032 0.755-0.113 1.068-0.436 0.308-0.33 0.511-0.49 0.611-0.482v0c0.166 0.013 0.3 0.141 0.401 0.384 0.094 0.242 0.129 0.512 0.105 0.811v0c-0.04 0.906-0.453 1.796-1.24 2.669-0.793 0.872-1.815 1.562-3.066 2.069-1.244 0.501-2.584 0.694-4.02 0.578v0c-1.734-0.14-3.191-0.576-4.369-1.306-1.184-0.738-1.959-1.74-2.325-3.008v0c-1.1 1.115-2.358 1.943-3.773 2.484-1.422 0.541-2.916 0.747-4.484 0.621v0c-1.761-0.142-3.215-0.604-4.363-1.386-1.147-0.782-1.966-1.737-2.457-2.867-0.497-1.13-0.697-2.294-0.6-3.49v0c0.043-0.532 0.135-1.046 0.275-1.543v0c0.718-2.256 2.017-3.893 3.899-4.912 1.875-1.026 4.046-1.439 6.511-1.239v0c2.764 0.224 5.447 0.879 8.047 1.965v0l1.513-3.199c0.545-1.367 0.849-2.433 0.911-3.197v0c0.032-0.807-0.185-1.43-0.652-1.868-0.466-0.439-1.218-0.7-2.254-0.784v0c0.156 0.548 0.212 1.104 0.166 1.668v0c-0.1 1.236-0.651 2.265-1.654 3.087-1.01 0.828-2.379 1.172-4.107 1.033v0c-1.635-0.132-2.881-0.594-3.74-1.386-0.859-0.792-1.245-1.719-1.16-2.783v0c0.135-1.668 1.181-2.978 3.137-3.93 1.956-0.945 4.848-1.263 8.676-0.954zM389.096-2.447c-0.937-0.076-1.727 0.218-2.369 0.882-0.636 0.671-0.988 1.425-1.056 2.262v0c-0.043 0.532 0.045 0.973 0.264 1.326 0.226 0.353 0.571 0.548 1.036 0.585v0c0.432 0.035 0.921-0.103 1.468-0.413 0.546-0.304 0.964-0.798 1.254-1.484v0l1.284-2.855c-0.557-0.145-1.184-0.246-1.881-0.303zM432.686-13.761c1.858 0.18 3.29 0.888 4.295 2.125 1.005 1.243 1.426 2.697 1.265 4.362v0c-0.061 0.63-0.184 1.205-0.368 1.723v0c-0.464 1.335-1.196 2.322-2.196 2.962-1.007 0.646-2.158 0.906-3.452 0.78v0c-1.267-0.123-2.197-0.518-2.788-1.185-0.586-0.66-1.083-1.512-1.491-2.555v0c-0.21-0.596-0.418-1.039-0.625-1.327-0.207-0.288-0.459-0.446-0.757-0.475v0c-0.332-0.032-0.637 0.072-0.915 0.313-0.278 0.241-0.549 0.687-0.813 1.338v0l-5.051 12.099c-0.082 0.159-0.14 0.408-0.173 0.747v0c-0.042 0.431 0.05 0.799 0.275 1.101 0.218 0.309 0.533 0.618 0.945 0.926v0c0.372 0.304 0.617 0.545 0.734 0.724 0.117 0.179 0.145 0.403 0.086 0.671v0c-0.108 0.425-0.381 0.717-0.819 0.876-0.437 0.159-1.154 0.19-2.149 0.093v0l-12.78-1.239c-0.863-0.084-1.473-0.287-1.83-0.61-0.358-0.316-0.464-0.701-0.319-1.156v0c0.172-0.392 0.558-0.709 1.157-0.953v0c0.523-0.217 0.969-0.492 1.336-0.825 0.367-0.333 0.706-0.889 1.016-1.67v0l5.847-13.991c0.082-0.159 0.138-0.388 0.167-0.687v0c0.035-0.365-0.013-0.658-0.146-0.878-0.127-0.213-0.345-0.486-0.654-0.817v0c-0.306-0.298-0.516-0.552-0.629-0.764-0.113-0.212-0.104-0.479 0.027-0.801v0c0.274-0.75 1.387-1.322 3.341-1.716 1.954-0.4 3.963-0.5 6.028-0.3v0c1.367 0.133 2.468 0.551 3.304 1.255 0.837 0.697 1.336 1.627 1.498 2.788v0c1.822-2.208 4.033-3.186 6.634-2.934z" opacity="1" transform="matrix(1,0,0,1,0,0)" fill="#25d366" class="wordmark-text-0" data-fill-palette-color="primary" id="text-0"></path></svg></g></svg></g><g transform="matrix(1,0,0,1,38.428,23.94685792869852)"><svg viewBox="0 0 131.144 9.810517847205661" height="9.810517847205661" width="131.144"><g transform="matrix(1,0,0,1,0,0)"><svg width="131.144" viewBox="5.7 -37.1 628.89 47.050000000000004" height="9.810517847205661" data-palette-color="#25d366"><path d="M39-35L42.05-35 42.05 0 38.5 0 38.5-28 24.75-4.45 23-4.45 9.25-27.85 9.25 0 5.7 0 5.7-35 8.75-35 23.95-9.05 39-35ZM61.9-26.5Q67.05-26.5 69.8-23.93 72.55-21.35 72.55-16.3L72.55-16.3 72.55 0 69.15 0 69.15-4.1Q67.95-2.05 65.62-0.9 63.3 0.25 60.1 0.25L60.1 0.25Q55.7 0.25 53.1-1.85 50.5-3.95 50.5-7.4L50.5-7.4Q50.5-10.75 52.92-12.8 55.35-14.85 60.65-14.85L60.65-14.85 69-14.85 69-16.45Q69-19.85 67.1-21.63 65.2-23.4 61.55-23.4L61.55-23.4Q59.05-23.4 56.75-22.58 54.45-21.75 52.8-20.3L52.8-20.3 51.2-22.95Q53.2-24.65 56-25.58 58.8-26.5 61.9-26.5L61.9-26.5ZM60.65-2.55Q63.65-2.55 65.8-3.93 67.95-5.3 69-7.9L69-7.9 69-12.2 60.75-12.2Q54-12.2 54-7.5L54-7.5Q54-5.2 55.75-3.88 57.5-2.55 60.65-2.55L60.65-2.55ZM89.25 0.25Q86.05 0.25 83.12-0.68 80.2-1.6 78.55-3L78.55-3 80.15-5.8Q81.8-4.5 84.3-3.68 86.8-2.85 89.5-2.85L89.5-2.85Q93.09-2.85 94.82-3.98 96.55-5.1 96.55-7.15L96.55-7.15Q96.55-8.6 95.59-9.43 94.65-10.25 93.2-10.68 91.75-11.1 89.34-11.5L89.34-11.5Q86.15-12.1 84.2-12.73 82.25-13.35 80.87-14.85 79.5-16.35 79.5-19L79.5-19Q79.5-22.3 82.25-24.4 85-26.5 89.9-26.5L89.9-26.5Q92.45-26.5 95-25.83 97.55-25.15 99.2-24.05L99.2-24.05 97.65-21.2Q94.4-23.45 89.9-23.45L89.9-23.45Q86.5-23.45 84.77-22.25 83.05-21.05 83.05-19.1L83.05-19.1Q83.05-17.6 84.02-16.7 85-15.8 86.45-15.38 87.9-14.95 90.45-14.5L90.45-14.5Q93.59-13.9 95.5-13.3 97.4-12.7 98.75-11.25 100.09-9.8 100.09-7.25L100.09-7.25Q100.09-3.8 97.22-1.78 94.34 0.25 89.25 0.25L89.25 0.25ZM119.24-4.15L120.49-1.6Q119.49-0.7 118.02-0.23 116.54 0.25 114.94 0.25L114.94 0.25Q111.24 0.25 109.24-1.75 107.24-3.75 107.24-7.4L107.24-7.4 107.24-23.3 102.54-23.3 102.54-26.3 107.24-26.3 107.24-32.05 110.79-32.05 110.79-26.3 118.79-26.3 118.79-23.3 110.79-23.3 110.79-7.6Q110.79-5.25 111.97-4.03 113.14-2.8 115.34-2.8L115.34-2.8Q116.44-2.8 117.47-3.15 118.49-3.5 119.24-4.15L119.24-4.15ZM148.94-13.15L148.89-12.05 126.89-12.05Q127.19-7.95 130.04-5.43 132.89-2.9 137.24-2.9L137.24-2.9Q139.69-2.9 141.74-3.78 143.79-4.65 145.29-6.35L145.29-6.35 147.29-4.05Q145.54-1.95 142.92-0.85 140.29 0.25 137.14 0.25L137.14 0.25Q133.09 0.25 129.97-1.48 126.84-3.2 125.09-6.25 123.34-9.3 123.34-13.15L123.34-13.15Q123.34-17 125.02-20.05 126.69-23.1 129.62-24.8 132.54-26.5 136.19-26.5L136.19-26.5Q139.84-26.5 142.74-24.8 145.64-23.1 147.29-20.08 148.94-17.05 148.94-13.15L148.94-13.15ZM136.19-23.45Q132.39-23.45 129.81-21.03 127.24-18.6 126.89-14.7L126.89-14.7 145.54-14.7Q145.19-18.6 142.62-21.03 140.04-23.45 136.19-23.45L136.19-23.45ZM159.59-21.15Q160.84-23.8 163.31-25.15 165.79-26.5 169.44-26.5L169.44-26.5 169.44-23.05 168.59-23.1Q164.44-23.1 162.09-20.55 159.74-18 159.74-13.4L159.74-13.4 159.74 0 156.19 0 156.19-26.3 159.59-26.3 159.59-21.15ZM193.78-3.2L214.83-3.2 214.83 0 190.08 0 190.08-35 214.08-35 214.08-31.8 193.78-31.8 193.78-19.35 211.88-19.35 211.88-16.2 193.78-16.2 193.78-3.2ZM236.18-26.5Q241.13-26.5 244.06-23.63 246.98-20.75 246.98-15.25L246.98-15.25 246.98 0 243.43 0 243.43-14.9Q243.43-19 241.38-21.15 239.33-23.3 235.53-23.3L235.53-23.3Q231.28-23.3 228.81-20.78 226.33-18.25 226.33-13.8L226.33-13.8 226.33 0 222.78 0 222.78-26.3 226.18-26.3 226.18-21.45Q227.63-23.85 230.21-25.18 232.78-26.5 236.18-26.5L236.18-26.5ZM277.68-26.3L281.08-26.3 281.08-3.2Q281.08 3.5 277.8 6.73 274.53 9.95 267.93 9.95L267.93 9.95Q264.28 9.95 261 8.88 257.73 7.8 255.68 5.9L255.68 5.9 257.48 3.2Q259.38 4.9 262.1 5.85 264.83 6.8 267.83 6.8L267.83 6.8Q272.83 6.8 275.18 4.48 277.53 2.15 277.53-2.75L277.53-2.75 277.53-6.1Q275.88-3.6 273.2-2.3 270.53-1 267.28-1L267.28-1Q263.58-1 260.55-2.63 257.53-4.25 255.8-7.18 254.08-10.1 254.08-13.8L254.08-13.8Q254.08-17.5 255.8-20.4 257.53-23.3 260.53-24.9 263.53-26.5 267.28-26.5L267.28-26.5Q270.63-26.5 273.33-25.15 276.03-23.8 277.68-21.25L277.68-21.25 277.68-26.3ZM267.63-4.15Q270.48-4.15 272.78-5.38 275.08-6.6 276.35-8.8 277.63-11 277.63-13.8L277.63-13.8Q277.63-16.6 276.35-18.78 275.08-20.95 272.8-22.18 270.53-23.4 267.63-23.4L267.63-23.4Q264.78-23.4 262.5-22.2 260.23-21 258.95-18.8 257.68-16.6 257.68-13.8L257.68-13.8Q257.68-11 258.95-8.8 260.23-6.6 262.5-5.38 264.78-4.15 267.63-4.15L267.63-4.15ZM291.03 0L291.03-37.1 294.58-37.1 294.58 0 291.03 0ZM304.47 0L304.47-26.3 308.02-26.3 308.02 0 304.47 0ZM306.27-32.05Q305.17-32.05 304.42-32.8 303.67-33.55 303.67-34.6L303.67-34.6Q303.67-35.6 304.42-36.35 305.17-37.1 306.27-37.1L306.27-37.1Q307.37-37.1 308.12-36.38 308.87-35.65 308.87-34.65L308.87-34.65Q308.87-33.55 308.12-32.8 307.37-32.05 306.27-32.05L306.27-32.05ZM324.97 0.25Q321.77 0.25 318.85-0.68 315.92-1.6 314.27-3L314.27-3 315.87-5.8Q317.52-4.5 320.02-3.68 322.52-2.85 325.22-2.85L325.22-2.85Q328.82-2.85 330.55-3.98 332.27-5.1 332.27-7.15L332.27-7.15Q332.27-8.6 331.32-9.43 330.37-10.25 328.92-10.68 327.47-11.1 325.07-11.5L325.07-11.5Q321.87-12.1 319.92-12.73 317.97-13.35 316.6-14.85 315.22-16.35 315.22-19L315.22-19Q315.22-22.3 317.97-24.4 320.72-26.5 325.62-26.5L325.62-26.5Q328.17-26.5 330.72-25.83 333.27-25.15 334.92-24.05L334.92-24.05 333.37-21.2Q330.12-23.45 325.62-23.45L325.62-23.45Q322.22-23.45 320.5-22.25 318.77-21.05 318.77-19.1L318.77-19.1Q318.77-17.6 319.75-16.7 320.72-15.8 322.17-15.38 323.62-14.95 326.17-14.5L326.17-14.5Q329.32-13.9 331.22-13.3 333.12-12.7 334.47-11.25 335.82-9.8 335.82-7.25L335.82-7.25Q335.82-3.8 332.95-1.78 330.07 0.25 324.97 0.25L324.97 0.25ZM355.77-26.5Q360.72-26.5 363.64-23.63 366.57-20.75 366.57-15.25L366.57-15.25 366.57 0 363.02 0 363.02-14.9Q363.02-19 360.97-21.15 358.92-23.3 355.12-23.3L355.12-23.3Q350.87-23.3 348.39-20.78 345.92-18.25 345.92-13.8L345.92-13.8 345.92 0 342.37 0 342.37-37.1 345.92-37.1 345.92-21.7Q347.37-24 349.92-25.25 352.47-26.5 355.77-26.5L355.77-26.5ZM434.56-35L438.11-35 426.31 0 422.41 0 412.16-29.85 401.86 0 398.01 0 386.21-35 390.01-35 400.11-4.9 410.56-35 414.01-35 424.31-4.75 434.56-35ZM443.96 0L443.96-26.3 447.51-26.3 447.51 0 443.96 0ZM445.76-32.05Q444.66-32.05 443.91-32.8 443.16-33.55 443.16-34.6L443.16-34.6Q443.16-35.6 443.91-36.35 444.66-37.1 445.76-37.1L445.76-37.1Q446.86-37.1 447.61-36.38 448.36-35.65 448.36-34.65L448.36-34.65Q448.36-33.55 447.61-32.8 446.86-32.05 445.76-32.05L445.76-32.05ZM470.01-4.15L471.26-1.6Q470.26-0.7 468.78-0.23 467.31 0.25 465.71 0.25L465.71 0.25Q462.01 0.25 460.01-1.75 458.01-3.75 458.01-7.4L458.01-7.4 458.01-23.3 453.31-23.3 453.31-26.3 458.01-26.3 458.01-32.05 461.56-32.05 461.56-26.3 469.56-26.3 469.56-23.3 461.56-23.3 461.56-7.6Q461.56-5.25 462.73-4.03 463.91-2.8 466.11-2.8L466.11-2.8Q467.21-2.8 468.23-3.15 469.26-3.5 470.01-4.15L470.01-4.15ZM491.11-26.5Q496.06-26.5 498.98-23.63 501.91-20.75 501.91-15.25L501.91-15.25 501.91 0 498.36 0 498.36-14.9Q498.36-19 496.31-21.15 494.26-23.3 490.46-23.3L490.46-23.3Q486.21-23.3 483.73-20.78 481.26-18.25 481.26-13.8L481.26-13.8 481.26 0 477.71 0 477.71-37.1 481.26-37.1 481.26-21.7Q482.71-24 485.26-25.25 487.81-26.5 491.11-26.5L491.11-26.5ZM529.1-3.2L550.15-3.2 550.15 0 525.4 0 525.4-35 549.4-35 549.4-31.8 529.1-31.8 529.1-19.35 547.2-19.35 547.2-16.2 529.1-16.2 529.1-3.2ZM566.9-26.5Q572.05-26.5 574.8-23.93 577.55-21.35 577.55-16.3L577.55-16.3 577.55 0 574.15 0 574.15-4.1Q572.95-2.05 570.62-0.9 568.3 0.25 565.1 0.25L565.1 0.25Q560.7 0.25 558.1-1.85 555.5-3.95 555.5-7.4L555.5-7.4Q555.5-10.75 557.92-12.8 560.35-14.85 565.65-14.85L565.65-14.85 574-14.85 574-16.45Q574-19.85 572.1-21.63 570.2-23.4 566.55-23.4L566.55-23.4Q564.05-23.4 561.75-22.58 559.45-21.75 557.8-20.3L557.8-20.3 556.2-22.95Q558.2-24.65 561-25.58 563.8-26.5 566.9-26.5L566.9-26.5ZM565.65-2.55Q568.65-2.55 570.8-3.93 572.95-5.3 574-7.9L574-7.9 574-12.2 565.75-12.2Q559-12.2 559-7.5L559-7.5Q559-5.2 560.75-3.88 562.5-2.55 565.65-2.55L565.65-2.55ZM594.25 0.25Q591.04 0.25 588.12-0.68 585.2-1.6 583.54-3L583.54-3 585.14-5.8Q586.79-4.5 589.29-3.68 591.79-2.85 594.5-2.85L594.5-2.85Q598.1-2.85 599.82-3.98 601.54-5.1 601.54-7.15L601.54-7.15Q601.54-8.6 600.6-9.43 599.64-10.25 598.2-10.68 596.75-11.1 594.35-11.5L594.35-11.5Q591.14-12.1 589.2-12.73 587.25-13.35 585.87-14.85 584.5-16.35 584.5-19L584.5-19Q584.5-22.3 587.25-24.4 590-26.5 594.89-26.5L594.89-26.5Q597.45-26.5 600-25.83 602.54-25.15 604.2-24.05L604.2-24.05 602.64-21.2Q599.39-23.45 594.89-23.45L594.89-23.45Q591.5-23.45 589.77-22.25 588.04-21.05 588.04-19.1L588.04-19.1Q588.04-17.6 589.02-16.7 590-15.8 591.45-15.38 592.89-14.95 595.45-14.5L595.45-14.5Q598.6-13.9 600.5-13.3 602.39-12.7 603.75-11.25 605.1-9.8 605.1-7.25L605.1-7.25Q605.1-3.8 602.22-1.78 599.35 0.25 594.25 0.25L594.25 0.25ZM634.59-13.15L634.54-12.05 612.54-12.05Q612.84-7.95 615.69-5.43 618.54-2.9 622.89-2.9L622.89-2.9Q625.34-2.9 627.39-3.78 629.44-4.65 630.94-6.35L630.94-6.35 632.94-4.05Q631.19-1.95 628.57-0.85 625.94 0.25 622.79 0.25L622.79 0.25Q618.74 0.25 615.62-1.48 612.49-3.2 610.74-6.25 608.99-9.3 608.99-13.15L608.99-13.15Q608.99-17 610.67-20.05 612.34-23.1 615.27-24.8 618.19-26.5 621.84-26.5L621.84-26.5Q625.49-26.5 628.39-24.8 631.29-23.1 632.94-20.08 634.59-17.05 634.59-13.15L634.59-13.15ZM621.84-23.45Q618.04-23.45 615.47-21.03 612.89-18.6 612.54-14.7L612.54-14.7 631.19-14.7Q630.84-18.6 628.27-21.03 625.69-23.45 621.84-23.45L621.84-23.45Z" opacity="1" transform="matrix(1,0,0,1,0,0)" fill="#25d366" class="slogan-text-1" data-fill-palette-color="secondary" id="text-1"></path></svg></g></svg></g></svg></g></svg></g><g transform="matrix(1,0,0,1,64.91791248114183,0)"><svg viewBox="0 0 78.16417503771635 81.92915100811943" height="81.92915100811943" width="78.16417503771635"><g><svg xmlns="http://www.w3.org/2000/svg" xmlns:xlink="http://www.w3.org/1999/xlink" version="1.1" x="0" y="0" viewBox="0 0 95.5 100.1" style="enable-background:new 0 0 95.4 100;" xml:space="preserve" width="78.16417503771635" height="81.92915100811943" class="icon-icon-0" data-fill-palette-color="accent" id="icon-0"><path d="M22.7 81.7H11.4c-3.8 0-6.8-3.1-6.8-6.8V43c0-1.3-1-2.3-2.3-2.3S0 41.8 0 43v31.8C0 80.3 3.9 84.9 9.1 86v11.6c0 1.3 1 2.3 2.3 2.3s2.3-1 2.3-2.3V86.2h9.1c1.3 0 2.3-1 2.3-2.3S24 81.7 22.7 81.7zM39.8 23.7c4.4 0 8 3.6 8 8s-3.6 8-8 8-8-3.6-8-8S35.4 23.7 39.8 23.7zM93.1 61.2H34.2c-1.3 0-2.3 1-2.3 2.3 0 1.3 1 2.3 2.3 2.3h27.2l-0.1 32c0 1.3 1 2.3 2.3 2.3l0 0c1.3 0 2.3-1 2.3-2.3l0.1-32h27.2c1.3 0 2.3-1 2.3-2.3C95.4 62.2 94.4 61.2 93.1 61.2zM56.8 49.8h-0.7l-5.3-5.3c-0.4-0.4-1.2-0.4-1.6 0-0.4 0.4-0.4 1.2 0 1.6l3.7 3.7h-8.1L32.4 39.3c-1-0.9-1.4-1.3-2.3-1.8-3.4-1.6-7.5-0.1-9.1 3.3L7.7 69.7c-1.6 3.4-0.1 7.5 3.3 9.1 0.9 0.4 1.8 0.6 2.7 0.6l0 0H30l-9.3 13.5c-1.4 2.1-0.9 4.9 1.2 6.3s4.9 0.9 6.3-1.2l14.2-20.6 0 0c0.3-0.5 0.6-1 0.7-1.6 0.1-0.3 0.1-0.6 0.1-0.9l0 0c0-0.1 0-0.2 0-0.3 0-0.2 0-0.4-0.1-0.6 0-0.2-0.1-0.3-0.1-0.4s-0.1-0.3-0.1-0.4c-0.1-0.1-0.1-0.3-0.2-0.4-0.1-0.1-0.1-0.2-0.2-0.4-0.1-0.1-0.2-0.3-0.3-0.4s-0.2-0.2-0.3-0.3c-0.2-0.2-0.3-0.3-0.5-0.4-0.1 0-0.1-0.1-0.2-0.1l0 0c-0.5-0.3-1-0.6-1.6-0.7-0.3-0.1-0.6-0.1-0.9-0.1l0 0H22.4l9.2-19.8 8.6 7.3c0.9 0.7 1.9 1.1 2.9 1.1h13.6c2.5 0 4.5-2 4.5-4.5C61.4 51.9 59.3 49.8 56.8 49.8zM88.6 59.1H72.7c-1.3 0-2.3-1-2.3-2.3s1-2.3 2.3-2.3h15.9c1.3 0 2.3 1 2.3 2.3S89.9 59.1 88.6 59.1zM90.9 52.3H77.3c-1.3 0-2.3-1-2.3-2.3s1-2.3 2.3-2.3h13.6c1.3 0 2.3 1 2.3 2.3S92.2 52.3 90.9 52.3zM72.7 22.7c-6.3 0-11.4-5.1-11.4-11.4S66.5 0 72.7 0s11.4 5.1 11.4 11.4S79 22.7 72.7 22.7zM72.7 4.5c-3.8 0-6.8 3.1-6.8 6.8s3.1 6.8 6.8 6.8 6.8-3.1 6.8-6.8S76.5 4.5 72.7 4.5zM72.7 12.5h-4.5c-0.6 0-1.1-0.5-1.1-1.1s0.5-1.1 1.1-1.1h3.4V6.8c0-0.6 0.5-1.1 1.1-1.1s1.1 0.5 1.1 1.1v4.5C73.9 12 73.4 12.5 72.7 12.5z" fill="#25d366" data-fill-palette-color="accent"></path></svg></g></svg></g><g></g></svg></g></svg></g></svg></g><defs></defs></svg><rect width="320" height="360" fill="none" stroke="none" visibility="hidden"></rect></g></svg></g></svg>