<svg xmlns="http://www.w3.org/2000/svg" version="1.1" xmlns:xlink="http://www.w3.org/1999/xlink" xmlns:svgjs="http://svgjs.dev/svgjs" width="1500" height="518" viewBox="0 0 1500 518"><g transform="matrix(1,0,0,1,-0.9090909090909918,-0.025979930337143742)"><svg viewBox="0 0 396 137" data-background-color="#004051" preserveAspectRatio="xMidYMid meet" height="518" width="1500" xmlns="http://www.w3.org/2000/svg" xmlns:xlink="http://www.w3.org/1999/xlink"><g id="tight-bounds" transform="matrix(1,0,0,1,0.2400000000000091,0.0068711398768073195)"><svg viewBox="0 0 395.52 136.98625772024639" height="136.98625772024639" width="395.52"><g><svg viewBox="0 0 395.52 136.98625772024639" height="136.98625772024639" width="395.52"><g transform="matrix(1,0,0,1,0,102.74034396254619)"><svg viewBox="0 0 395.52 34.2459137577002" height="34.2459137577002" width="395.52"><g id="textblocktransform"><svg viewBox="0 0 395.52 34.2459137577002" height="34.2459137577002" width="395.52" id="textblock"><g><svg viewBox="0 0 395.52 34.2459137577002" height="34.2459137577002" width="395.52"><g transform="matrix(1,0,0,1,0,0)"><svg width="395.52" viewBox="-1.3 -37.5 438.27000000000004 37.95" height="34.2459137577002" data-palette-color="#32fd6b"><path d="M22.2-33.3Q23.25-33.3 23.83-32.98 24.4-32.65 24.4-32.05L24.4-32.05Q24.4-31.8 24.25-31.4L24.25-31.4Q24.1-31.05 23.83-30.78 23.55-30.5 23.33-30.38 23.1-30.25 23-30.15L23-30.15Q22.2-29.7 21.7-29.15 21.2-28.6 20.85-27.45L20.85-27.45 14.8-5.9Q14.6-5.25 14.6-4.65L14.6-4.65Q14.6-4.05 14.78-3.65 14.95-3.25 15.3-2.8L15.3-2.8Q15.75-2.15 15.75-1.75L15.75-1.75Q15.75-1.65 15.65-1.25L15.65-1.25Q15.45-0.55 14.75-0.28 14.05 0 12.65 0L12.65 0 0.9 0Q-0.15 0-0.73-0.35-1.3-0.7-1.3-1.3L-1.3-1.3Q-1.3-1.6-1.15-1.95L-1.15-1.95Q-0.95-2.5-0.5-2.8-0.05-3.1 0.05-3.15L0.05-3.15Q0.85-3.65 1.35-4.17 1.85-4.7 2.2-5.9L2.2-5.9 8.3-27.45Q8.5-28.1 8.5-28.7L8.5-28.7Q8.5-29.25 8.33-29.63 8.15-30 7.85-30.5L7.85-30.5Q7.4-31.15 7.4-31.55L7.4-31.55Q7.4-31.7 7.5-32.1L7.5-32.1Q7.7-32.75 8.38-33.02 9.05-33.3 10.45-33.3L10.45-33.3 22.2-33.3ZM54.35-33.3Q56.2-33.3 57.22-32.5 58.25-31.7 58.25-30.3L58.25-30.3Q58.25-29.6 58.05-28.95L58.05-28.95 56.75-24.3Q56.4-22.95 55.72-22.43 55.05-21.9 53.8-21.9L53.8-21.9Q52.6-21.9 51.92-22.43 51.25-22.95 50.9-24.15L50.9-24.15 50.1-27Q49.85-27.9 49.5-28.2 49.15-28.5 48.15-28.5L48.15-28.5 42.9-28.5 40.4-19.6 42.6-19.6Q42.95-19.6 43.55-20.1L43.55-20.1 45.25-21.6Q46-22.25 46.55-22.55 47.1-22.85 47.9-22.85L47.9-22.85Q48.8-22.85 49.37-22.38 49.95-21.9 49.95-21.15L49.95-21.15Q49.95-20.95 49.85-20.55L49.85-20.55 47.8-13.6Q47.5-12.5 46.77-11.98 46.05-11.45 45.2-11.45L45.2-11.45Q43.8-11.45 43.1-12.9L43.1-12.9 42.25-14.65Q41.9-15.4 41.15-15.4L41.15-15.4 39.2-15.4 36.25-4.8 40.65-4.8Q41.6-4.8 42.32-5.18 43.05-5.55 43.9-6.5L43.9-6.5 46.9-9.8Q47.7-10.65 48.42-11.03 49.15-11.4 50.2-11.4L50.2-11.4Q51.3-11.4 52-10.9 52.7-10.4 52.7-9.4L52.7-9.4Q52.7-9 52.55-8.45L52.55-8.45 51.1-3.4Q50.55-1.5 49.5-0.75 48.45 0 46.45 0L46.45 0 22.6 0Q21.55 0 20.97-0.35 20.4-0.7 20.4-1.3L20.4-1.3Q20.4-1.6 20.55-1.95L20.55-1.95Q20.75-2.5 21.2-2.8 21.65-3.1 21.75-3.15L21.75-3.15Q22.55-3.65 23.05-4.17 23.55-4.7 23.9-5.9L23.9-5.9 30.05-27.45Q30.25-28.1 30.25-28.65L30.25-28.65Q30.25-29.25 30.07-29.65 29.9-30.05 29.55-30.5L29.55-30.5Q29.1-31.15 29.1-31.55L29.1-31.55Q29.1-31.7 29.2-32.1L29.2-32.1Q29.4-32.75 30.1-33.02 30.8-33.3 32.15-33.3L32.15-33.3 54.35-33.3ZM83.4-12.9Q84.8-12.9 85.52-12.33 86.25-11.75 86.25-10.7L86.25-10.7Q86.25-10.25 86.09-9.7L86.09-9.7 84.45-3.85Q83.8-1.7 82.62-0.85 81.45 0 79.15 0L79.15 0 55.65 0Q54.6 0 54.02-0.35 53.45-0.7 53.45-1.3L53.45-1.3Q53.45-1.6 53.6-1.95L53.6-1.95Q53.75-2.35 54.1-2.63 54.45-2.9 54.85-3.15L54.85-3.15Q55.65-3.65 56.15-4.17 56.65-4.7 57-5.9L57-5.9 63.1-27.45Q63.3-28.1 63.3-28.7L63.3-28.7Q63.3-29.25 63.12-29.63 62.95-30 62.65-30.5L62.65-30.5Q62.2-31.15 62.2-31.55L62.2-31.55Q62.2-31.7 62.3-32.1L62.3-32.1Q62.5-32.75 63.17-33.02 63.85-33.3 65.25-33.3L65.25-33.3 77-33.3Q78.05-33.3 78.62-32.98 79.2-32.65 79.2-32.05L79.2-32.05Q79.2-31.8 79.05-31.4L79.05-31.4Q78.9-31.05 78.62-30.78 78.34-30.5 78.12-30.38 77.9-30.25 77.8-30.15L77.8-30.15Q77-29.7 76.5-29.15 76-28.6 75.65-27.45L75.65-27.45 69.2-4.8 72.3-4.8Q73.45-4.8 74.27-5.2 75.09-5.6 76-6.7L76-6.7 79.45-10.8Q80.4-11.9 81.27-12.4 82.15-12.9 83.4-12.9L83.4-12.9ZM103.69 0.3Q99.49 0.3 96.14-1.25 92.79-2.8 90.82-5.83 88.84-8.85 88.84-13.15L88.84-13.15Q88.84-16.15 89.89-19.65L89.89-19.65Q92.19-27.15 96.84-30.48 101.49-33.8 106.79-33.8L106.79-33.8Q109.64-33.8 111.84-32.95 114.04-32.1 115.89-30.5L115.89-30.5 117.24-31.55Q118.59-32.6 119.52-33 120.44-33.4 121.59-33.4L121.59-33.4Q122.84-33.4 123.59-32.85 124.34-32.3 124.34-31.25L124.34-31.25Q124.34-30.7 124.14-30.15L124.14-30.15 121.34-22.35Q120.89-21 120.27-20.45 119.64-19.9 118.39-19.9L118.39-19.9Q117.09-19.9 116.27-20.83 115.44-21.75 114.39-24L114.39-24Q113.19-26.35 112.44-27.1 111.69-27.85 110.24-27.85L110.24-27.85Q108.19-27.85 106.29-25.33 104.39-22.8 102.84-17.75L102.84-17.75Q101.54-13.5 101.54-10.65L101.54-10.65Q101.54-8.15 102.49-6.93 103.44-5.7 105.04-5.7L105.04-5.7Q107.39-5.7 108.92-6.75 110.44-7.8 112.04-9.6L112.04-9.6Q113.04-10.7 113.67-11.23 114.29-11.75 114.99-11.75L114.99-11.75Q115.89-11.75 116.89-10.85 117.89-9.95 117.84-9.05L117.84-9.05Q117.89-7.95 116.07-5.65 114.24-3.35 111.02-1.53 107.79 0.3 103.69 0.3L103.69 0.3ZM157.84-33.3Q163.14-33.3 166.01-31 168.89-28.7 168.89-24.9L168.89-24.9Q168.89-23.4 168.44-21.75L168.44-21.75Q167.04-16.75 162.91-14.35 158.79-11.95 152.49-11.95L152.49-11.95 147.34-11.95 145.64-5.9Q145.54-5.6 145.54-5.1L145.54-5.1Q145.54-4.4 145.86-3.95 146.19-3.5 146.84-2.9L146.84-2.9Q147.39-2.4 147.59-2.15 147.79-1.9 147.79-1.55L147.79-1.55Q147.79-0.7 146.99-0.35 146.19 0 144.64 0L144.64 0 132.09 0Q130.79 0 130.14-0.48 129.49-0.95 129.69-1.8L129.69-1.8Q129.79-2.25 130.06-2.53 130.34-2.8 130.89-3.15L130.89-3.15Q131.74-3.65 132.24-4.2 132.74-4.75 133.04-5.9L133.04-5.9 139.14-27.45Q139.34-28.1 139.34-28.7L139.34-28.7Q139.34-29.25 139.16-29.63 138.99-30 138.69-30.5L138.69-30.5Q138.24-31.15 138.24-31.55L138.24-31.55Q138.24-31.7 138.34-32.1L138.34-32.1Q138.54-32.75 139.21-33.02 139.89-33.3 141.29-33.3L141.29-33.3 157.84-33.3ZM156.54-22.65Q157.09-24.5 157.09-25.9L157.09-25.9Q157.09-28.8 154.39-28.8L154.39-28.8 152.14-28.8 148.59-16.45 150.79-16.45Q152.89-16.45 154.21-17.78 155.54-19.1 156.54-22.65L156.54-22.65ZM182.89-26.45Q188.64-26.45 192.09-24.33 195.54-22.2 195.54-17.85L195.54-17.85Q195.54-16.2 194.94-14.1L194.94-14.1 192.89-7.2Q192.84-7 192.84-6.7L192.84-6.7Q192.84-5.9 193.49-5.9L193.49-5.9Q194.09-5.9 194.51-6.43 194.94-6.95 195.09-6.95L195.09-6.95Q195.34-6.95 195.51-6.6 195.69-6.25 195.69-5.8L195.69-5.8Q195.74-4.45 194.66-3.05 193.59-1.65 191.79-0.75 189.99 0.15 187.84 0.15L187.84 0.15Q185.24 0.15 183.39-0.8 181.54-1.75 180.84-3.6L180.84-3.6Q179.34-1.8 177.29-0.83 175.24 0.15 172.89 0.15L172.89 0.15Q170.24 0.15 168.44-0.88 166.64-1.9 165.76-3.53 164.89-5.15 164.89-6.95L164.89-6.95Q164.89-7.75 165.04-8.5L165.04-8.5Q165.84-11.95 168.51-13.7 171.19-15.45 174.89-15.45L174.89-15.45Q179.04-15.45 183.04-14.15L183.04-14.15 184.29-17.45Q184.94-19.55 184.94-20.7L184.94-20.7Q184.89-21.9 184.14-22.5 183.39-23.1 181.84-23.1L181.84-23.1Q182.14-22.3 182.14-21.45L182.14-21.45Q182.14-19.6 180.74-18.25 179.34-16.9 176.74-16.9L176.74-16.9Q174.29-16.9 172.91-17.98 171.54-19.05 171.54-20.65L171.54-20.65Q171.54-23.15 174.34-24.8 177.14-26.45 182.89-26.45L182.89-26.45ZM180.09-11.3Q178.69-11.3 177.81-10.23 176.94-9.15 176.94-7.9L176.94-7.9Q176.94-7.1 177.31-6.6 177.69-6.1 178.39-6.1L178.39-6.1Q179.04-6.1 179.81-6.63 180.59-7.15 180.94-8.2L180.94-8.2 181.99-11.15Q181.14-11.3 180.09-11.3L180.09-11.3ZM222.28-26.45Q225.08-26.45 226.76-24.75 228.43-23.05 228.43-20.55L228.43-20.55Q228.43-19.6 228.23-18.8L228.23-18.8Q227.73-16.75 226.33-15.65 224.93-14.55 222.98-14.55L222.98-14.55Q221.08-14.55 220.11-15.45 219.13-16.35 218.38-17.85L218.38-17.85Q217.98-18.7 217.63-19.1 217.28-19.5 216.83-19.5L216.83-19.5Q216.33-19.5 215.96-19.1 215.58-18.7 215.28-17.7L215.28-17.7 211.43-5.2Q211.33-4.95 211.33-4.45L211.33-4.45Q211.33-3.8 211.71-3.38 212.08-2.95 212.73-2.55L212.73-2.55Q213.33-2.15 213.53-1.9 213.73-1.65 213.68-1.25L213.68-1.25Q213.58-0.6 212.96-0.3 212.33 0 210.83 0L210.83 0 198.03 0Q196.73 0 196.16-0.43 195.58-0.85 195.73-1.55L195.73-1.55Q195.93-2.15 196.78-2.6L196.78-2.6Q197.53-3 198.03-3.55 198.53-4.1 198.88-5.3L198.88-5.3 203.33-19.75Q203.43-20 203.43-20.45L203.43-20.45Q203.43-21 203.21-21.3 202.98-21.6 202.48-22.05L202.48-22.05Q201.98-22.45 201.78-22.75 201.58-23.05 201.73-23.55L201.73-23.55Q202.03-24.7 204.88-25.58 207.73-26.45 210.83-26.45L210.83-26.45Q212.88-26.45 214.23-25.53 215.58-24.6 215.98-22.9L215.98-22.9Q218.38-26.45 222.28-26.45L222.28-26.45ZM243.53-26.45Q249.28-26.45 252.73-24.33 256.18-22.2 256.18-17.85L256.18-17.85Q256.18-16.2 255.58-14.1L255.58-14.1 253.53-7.2Q253.48-7 253.48-6.7L253.48-6.7Q253.48-5.9 254.13-5.9L254.13-5.9Q254.73-5.9 255.16-6.43 255.58-6.95 255.73-6.95L255.73-6.95Q255.98-6.95 256.16-6.6 256.33-6.25 256.33-5.8L256.33-5.8Q256.38-4.45 255.31-3.05 254.23-1.65 252.43-0.75 250.63 0.15 248.48 0.15L248.48 0.15Q245.88 0.15 244.03-0.8 242.18-1.75 241.48-3.6L241.48-3.6Q239.98-1.8 237.93-0.83 235.88 0.15 233.53 0.15L233.53 0.15Q230.88 0.15 229.08-0.88 227.28-1.9 226.41-3.53 225.53-5.15 225.53-6.95L225.53-6.95Q225.53-7.75 225.68-8.5L225.68-8.5Q226.48-11.95 229.16-13.7 231.83-15.45 235.53-15.45L235.53-15.45Q239.68-15.45 243.68-14.15L243.68-14.15 244.93-17.45Q245.58-19.55 245.58-20.7L245.58-20.7Q245.53-21.9 244.78-22.5 244.03-23.1 242.48-23.1L242.48-23.1Q242.78-22.3 242.78-21.45L242.78-21.45Q242.78-19.6 241.38-18.25 239.98-16.9 237.38-16.9L237.38-16.9Q234.93-16.9 233.56-17.98 232.18-19.05 232.18-20.65L232.18-20.65Q232.18-23.15 234.98-24.8 237.78-26.45 243.53-26.45L243.53-26.45ZM240.73-11.3Q239.33-11.3 238.46-10.23 237.58-9.15 237.58-7.9L237.58-7.9Q237.58-7.1 237.96-6.6 238.33-6.1 239.03-6.1L239.03-6.1Q239.68-6.1 240.46-6.63 241.23-7.15 241.58-8.2L241.58-8.2 242.63-11.15Q241.78-11.3 240.73-11.3L240.73-11.3ZM275.03-26.7Q278.08-26.7 280.38-25.83 282.68-24.95 283.95-23.43 285.23-21.9 285.23-20.05L285.23-20.05Q285.23-18.05 283.85-16.75 282.48-15.45 280.13-15.45L280.13-15.45Q277.73-15.45 276.38-16.68 275.03-17.9 275.03-20L275.03-20Q275.03-21 275.33-22.1L275.33-22.1Q273.23-21.55 271.6-19.93 269.98-18.3 269.43-15.65L269.43-15.65Q269.13-14.15 269.13-12.95L269.13-12.95Q269.13-10.25 270.63-8.85 272.13-7.45 274.93-7.45L274.93-7.45Q276.53-7.45 277.68-7.78 278.83-8.1 280.03-8.65L280.03-8.65Q281.03-9.15 281.48-9.15L281.48-9.15Q281.78-9.15 281.88-9.03 281.98-8.9 281.98-8.5L281.98-8.5Q282.03-6.65 280.45-4.63 278.88-2.6 276.1-1.23 273.33 0.15 269.88 0.15L269.88 0.15Q266.28 0.15 263.5-1.18 260.73-2.5 259.2-4.98 257.68-7.45 257.68-10.75L257.68-10.75Q257.68-12.3 258.08-14.2L258.08-14.2Q259.43-20.4 264.05-23.55 268.68-26.7 275.03-26.7L275.03-26.7ZM317.68-16.75L314.63-6.9Q314.53-6.7 314.53-6.3L314.53-6.3Q314.53-5.95 314.7-5.75 314.88-5.55 315.18-5.55L315.18-5.55Q315.78-5.55 316.2-6.08 316.63-6.6 316.78-6.6L316.78-6.6Q317.03-6.6 317.18-6.28 317.33-5.95 317.33-5.5L317.33-5.5Q317.38-4.05 316.38-2.68 315.38-1.3 313.45-0.43 311.53 0.45 308.83 0.45L308.83 0.45Q305.53 0.45 303.58-1.07 301.63-2.6 301.58-5.15L301.58-5.15Q301.58-7 302.48-9.3L302.48-9.3 305.23-16.5Q305.48-17.15 305.48-17.55L305.48-17.55Q305.48-18.2 305.05-18.57 304.63-18.95 304.03-18.95L304.03-18.95Q303.08-18.95 302.1-18.07 301.13-17.2 300.53-15.25L300.53-15.25 300.53-15.35 297.38-5.2Q297.23-4.6 297.23-4.15L297.23-4.15Q297.23-3.5 297.48-3.13 297.73-2.75 298.18-2.4L298.18-2.4Q298.53-2.05 298.68-1.83 298.83-1.6 298.73-1.25L298.73-1.25Q298.48-0.6 297.73-0.3 296.98 0 295.43 0L295.43 0 284.03 0Q282.73 0 282.13-0.43 281.53-0.85 281.73-1.55L281.73-1.55Q281.93-2.15 282.78-2.6L282.78-2.6Q283.53-3 284.03-3.55 284.53-4.1 284.88-5.3L284.88-5.3 292.48-30.25Q292.63-30.7 292.63-31L292.63-31Q292.63-31.55 292.35-31.9 292.08-32.25 291.63-32.6L291.63-32.6Q291.13-33 290.9-33.3 290.68-33.6 290.83-34.1L290.83-34.1Q291.13-35.25 293.98-36.1 296.83-36.95 299.93-36.95L299.93-36.95Q302.83-36.95 304.2-35.85 305.58-34.75 305.58-32.85L305.58-32.85Q305.58-31.75 305.23-30.7L305.23-30.7 302.53-21.9Q304.48-24.45 306.65-25.45 308.83-26.45 311.38-26.45L311.38-26.45Q314.43-26.45 316.3-24.6 318.18-22.75 318.18-19.8L318.18-19.8Q318.18-18.25 317.68-16.75L317.68-16.75ZM332.47-26.45Q335.37-26.45 336.72-25.35 338.07-24.25 338.07-22.35L338.07-22.35Q338.07-21.2 337.72-20.15L337.72-20.15 333.12-5.2Q332.97-4.6 332.97-4.15L332.97-4.15Q332.97-3.5 333.22-3.13 333.47-2.75 333.92-2.4L333.92-2.4Q334.27-2.05 334.42-1.83 334.57-1.6 334.47-1.25L334.47-1.25Q334.22-0.6 333.47-0.3 332.72 0 331.17 0L331.17 0 319.77 0Q318.47 0 317.87-0.43 317.27-0.85 317.47-1.55L317.47-1.55Q317.67-2.15 318.52-2.6L318.52-2.6Q319.27-3 319.77-3.55 320.27-4.1 320.62-5.3L320.62-5.3 324.97-19.75Q325.12-20.2 325.12-20.5L325.12-20.5Q325.12-21.05 324.87-21.38 324.62-21.7 324.12-22.05L324.12-22.05Q323.62-22.45 323.42-22.75 323.22-23.05 323.37-23.55L323.37-23.55Q323.67-24.7 326.52-25.58 329.37-26.45 332.47-26.45L332.47-26.45ZM335.82-37.5Q337.77-37.5 339.07-36.23 340.37-34.95 340.37-33.1L340.37-33.1Q340.37-31.8 339.7-30.55 339.02-29.3 337.8-28.53 336.57-27.75 335.07-27.75L335.07-27.75Q333.17-27.75 331.9-29.03 330.62-30.3 330.57-32.2L330.57-32.2Q330.57-33.45 331.22-34.68 331.87-35.9 333.07-36.7 334.27-37.5 335.82-37.5L335.82-37.5ZM371.77-16.75L368.72-6.9Q368.62-6.7 368.62-6.3L368.62-6.3Q368.62-5.95 368.8-5.75 368.97-5.55 369.27-5.55L369.27-5.55Q369.87-5.55 370.3-6.08 370.72-6.6 370.87-6.6L370.87-6.6Q371.12-6.6 371.27-6.28 371.42-5.95 371.42-5.5L371.42-5.5Q371.47-4.05 370.47-2.68 369.47-1.3 367.55-0.43 365.62 0.45 362.92 0.45L362.92 0.45Q359.62 0.45 357.67-1.07 355.72-2.6 355.67-5.15L355.67-5.15Q355.67-7 356.57-9.3L356.57-9.3 359.32-16.5Q359.57-17.15 359.57-17.55L359.57-17.55Q359.57-18.2 359.15-18.57 358.72-18.95 358.12-18.95L358.12-18.95Q357.02-18.95 356.02-17.93 355.02-16.9 354.57-15.4L354.57-15.4 351.47-5.2Q351.27-4.65 351.27-4.15L351.27-4.15Q351.27-3.55 351.52-3.18 351.77-2.8 352.22-2.4L352.22-2.4Q352.57-2.1 352.72-1.85 352.87-1.6 352.77-1.25L352.77-1.25Q352.57-0.6 351.82-0.3 351.07 0 349.47 0L349.47 0 338.07 0Q336.77 0 336.2-0.43 335.62-0.85 335.77-1.55L335.77-1.55Q335.97-2.15 336.82-2.6L336.82-2.6Q337.57-3 338.07-3.55 338.57-4.1 338.92-5.3L338.92-5.3 343.37-19.75Q343.47-20 343.47-20.45L343.47-20.45Q343.47-21 343.25-21.3 343.02-21.6 342.52-22.05L342.52-22.05Q342.02-22.45 341.82-22.75 341.62-23.05 341.77-23.55L341.77-23.55Q342.07-24.7 344.92-25.58 347.77-26.45 350.87-26.45L350.87-26.45Q353.37-26.45 354.82-25.08 356.27-23.7 356.12-21.25L356.12-21.25Q358.17-24.2 360.47-25.33 362.77-26.45 365.47-26.45L365.47-26.45Q368.52-26.45 370.4-24.6 372.27-22.75 372.27-19.8L372.27-19.8Q372.27-18.25 371.77-16.75L371.77-16.75ZM391.42-26.45Q397.17-26.45 400.62-24.33 404.07-22.2 404.07-17.85L404.07-17.85Q404.07-16.2 403.47-14.1L403.47-14.1 401.42-7.2Q401.37-7 401.37-6.7L401.37-6.7Q401.37-5.9 402.02-5.9L402.02-5.9Q402.62-5.9 403.04-6.43 403.47-6.95 403.62-6.95L403.62-6.95Q403.87-6.95 404.04-6.6 404.22-6.25 404.22-5.8L404.22-5.8Q404.27-4.45 403.19-3.05 402.12-1.65 400.32-0.75 398.52 0.15 396.37 0.15L396.37 0.15Q393.77 0.15 391.92-0.8 390.07-1.75 389.37-3.6L389.37-3.6Q387.87-1.8 385.82-0.83 383.77 0.15 381.42 0.15L381.42 0.15Q378.77 0.15 376.97-0.88 375.17-1.9 374.29-3.53 373.42-5.15 373.42-6.95L373.42-6.95Q373.42-7.75 373.57-8.5L373.57-8.5Q374.37-11.95 377.04-13.7 379.72-15.45 383.42-15.45L383.42-15.45Q387.57-15.45 391.57-14.15L391.57-14.15 392.82-17.45Q393.47-19.55 393.47-20.7L393.47-20.7Q393.42-21.9 392.67-22.5 391.92-23.1 390.37-23.1L390.37-23.1Q390.67-22.3 390.67-21.45L390.67-21.45Q390.67-19.6 389.27-18.25 387.87-16.9 385.27-16.9L385.27-16.9Q382.82-16.9 381.44-17.98 380.07-19.05 380.07-20.65L380.07-20.65Q380.07-23.15 382.87-24.8 385.67-26.45 391.42-26.45L391.42-26.45ZM388.62-11.3Q387.22-11.3 386.34-10.23 385.47-9.15 385.47-7.9L385.47-7.9Q385.47-7.1 385.84-6.6 386.22-6.1 386.92-6.1L386.92-6.1Q387.57-6.1 388.34-6.63 389.12-7.15 389.47-8.2L389.47-8.2 390.52-11.15Q389.67-11.3 388.62-11.3L388.62-11.3ZM430.82-26.45Q433.62-26.45 435.29-24.75 436.97-23.05 436.97-20.55L436.97-20.55Q436.97-19.6 436.77-18.8L436.77-18.8Q436.27-16.75 434.87-15.65 433.47-14.55 431.52-14.55L431.52-14.55Q429.62-14.55 428.64-15.45 427.67-16.35 426.92-17.85L426.92-17.85Q426.52-18.7 426.17-19.1 425.82-19.5 425.37-19.5L425.37-19.5Q424.87-19.5 424.49-19.1 424.12-18.7 423.82-17.7L423.82-17.7 419.97-5.2Q419.87-4.95 419.87-4.45L419.87-4.45Q419.87-3.8 420.24-3.38 420.62-2.95 421.27-2.55L421.27-2.55Q421.87-2.15 422.07-1.9 422.27-1.65 422.22-1.25L422.22-1.25Q422.12-0.6 421.49-0.3 420.87 0 419.37 0L419.37 0 406.57 0Q405.27 0 404.69-0.43 404.12-0.85 404.27-1.55L404.27-1.55Q404.47-2.15 405.32-2.6L405.32-2.6Q406.07-3 406.57-3.55 407.07-4.1 407.42-5.3L407.42-5.3 411.87-19.75Q411.97-20 411.97-20.45L411.97-20.45Q411.97-21 411.74-21.3 411.52-21.6 411.02-22.05L411.02-22.05Q410.52-22.45 410.32-22.75 410.12-23.05 410.27-23.55L410.27-23.55Q410.57-24.7 413.42-25.58 416.27-26.45 419.37-26.45L419.37-26.45Q421.42-26.45 422.77-25.53 424.12-24.6 424.52-22.9L424.52-22.9Q426.92-26.45 430.82-26.45L430.82-26.45Z" opacity="1" transform="matrix(1,0,0,1,0,0)" fill="#32fd6b" class="wordmark-text-0" data-fill-palette-color="primary" id="text-0"></path></svg></g></svg></g></svg></g></svg></g><g transform="matrix(1,0,0,1,145.59211304001914,0)"><svg viewBox="0 0 104.3357739199617 94.65570562628336" height="94.65570562628336" width="104.3357739199617"><g><svg xmlns="http://www.w3.org/2000/svg" xmlns:xlink="http://www.w3.org/1999/xlink" version="1.1" x="8" y="0" viewBox="11.933999999999997 8.785850117612409 76.13137482985866 81.57814988238759" enable-background="new 0 0 100 100" xml:space="preserve" height="94.65570562628336" width="88.3357739199617" class="icon-icon-0" data-fill-palette-color="accent" id="icon-0"><g fill="#32fd6b" data-fill-palette-color="accent"><path d="M35.742 42.748c-13.147 0-23.808 10.658-23.808 23.808 0 13.148 10.66 23.808 23.808 23.808s23.807-10.659 23.807-23.808C59.549 53.406 48.89 42.748 35.742 42.748zM15.226 66.556c0-4.351 1.356-8.382 3.667-11.702l0.264 0.2-0.159 0.641 0.588 0.161L19.478 55l0.481-0.054v-1.123h0.481c0 0 0.086 0.218 0.174 0.446 0.098 0.252 0.201 0.516 0.201 0.516l0.535 0.59c0 0-0.642 0.159-0.854 0.159-0.216 0-0.108 0.856-0.108 0.856l0.749 0.267 0.483-0.894 1.121-1.246 0.534-1.658 1.017-0.963-0.589-0.426 0.644-0.43 0.054-0.589-1.872 0.536-0.061-0.071c1.02-0.866 2.125-1.634 3.301-2.29l0.878 0.382-0.589 1.123h-1.177l-0.214 1.016h0.964l1.391-0.855 0.962-0.962 0.16-0.909-1.39-0.106 0.962-0.643 0.908 0.161-0.158 0.962 1.229-0.75 0.215 0.589 0.268 0.856-0.696 0.855-0.748 0.695-1.125-0.16 0.536 1.123-1.016-0.16-1.713 1.765 0.429 0.589 1.391-0.108 1.177-0.375 1.499-0.158 0.694-0.16c0 0 0-0.429-0.054-0.695-0.054-0.268 0.535 0.053 0.535 0.053l0.643-0.374 0.48-1.498 1.766-0.804-0.268-0.428 0.429-0.534L32.746 48.9l0.375-0.535-1.767-0.589h-0.909l0.32-0.802 0.375-0.375-0.03-0.03c1.488-0.343 3.037-0.53 4.632-0.53 2.483 0 4.862 0.441 7.066 1.25l-0.055 0.125-0.891-0.059v0.535l0.357 0.237v0.476l0.298 0.415-1.07-0.653-0.713 0.357 0.356 0.832 0.179 0.951 0.476 0.535 1.127 0.179-0.235 0.475-0.239 0.715 1.011 0.653-0.06 0.297-1.901-1.604-0.117 0.595 0.831 0.831 0.476 0.179-1.071 0.237-0.118 0.535-0.772-0.773-0.477-1.009-0.177-1.012-0.477 0.594 0.356 1.427 0.594 0.418-0.236 1.365-0.357-0.178 0.06 0.714-0.536-0.061-0.533-0.773h-0.653l-0.951-0.119-0.952 0.061-0.892 0.714-0.594 1.01-1.249 0.952-0.119 0.533v0.656l0.298 0.653 0.595-0.477 0.177 0.357 0.299 0.534 0.059 0.12 0.297 0.356 0.536-0.355-0.06-1.309 0.653-0.833c0 0 0.033-0.141 0.069-0.303 0.051-0.217 0.108-0.469 0.108-0.469l0.238-0.656 0.417 0.061-0.119 0.535-0.239 1.188 1.131-0.118 0.417 0.118-0.893 0.24 0.119 0.594-1.013 0.652 0.061 0.655-0.891 0.238-0.178 0.475-0.714-0.237h-0.476V59.66l-0.536 0.18v0.534l-1.486 1.189L31.52 61.86l-0.355 0.416-1.188-0.298-0.061 0.536 0.773 0.297-0.06 1.069-2.142-0.06-0.296 0.476-0.298 0.832-0.356 0.716 0.535 0.594 0.595 0.712 1.903-0.595 0.119-0.713 0.417-0.357 0.713-0.238-0.06-0.475 0.654-0.179 0.951-0.179 0.595 0.713 1.07 0.774 0.475 0.771v0.357l0.594-0.357-0.296-0.533 0.119-0.597-0.536-0.236-0.475-0.653 0.297-0.953 0.534 0.773 0.771 0.596 0.297 1.07 0.774 0.593 0.179 0.654 0.357-0.772-0.119-0.357 0.177-0.297 1.128-0.951 0.239-1.189 0.477-0.356 0.593 0.06 0.894-0.893 0.058 0.715 1.307 0.415v0.654h-1.068l-1.605 0.832-1.307 0.714 0.355 0.772 1.189 0.237 0.654 0.298 0.713-0.475 0.059 2.021-2.021 0.416-2.14-0.595-0.832 0.654 0.356 0.356-0.655-0.119-2.078-0.772-0.595 0.06-0.477-0.773V67.09h-1.07l-0.594-0.119-1.902 0.417-1.486-0.119-0.654 0.357-0.416 0.06-0.237 0.771-1.367 0.951-1.903 1.428-0.119 1.841-0.534 1.19 0.059 0.712 0.476 0.834 1.368 2.317 1.427 0.654 2.377 0.179-0.119-1.012-0.534-0.296 0.237-0.536 0.416 0.476 0.417 1.248 1.782 0.12 0.714 0.713 1.011 0.416 0.118 1.724 1.071 1.367 1.01 1.783-0.892 1.07 0.911 1.416C24.007 86.656 15.226 77.634 15.226 66.556zM42.772 85.836l2.48-1.804-0.892-2.199 2.854-3.745 0.89-2.378 0.416-1.309-1.485 0.715-0.892 0.179-2.198-1.368L43.29 72.44l-0.831-0.832L41.39 69.23l0.891 0.714 1.666 1.843 0.594 0.831 1.188 0.596 0.356 1.546 1.428-0.952 1.724-2.141 0.832-2.198-0.654-0.534-0.357-0.655-0.416 0.773-0.831 0.951-1.19-1.31-0.355-1.009 0.832 0.179 0.832 0.415 1.189-0.415 0.714 0.237 1.9-1.308 1.071 0.594 0.653-0.356 1.422 2.238 0.703-0.672 0.014-0.853 0.06-2.557 0.437-1.211c0.107 0.845 0.168 1.704 0.168 2.578C56.259 75.417 50.642 82.966 42.772 85.836z" fill="#32fd6b" data-fill-palette-color="accent"></path><path d="M87.597 20.826L69.667 8.96c-0.231-0.155-0.519-0.21-0.793-0.151l-19.859 4.193c-0.4 0.084-0.715 0.396-0.805 0.798l-0.119 0.537c-0.094 0.423 0.082 0.86 0.445 1.1l8.314 5.503-0.339 1.533c-3.004 2.252-4.957 5.83-4.957 9.871 0 6.816 5.529 12.346 12.342 12.346 6.814 0 12.344-5.529 12.344-12.346 0-1.464-0.269-2.863-0.737-4.166 0.185-0.236 0.312-0.488 0.371-0.755l0.414-1.876 5.364-1.133c0.667 0.943 1.103 2.088 1.212 3.547-0.545 0.282-0.922 0.844-0.922 1.5 0 0.551 0.267 1.034 0.674 1.344-0.461 2.352-1.076 6.673 0.15 8.589 0.361 0.563 0.873 0.924 1.479 1.039 0.048 0.009 0.096 0.014 0.144 0.014 0.356 0 0.674-0.253 0.744-0.617 0.078-0.411-0.192-0.809-0.604-0.887-0.133-0.025-0.308-0.09-0.485-0.367-0.433-0.676-0.534-2.01-0.454-3.516 0.374 1.168 0.949 2.219 1.836 2.803 0.352 0.232 0.821 0.133 1.051-0.217s0.133-0.82-0.217-1.051c-1.192-0.785-1.695-3.477-1.803-5.66 0.52-0.289 0.875-0.837 0.875-1.474 0-0.667-0.389-1.238-0.949-1.514-0.1-1.555-0.504-2.82-1.128-3.871l3.861-0.816c0.401-0.084 0.716-0.396 0.805-0.797l0.119-0.537C88.135 21.503 87.958 21.064 87.597 20.826zM67.042 16.721c0.017-0.137 0.156-0.249 0.415-0.304 0.516-0.108 1.313 0.054 1.78 0.362 0.233 0.154 0.34 0.316 0.322 0.454l-0.076 0.376c-0.018 0.137-0.156 0.248-0.414 0.303-0.518 0.109-1.313-0.053-1.78-0.361-0.233-0.155-0.34-0.317-0.323-0.454L67.042 16.721z" fill="#32fd6b" data-fill-palette-color="accent"></path><path d="M63.896 47.08c-2.799 0-5.464 0.698-7.888 1.959 4.069 4.702 6.54 10.824 6.54 17.517 0 4.897-1.326 9.489-3.63 13.444h18.437c3.72 0 6.73-3.68 6.73-8.23C84.086 58.141 75.043 47.08 63.896 47.08z" fill="#32fd6b" data-fill-palette-color="accent"></path></g></svg></g></svg></g><g><rect width="145.59211304001914" height="3.088331844452402" y="90.56737378183097" x="249.92788695998084" fill="#32fd6b" data-fill-palette-color="accent"></rect><rect width="145.59211304001914" height="3.088331844452402" y="90.56737378183097" x="0" fill="#32fd6b" data-fill-palette-color="accent"></rect><rect width="145.59211304001914" height="3.088331844452402" y="84.39071009292616" x="249.92788695998084" fill="#32fd6b" data-fill-palette-color="accent"></rect><rect width="145.59211304001914" height="3.088331844452402" y="84.39071009292616" x="0" fill="#32fd6b" data-fill-palette-color="accent"></rect></g></svg></g><defs></defs></svg><rect width="395.52" height="136.98625772024639" fill="none" stroke="none" visibility="hidden"></rect></g></svg></g></svg>