<svg xmlns="http://www.w3.org/2000/svg" version="1.1" xmlns:xlink="http://www.w3.org/1999/xlink" xmlns:svgjs="http://svgjs.dev/svgjs" width="1500" height="935" viewBox="0 0 1500 935"><g transform="matrix(1,0,0,1,-0.9090909090909918,164.26365296946676)"><svg viewBox="0 0 396 247" data-background-color="#000000" preserveAspectRatio="xMidYMid meet" height="935" width="1500" xmlns="http://www.w3.org/2000/svg" xmlns:xlink="http://www.w3.org/1999/xlink"><g id="tight-bounds" transform="matrix(1,0,0,1,0.2400000000000091,-0.09999999999999432)"><svg viewBox="0 0 395.52 247.2" height="247.2" width="395.52"><rect width="395.52" height="247.2" fill="url(#c98f24ab-31dd-481a-87b7-69dd5edbd8ae)" mask="url(#9e7750b6-3252-46d2-825e-32250925575b)" data-fill-palette-color="tertiary"></rect><g><svg></svg></g><g><svg viewBox="0 0 395.52 247.2" height="247.2" width="395.52"><g transform="matrix(1,0,0,1,75.54432,78.44534440868276)"><svg viewBox="0 0 244.43135999999998 90.30931118263447" height="90.30931118263447" width="244.43135999999998"><g><svg viewBox="0 0 244.43135999999998 90.30931118263447" height="90.30931118263447" width="244.43135999999998"><g><svg viewBox="0 0 244.43135999999998 90.30931118263447" height="90.30931118263447" width="244.43135999999998"><g><svg viewBox="0 0 244.43135999999998 90.30931118263447" height="90.30931118263447" width="244.43135999999998"><g id="textblocktransform"><svg viewBox="0 0 244.43135999999998 90.30931118263447" height="90.30931118263447" width="244.43135999999998" id="textblock"><g><svg viewBox="0 0 244.43135999999998 66.33592818145642" height="66.33592818145642" width="244.43135999999998"><g transform="matrix(1,0,0,1,0,0)"><svg width="244.43135999999998" viewBox="-1.3 -33.8 125.64 34.099999999999994" height="66.33592818145642" data-palette-color="url(#ba50b9b3-6ac3-4fb5-8640-23018ab271f6)"></svg></g></svg></g><g transform="matrix(1,0,0,1,0,81.99624876282193)"><svg viewBox="0 0 244.43135999999998 8.313062419812537" height="8.313062419812537" width="244.43135999999998"><g transform="matrix(1,0,0,1,0,0)"><svg width="244.43135999999998" viewBox="0 -35.8 1162.81 39.55" height="8.313062419812537" data-palette-color="url(#927b2045-7317-4892-9ea4-48c5ff533f6c)"></svg></g></svg></g></svg></g></svg></g><g></g></svg></g></svg></g></svg></g><g><path d="M91.75 62.785A122.216 122.216 0 0 1 303.77 62.785L297.788 62.785A116.233 116.233 0 0 0 97.732 62.785L91.75 62.785M91.75 184.415A122.216 122.216 0 0 0 303.77 184.415L297.788 184.415A116.233 116.233 0 0 1 97.732 184.415L91.75 184.415" fill="url(#c98f24ab-31dd-481a-87b7-69dd5edbd8ae)" stroke="transparent" data-fill-palette-color="tertiary"></path></g></svg></g><defs></defs><mask id="f936f02e-5739-44e3-8a7a-30801e458f9d"><g id="SvgjsG1237"><svg viewBox="0 0 395.52 247.2" height="247.2" width="395.52"><g><svg></svg></g><g><svg viewBox="0 0 395.52 247.2" height="247.2" width="395.52"><g transform="matrix(1,0,0,1,75.54432,78.44534440868276)"><svg viewBox="0 0 244.43135999999998 90.30931118263447" height="90.30931118263447" width="244.43135999999998"><g><svg viewBox="0 0 244.43135999999998 90.30931118263447" height="90.30931118263447" width="244.43135999999998"><g><svg viewBox="0 0 244.43135999999998 90.30931118263447" height="90.30931118263447" width="244.43135999999998"><g><svg viewBox="0 0 244.43135999999998 90.30931118263447" height="90.30931118263447" width="244.43135999999998"><g id="SvgjsG1236"><svg viewBox="0 0 244.43135999999998 90.30931118263447" height="90.30931118263447" width="244.43135999999998" id="SvgjsSvg1235"><g><svg viewBox="0 0 244.43135999999998 66.33592818145642" height="66.33592818145642" width="244.43135999999998"><g transform="matrix(1,0,0,1,0,0)"><svg width="244.43135999999998" viewBox="-1.3 -33.8 125.64 34.099999999999994" height="66.33592818145642" data-palette-color="url(#ba50b9b3-6ac3-4fb5-8640-23018ab271f6)"><path d="M22.2-33.3Q23.25-33.3 23.83-32.98 24.4-32.65 24.4-32.05L24.4-32.05Q24.4-31.8 24.25-31.4L24.25-31.4Q24.1-31.05 23.83-30.78 23.55-30.5 23.33-30.38 23.1-30.25 23-30.15L23-30.15Q22.2-29.7 21.7-29.15 21.2-28.6 20.85-27.45L20.85-27.45 14.8-5.9Q14.6-5.25 14.6-4.65L14.6-4.65Q14.6-4.05 14.78-3.65 14.95-3.25 15.3-2.8L15.3-2.8Q15.75-2.15 15.75-1.75L15.75-1.75Q15.75-1.65 15.65-1.25L15.65-1.25Q15.45-0.55 14.75-0.28 14.05 0 12.65 0L12.65 0 0.9 0Q-0.15 0-0.73-0.35-1.3-0.7-1.3-1.3L-1.3-1.3Q-1.3-1.6-1.15-1.95L-1.15-1.95Q-0.95-2.5-0.5-2.8-0.05-3.1 0.05-3.15L0.05-3.15Q0.85-3.65 1.35-4.17 1.85-4.7 2.2-5.9L2.2-5.9 8.3-27.45Q8.5-28.1 8.5-28.7L8.5-28.7Q8.5-29.25 8.33-29.63 8.15-30 7.85-30.5L7.85-30.5Q7.4-31.15 7.4-31.55L7.4-31.55Q7.4-31.7 7.5-32.1L7.5-32.1Q7.7-32.75 8.38-33.02 9.05-33.3 10.45-33.3L10.45-33.3 22.2-33.3ZM54.35-33.3Q56.2-33.3 57.22-32.5 58.25-31.7 58.25-30.3L58.25-30.3Q58.25-29.6 58.05-28.95L58.05-28.95 56.75-24.3Q56.4-22.95 55.72-22.43 55.05-21.9 53.8-21.9L53.8-21.9Q52.6-21.9 51.92-22.43 51.25-22.95 50.9-24.15L50.9-24.15 50.1-27Q49.85-27.9 49.5-28.2 49.15-28.5 48.15-28.5L48.15-28.5 42.9-28.5 40.4-19.6 42.6-19.6Q42.95-19.6 43.55-20.1L43.55-20.1 45.25-21.6Q46-22.25 46.55-22.55 47.1-22.85 47.9-22.85L47.9-22.85Q48.8-22.85 49.37-22.38 49.95-21.9 49.95-21.15L49.95-21.15Q49.95-20.95 49.85-20.55L49.85-20.55 47.8-13.6Q47.5-12.5 46.77-11.98 46.05-11.45 45.2-11.45L45.2-11.45Q43.8-11.45 43.1-12.9L43.1-12.9 42.25-14.65Q41.9-15.4 41.15-15.4L41.15-15.4 39.2-15.4 36.25-4.8 40.65-4.8Q41.6-4.8 42.32-5.18 43.05-5.55 43.9-6.5L43.9-6.5 46.9-9.8Q47.7-10.65 48.42-11.03 49.15-11.4 50.2-11.4L50.2-11.4Q51.3-11.4 52-10.9 52.7-10.4 52.7-9.4L52.7-9.4Q52.7-9 52.55-8.45L52.55-8.45 51.1-3.4Q50.55-1.5 49.5-0.75 48.45 0 46.45 0L46.45 0 22.6 0Q21.55 0 20.97-0.35 20.4-0.7 20.4-1.3L20.4-1.3Q20.4-1.6 20.55-1.95L20.55-1.95Q20.75-2.5 21.2-2.8 21.65-3.1 21.75-3.15L21.75-3.15Q22.55-3.65 23.05-4.17 23.55-4.7 23.9-5.9L23.9-5.9 30.05-27.45Q30.25-28.1 30.25-28.65L30.25-28.65Q30.25-29.25 30.07-29.65 29.9-30.05 29.55-30.5L29.55-30.5Q29.1-31.15 29.1-31.55L29.1-31.55Q29.1-31.7 29.2-32.1L29.2-32.1Q29.4-32.75 30.1-33.02 30.8-33.3 32.15-33.3L32.15-33.3 54.35-33.3ZM83.4-12.9Q84.8-12.9 85.52-12.33 86.25-11.75 86.25-10.7L86.25-10.7Q86.25-10.25 86.09-9.7L86.09-9.7 84.45-3.85Q83.8-1.7 82.62-0.85 81.45 0 79.15 0L79.15 0 55.65 0Q54.6 0 54.02-0.35 53.45-0.7 53.45-1.3L53.45-1.3Q53.45-1.6 53.6-1.95L53.6-1.95Q53.75-2.35 54.1-2.63 54.45-2.9 54.85-3.15L54.85-3.15Q55.65-3.65 56.15-4.17 56.65-4.7 57-5.9L57-5.9 63.1-27.45Q63.3-28.1 63.3-28.7L63.3-28.7Q63.3-29.25 63.12-29.63 62.95-30 62.65-30.5L62.65-30.5Q62.2-31.15 62.2-31.55L62.2-31.55Q62.2-31.7 62.3-32.1L62.3-32.1Q62.5-32.75 63.17-33.02 63.85-33.3 65.25-33.3L65.25-33.3 77-33.3Q78.05-33.3 78.62-32.98 79.2-32.65 79.2-32.05L79.2-32.05Q79.2-31.8 79.05-31.4L79.05-31.4Q78.9-31.05 78.62-30.78 78.34-30.5 78.12-30.38 77.9-30.25 77.8-30.15L77.8-30.15Q77-29.7 76.5-29.15 76-28.6 75.65-27.45L75.65-27.45 69.2-4.8 72.3-4.8Q73.45-4.8 74.27-5.2 75.09-5.6 76-6.7L76-6.7 79.45-10.8Q80.4-11.9 81.27-12.4 82.15-12.9 83.4-12.9L83.4-12.9ZM103.69 0.3Q99.49 0.3 96.14-1.25 92.79-2.8 90.82-5.83 88.84-8.85 88.84-13.15L88.84-13.15Q88.84-16.15 89.89-19.65L89.89-19.65Q92.19-27.15 96.84-30.48 101.49-33.8 106.79-33.8L106.79-33.8Q109.64-33.8 111.84-32.95 114.04-32.1 115.89-30.5L115.89-30.5 117.24-31.55Q118.59-32.6 119.52-33 120.44-33.4 121.59-33.4L121.59-33.4Q122.84-33.4 123.59-32.85 124.34-32.3 124.34-31.25L124.34-31.25Q124.34-30.7 124.14-30.15L124.14-30.15 121.34-22.35Q120.89-21 120.27-20.45 119.64-19.9 118.39-19.9L118.39-19.9Q117.09-19.9 116.27-20.83 115.44-21.75 114.39-24L114.39-24Q113.19-26.35 112.44-27.1 111.69-27.85 110.24-27.85L110.24-27.85Q108.19-27.85 106.29-25.33 104.39-22.8 102.84-17.75L102.84-17.75Q101.54-13.5 101.54-10.65L101.54-10.65Q101.54-8.15 102.49-6.93 103.44-5.7 105.04-5.7L105.04-5.7Q107.39-5.7 108.92-6.75 110.44-7.8 112.04-9.6L112.04-9.6Q113.04-10.7 113.67-11.23 114.29-11.75 114.99-11.75L114.99-11.75Q115.89-11.75 116.89-10.85 117.89-9.95 117.84-9.05L117.84-9.05Q117.89-7.95 116.07-5.65 114.24-3.35 111.02-1.53 107.79 0.3 103.69 0.3L103.69 0.3Z" opacity="1" transform="matrix(1,0,0,1,0,0)" fill="white" class="wordmark-text-0" id="SvgjsPath1234"></path></svg></g></svg></g><g transform="matrix(1,0,0,1,0,81.99624876282193)"><svg viewBox="0 0 244.43135999999998 8.313062419812537" height="8.313062419812537" width="244.43135999999998"><g transform="matrix(1,0,0,1,0,0)"><svg width="244.43135999999998" viewBox="0 -35.8 1162.81 39.55" height="8.313062419812537" data-palette-color="url(#927b2045-7317-4892-9ea4-48c5ff533f6c)"><path d="M30.25-2.15L36.8-2.15 36.8 0 0 0 0-2.15 11.1-2.15Q7.15-4.5 4.88-8.55 2.6-12.6 2.6-17.7L2.6-17.7Q2.6-25.4 7.93-30.6 13.25-35.8 21.38-35.8 29.5-35.8 34.95-29.8L34.95-29.8 31.2-25.7Q28.7-28.1 26.48-29.05 24.25-30 21.25-30L21.25-30Q15.95-30 12.35-26.58 8.75-23.15 8.75-17.82 8.75-12.5 12.33-8.93 15.9-5.35 20.8-5.35L20.8-5.35Q23.85-5.35 26.05-6.38 28.25-7.4 30.65-9.65L30.65-9.65 34.45-5.75Q32.25-3.35 30.25-2.15L30.25-2.15ZM67.35-2.15L78.8-2.15 78.8 0 36.8 0 36.8-2.15 48.25-2.15Q44.15-4.5 41.77-8.6 39.4-12.7 39.4-17.75L39.4-17.75Q39.4-25.45 44.7-30.63 50-35.8 57.8-35.8 65.6-35.8 70.9-30.63 76.2-25.45 76.2-17.75L76.2-17.75Q76.2-12.75 73.82-8.6 71.45-4.45 67.35-2.15L67.35-2.15ZM66.57-26.7Q63-30.4 57.8-30.4 52.6-30.4 49.02-26.7 45.45-23 45.45-17.73 45.45-12.45 49.02-8.75 52.6-5.05 57.8-5.05 63-5.05 66.57-8.75 70.15-12.45 70.15-17.73 70.15-23 66.57-26.7ZM123.1-2.15L127.95-2.15 127.95 0 117.2 0 117.2-27.3 105-3.05 101.7-3.05 89.55-27.3 89.55 0 78.8 0 78.8-2.15 83.65-2.15 83.65-34.95 92.85-34.95 103.4-13 113.95-34.95 123.1-34.95 123.1-2.15ZM127.94-2.15L132.79-2.15 132.79-34.95 157.34-34.95 157.34-29.4 138.69-29.4 138.69-20.15 155.44-20.15 155.44-14.9 138.69-14.9 138.69-5.55 157.94-5.55 157.94-2.15 162.79-2.15 162.79 0 127.94 0 127.94-2.15ZM160.64-2.15L174.34-2.15 174.34 0 160.64 0 160.64-2.15ZM210.49-2.15L216.29-2.15 216.29 0 205.14 0 201.64-7.95 184.14-7.95 180.64 0 169.49 0 169.49-2.15 175.29-2.15 189.74-34.95 196.04-34.95 210.49-2.15ZM186.54-13.4L199.24-13.4 192.89-27.8 186.54-13.4ZM236.69-2.15L242.94-2.15 242.94 0 211.44 0 211.44-2.15 217.84-2.15Q215.44-3.4 213.44-5.25L213.44-5.25 217.14-9.7Q222.44-5.1 228.14-5.1L228.14-5.1Q230.99-5.1 232.66-6.33 234.34-7.55 234.34-9.58 234.34-11.6 232.76-12.73 231.19-13.85 227.34-14.78 223.49-15.7 221.49-16.48 219.49-17.25 217.94-18.5L217.94-18.5Q214.84-20.85 214.84-25.7 214.84-30.55 218.36-33.18 221.89-35.8 227.09-35.8L227.09-35.8Q230.44-35.8 233.74-34.7 237.04-33.6 239.44-31.6L239.44-31.6 236.29-27.15Q234.74-28.55 232.09-29.45 229.44-30.35 226.86-30.35 224.29-30.35 222.64-29.3 220.99-28.25 220.99-26.13 220.99-24 222.64-22.88 224.29-21.75 229.66-20.45 235.04-19.15 237.76-16.8 240.49-14.45 240.49-10.2L240.49-10.2Q240.49-5.05 236.69-2.15L236.69-2.15ZM242.93-2.15L256.63-2.15 256.63 0 242.93 0 242.93-2.15ZM292.78-2.15L298.58-2.15 298.58 0 287.43 0 283.93-7.95 266.43-7.95 262.93 0 251.78 0 251.78-2.15 257.58-2.15 272.03-34.95 278.33-34.95 292.78-2.15ZM268.83-13.4L281.53-13.4 275.18-27.8 268.83-13.4ZM293.73-2.15L307.43-2.15 307.43 0 293.73 0 293.73-2.15ZM336.28-2.15L342.73-2.15 342.73 0 307.43 0 307.43-2.15 312.28-2.15 312.28-34.95 325.88-34.95Q329.43-34.95 332-34.1 334.58-33.25 335.83-31.8L335.83-31.8Q338.23-29.1 338.23-25.7L338.23-25.7Q338.23-21.6 335.63-19.6L335.63-19.6Q334.68-18.9 334.33-18.73 333.98-18.55 333.08-18.15L333.08-18.15Q336.33-17.45 338.25-15.23 340.18-13 340.18-9.7L340.18-9.7Q340.18-4.75 336.28-2.15L336.28-2.15ZM318.18-15L318.18-5.45 327.43-5.45Q330.68-5.45 332.4-6.48 334.13-7.5 334.13-10.35L334.13-10.35Q334.13-15 326.68-15L326.68-15 318.18-15ZM318.18-29.5L318.18-20.45 325.68-20.45Q332.08-20.45 332.08-24.8L332.08-24.8Q332.08-27.3 330.53-28.4 328.98-29.5 325.73-29.5L325.73-29.5 318.18-29.5ZM342.72-2.15L347.57-2.15 347.57-34.95 372.12-34.95 372.12-29.4 353.47-29.4 353.47-20.15 370.22-20.15 370.22-14.9 353.47-14.9 353.47-5.55 372.72-5.55 372.72-2.15 377.57-2.15 377.57 0 342.72 0 342.72-2.15ZM405.87-2.15L413.27-2.15 413.27 0 375.42 0 375.42-2.15 387.52-2.15Q383.17-4.35 380.6-8.6 378.02-12.85 378.02-18.2L378.02-18.2Q378.02-25.85 383.32-30.83 388.62-35.8 396.2-35.8 403.77-35.8 408.77-31.4L408.77-31.4 405.62-26.9Q403.57-28.65 401.5-29.33 399.42-30 396.67-30L396.67-30Q391.32-30 387.75-26.8 384.17-23.6 384.17-18.05 384.17-12.5 387.67-9.13 391.17-5.75 396.15-5.75 401.12-5.75 404.47-7.9L404.47-7.9 404.47-17.5 410.37-17.5 410.37-5.55Q408.52-3.5 405.87-2.15L405.87-2.15ZM413.27-2.15L418.12-2.15 418.12-34.95 424.02-34.95 424.02-2.15 428.87-2.15 428.87 0 413.27 0 413.27-2.15ZM428.87-2.15L433.72-2.15 433.72-34.95 439.62-34.95 459.92-8.85 459.92-34.95 465.82-34.95 465.82-2.15 470.67-2.15 470.67 0 459.42 0 439.62-25.5 439.62 0 428.87 0 428.87-2.15ZM470.66-2.15L475.51-2.15 475.51-34.95 481.41-34.95 501.71-8.85 501.71-34.95 507.61-34.95 507.61-2.15 512.46-2.15 512.46 0 501.21 0 481.41-25.5 481.41 0 470.66 0 470.66-2.15ZM512.46-2.15L517.31-2.15 517.31-34.95 541.86-34.95 541.86-29.4 523.21-29.4 523.21-20.15 539.96-20.15 539.96-14.9 523.21-14.9 523.21-5.55 542.46-5.55 542.46-2.15 547.31-2.15 547.31 0 512.46 0 512.46-2.15ZM577.96-2.15L582.81-2.15 582.81 0 572.01 0 563.66-11.75 555.91-11.75 555.91 0 545.16 0 545.16-2.15 550.01-2.15 550.01-34.95 563.01-34.95Q571.01-34.95 574.46-32.25 577.91-29.55 577.91-23.6L577.91-23.6Q577.91-14.95 570.36-12.7L570.36-12.7 577.96-2.15ZM563.26-17.1Q568.26-17.1 570.06-18.65 571.86-20.2 571.86-23.63 571.86-27.05 570.01-28.33 568.16-29.6 563.41-29.6L563.41-29.6 555.91-29.6 555.91-17.1 563.26-17.1ZM591.45-2.15L595.5-2.15 595.5 0 590.15 0 587.9 3.75 585 3.75 586.3 0 581.55 0 581.55-2.15 585.85-2.15Q584.8-3.2 584.8-4.78 584.8-6.35 585.9-7.43 587-8.5 588.5-8.5 590-8.5 591.13-7.43 592.25-6.35 592.25-4.95 592.25-3.55 591.45-2.15L591.45-2.15ZM595.5-2.15L609.2-2.15 609.2 0 595.5 0 595.5-2.15ZM635.9-2.15L640.75-2.15 640.75 0 609.2 0 609.2-2.15 614.05-2.15 614.05-34.95 619.95-34.95 619.95-5.6 635.9-5.6 635.9-2.15ZM637.5-2.15L642.35-2.15 642.35-34.95 666.9-34.95 666.9-29.4 648.25-29.4 648.25-20.15 665-20.15 665-14.9 648.25-14.9 648.25-5.55 667.5-5.55 667.5-2.15 672.35-2.15 672.35 0 637.5 0 637.5-2.15ZM706.34-2.15L712.14-2.15 712.14 0 700.99 0 697.49-7.95 679.99-7.95 676.49 0 665.34 0 665.34-2.15 671.14-2.15 685.59-34.95 691.89-34.95 706.34-2.15ZM682.39-13.4L695.09-13.4 688.74-27.8 682.39-13.4ZM728.94-2.15L742.29-2.15 742.29 0 707.29 0 707.29-2.15 720.59-2.15 707.44-34.95 714.04-34.95 724.79-8.85 735.54-34.95 742.14-34.95 728.94-2.15ZM742.29-2.15L747.14-2.15 747.14-34.95 771.69-34.95 771.69-29.4 753.04-29.4 753.04-20.15 769.79-20.15 769.79-14.9 753.04-14.9 753.04-5.55 772.29-5.55 772.29-2.15 777.14-2.15 777.14 0 742.29 0 742.29-2.15ZM774.99-2.15L788.69-2.15 788.69 0 774.99 0 774.99-2.15ZM824.83-2.15L830.63-2.15 830.63 0 819.48 0 815.98-7.95 798.48-7.95 794.98 0 783.83 0 783.83-2.15 789.63-2.15 804.08-34.95 810.38-34.95 824.83-2.15ZM800.88-13.4L813.58-13.4 807.23-27.8 800.88-13.4ZM851.03-2.15L857.28-2.15 857.28 0 825.78 0 825.78-2.15 832.18-2.15Q829.78-3.4 827.78-5.25L827.78-5.25 831.48-9.7Q836.78-5.1 842.48-5.1L842.48-5.1Q845.33-5.1 847.01-6.33 848.68-7.55 848.68-9.58 848.68-11.6 847.11-12.73 845.53-13.85 841.68-14.78 837.83-15.7 835.83-16.48 833.83-17.25 832.28-18.5L832.28-18.5Q829.18-20.85 829.18-25.7 829.18-30.55 832.71-33.18 836.23-35.8 841.43-35.8L841.43-35.8Q844.78-35.8 848.08-34.7 851.38-33.6 853.78-31.6L853.78-31.6 850.63-27.15Q849.08-28.55 846.43-29.45 843.78-30.35 841.21-30.35 838.63-30.35 836.98-29.3 835.33-28.25 835.33-26.13 835.33-24 836.98-22.88 838.63-21.75 844.01-20.45 849.38-19.15 852.11-16.8 854.83-14.45 854.83-10.2L854.83-10.2Q854.83-5.05 851.03-2.15L851.03-2.15ZM857.28-2.15L870.98-2.15 870.98 0 857.28 0 857.28-2.15ZM907.13-2.15L912.93-2.15 912.93 0 901.78 0 898.28-7.95 880.78-7.95 877.28 0 866.13 0 866.13-2.15 871.93-2.15 886.38-34.95 892.68-34.95 907.13-2.15ZM883.18-13.4L895.88-13.4 889.53-27.8 883.18-13.4ZM908.07-2.15L921.77-2.15 921.77 0 908.07 0 908.07-2.15ZM947.02-2.15L953.27-2.15 953.27 0 921.77 0 921.77-2.15 928.17-2.15Q925.77-3.4 923.77-5.25L923.77-5.25 927.47-9.7Q932.77-5.1 938.47-5.1L938.47-5.1Q941.32-5.1 943-6.33 944.67-7.55 944.67-9.58 944.67-11.6 943.1-12.73 941.52-13.85 937.67-14.78 933.82-15.7 931.82-16.48 929.82-17.25 928.27-18.5L928.27-18.5Q925.17-20.85 925.17-25.7 925.17-30.55 928.7-33.18 932.22-35.8 937.42-35.8L937.42-35.8Q940.77-35.8 944.07-34.7 947.37-33.6 949.77-31.6L949.77-31.6 946.62-27.15Q945.07-28.55 942.42-29.45 939.77-30.35 937.2-30.35 934.62-30.35 932.97-29.3 931.32-28.25 931.32-26.13 931.32-24 932.97-22.88 934.62-21.75 940-20.45 945.37-19.15 948.1-16.8 950.82-14.45 950.82-10.2L950.82-10.2Q950.82-5.05 947.02-2.15L947.02-2.15ZM964.02-2.15L987.47-2.15 987.47 0 953.27 0 953.27-2.15 958.12-2.15 958.12-34.95 970.12-34.95Q978.07-34.95 981.72-31.9 985.37-28.85 985.37-22.5 985.37-16.15 981.64-13.2 977.92-10.25 970.22-10.25L970.22-10.25 964.02-10.25 964.02-2.15ZM970.87-15.6Q975.77-15.6 977.54-17.48 979.32-19.35 979.32-22.98 979.32-26.6 977.07-28.1 974.82-29.6 970.02-29.6L970.02-29.6 964.02-29.6 964.02-15.6 970.87-15.6ZM987.47-2.15L992.32-2.15 992.32-34.95 1016.87-34.95 1016.87-29.4 998.22-29.4 998.22-20.15 1014.97-20.15 1014.97-14.9 998.22-14.9 998.22-5.55 1017.47-5.55 1017.47-2.15 1022.32-2.15 1022.32 0 987.47 0 987.47-2.15ZM1056.31-2.15L1062.11-2.15 1062.11 0 1050.96 0 1047.46-7.95 1029.96-7.95 1026.46 0 1015.31 0 1015.31-2.15 1021.11-2.15 1035.56-34.95 1041.86-34.95 1056.31-2.15ZM1032.36-13.4L1045.06-13.4 1038.71-27.8 1032.36-13.4ZM1057.26-2.15L1062.11-2.15 1062.11-34.95 1068.01-34.95 1068.01-17.9 1084.01-34.95 1091.51-34.95 1077.46-19.65 1090.16-2.1 1090.16-2.15 1095.01-2.15 1095.01 0 1084.71 0 1073.11-15.3 1068.01-9.8 1068.01 0 1057.26 0 1057.26-2.15ZM1092.46-2.15L1097.31-2.15 1097.31-34.95 1121.86-34.95 1121.86-29.4 1103.21-29.4 1103.21-20.15 1119.96-20.15 1119.96-14.9 1103.21-14.9 1103.21-5.55 1122.46-5.55 1122.46-2.15 1127.31-2.15 1127.31 0 1092.46 0 1092.46-2.15ZM1157.96-2.15L1162.81-2.15 1162.81 0 1152.01 0 1143.66-11.75 1135.91-11.75 1135.91 0 1125.16 0 1125.16-2.15 1130.01-2.15 1130.01-34.95 1143.01-34.95Q1151.01-34.95 1154.46-32.25 1157.91-29.55 1157.91-23.6L1157.91-23.6Q1157.91-14.95 1150.36-12.7L1150.36-12.7 1157.96-2.15ZM1143.26-17.1Q1148.26-17.1 1150.06-18.65 1151.86-20.2 1151.86-23.63 1151.86-27.05 1150.01-28.33 1148.16-29.6 1143.41-29.6L1143.41-29.6 1135.91-29.6 1135.91-17.1 1143.26-17.1Z" opacity="1" transform="matrix(1,0,0,1,0,0)" fill="black" class="slogan-text-1" id="SvgjsPath1233"></path></svg></g></svg></g></svg></g></svg></g><g></g></svg></g></svg></g></svg></g><g><path d="M91.75 62.785A122.216 122.216 0 0 1 303.77 62.785L297.788 62.785A116.233 116.233 0 0 0 97.732 62.785L91.75 62.785M91.75 184.415A122.216 122.216 0 0 0 303.77 184.415L297.788 184.415A116.233 116.233 0 0 1 97.732 184.415L91.75 184.415" fill="black" stroke="transparent"></path></g></svg></g><defs><mask></mask></defs></svg><rect width="395.52" height="247.2" fill="black" stroke="none" visibility="hidden"></rect></g></mask><linearGradient x1="0" x2="1" y1="0.548" y2="0.55" id="ba50b9b3-6ac3-4fb5-8640-23018ab271f6"><stop stop-color="#ff6cab" offset="0"></stop><stop stop-color="#7366ff" offset="1"></stop></linearGradient><rect width="395.52" height="247.2" fill="url(#ba50b9b3-6ac3-4fb5-8640-23018ab271f6)" mask="url(#f936f02e-5739-44e3-8a7a-30801e458f9d)" data-fill-palette-color="primary"></rect><mask id="ef6f195f-702b-4446-a7fb-502b9d7080cf"><g id="SvgjsG1246"><svg viewBox="0 0 395.52 247.2" height="247.2" width="395.52"><g><svg></svg></g><g><svg viewBox="0 0 395.52 247.2" height="247.2" width="395.52"><g transform="matrix(1,0,0,1,75.54432,78.44534440868276)"><svg viewBox="0 0 244.43135999999998 90.30931118263447" height="90.30931118263447" width="244.43135999999998"><g><svg viewBox="0 0 244.43135999999998 90.30931118263447" height="90.30931118263447" width="244.43135999999998"><g><svg viewBox="0 0 244.43135999999998 90.30931118263447" height="90.30931118263447" width="244.43135999999998"><g><svg viewBox="0 0 244.43135999999998 90.30931118263447" height="90.30931118263447" width="244.43135999999998"><g id="SvgjsG1245"><svg viewBox="0 0 244.43135999999998 90.30931118263447" height="90.30931118263447" width="244.43135999999998" id="SvgjsSvg1244"><g><svg viewBox="0 0 244.43135999999998 66.33592818145642" height="66.33592818145642" width="244.43135999999998"><g transform="matrix(1,0,0,1,0,0)"><svg width="244.43135999999998" viewBox="-1.3 -33.8 125.64 34.099999999999994" height="66.33592818145642" data-palette-color="url(#ba50b9b3-6ac3-4fb5-8640-23018ab271f6)"></svg></g></svg></g><g transform="matrix(1,0,0,1,0,81.99624876282193)"><svg viewBox="0 0 244.43135999999998 8.313062419812537" height="8.313062419812537" width="244.43135999999998"><g transform="matrix(1,0,0,1,0,0)"><svg width="244.43135999999998" viewBox="0 -35.8 1162.81 39.55" height="8.313062419812537" data-palette-color="url(#927b2045-7317-4892-9ea4-48c5ff533f6c)"><path d="M30.25-2.15L36.8-2.15 36.8 0 0 0 0-2.15 11.1-2.15Q7.15-4.5 4.88-8.55 2.6-12.6 2.6-17.7L2.6-17.7Q2.6-25.4 7.93-30.6 13.25-35.8 21.38-35.8 29.5-35.8 34.95-29.8L34.95-29.8 31.2-25.7Q28.7-28.1 26.48-29.05 24.25-30 21.25-30L21.25-30Q15.95-30 12.35-26.58 8.75-23.15 8.75-17.82 8.75-12.5 12.33-8.93 15.9-5.35 20.8-5.35L20.8-5.35Q23.85-5.35 26.05-6.38 28.25-7.4 30.65-9.65L30.65-9.65 34.45-5.75Q32.25-3.35 30.25-2.15L30.25-2.15ZM67.35-2.15L78.8-2.15 78.8 0 36.8 0 36.8-2.15 48.25-2.15Q44.15-4.5 41.77-8.6 39.4-12.7 39.4-17.75L39.4-17.75Q39.4-25.45 44.7-30.63 50-35.8 57.8-35.8 65.6-35.8 70.9-30.63 76.2-25.45 76.2-17.75L76.2-17.75Q76.2-12.75 73.82-8.6 71.45-4.45 67.35-2.15L67.35-2.15ZM66.57-26.7Q63-30.4 57.8-30.4 52.6-30.4 49.02-26.7 45.45-23 45.45-17.73 45.45-12.45 49.02-8.75 52.6-5.05 57.8-5.05 63-5.05 66.57-8.75 70.15-12.45 70.15-17.73 70.15-23 66.57-26.7ZM123.1-2.15L127.95-2.15 127.95 0 117.2 0 117.2-27.3 105-3.05 101.7-3.05 89.55-27.3 89.55 0 78.8 0 78.8-2.15 83.65-2.15 83.65-34.95 92.85-34.95 103.4-13 113.95-34.95 123.1-34.95 123.1-2.15ZM127.94-2.15L132.79-2.15 132.79-34.95 157.34-34.95 157.34-29.4 138.69-29.4 138.69-20.15 155.44-20.15 155.44-14.9 138.69-14.9 138.69-5.55 157.94-5.55 157.94-2.15 162.79-2.15 162.79 0 127.94 0 127.94-2.15ZM160.64-2.15L174.34-2.15 174.34 0 160.64 0 160.64-2.15ZM210.49-2.15L216.29-2.15 216.29 0 205.14 0 201.64-7.95 184.14-7.95 180.64 0 169.49 0 169.49-2.15 175.29-2.15 189.74-34.95 196.04-34.95 210.49-2.15ZM186.54-13.4L199.24-13.4 192.89-27.8 186.54-13.4ZM236.69-2.15L242.94-2.15 242.94 0 211.44 0 211.44-2.15 217.84-2.15Q215.44-3.4 213.44-5.25L213.44-5.25 217.14-9.7Q222.44-5.1 228.14-5.1L228.14-5.1Q230.99-5.1 232.66-6.33 234.34-7.55 234.34-9.58 234.34-11.6 232.76-12.73 231.19-13.85 227.34-14.78 223.49-15.7 221.49-16.48 219.49-17.25 217.94-18.5L217.94-18.5Q214.84-20.85 214.84-25.7 214.84-30.55 218.36-33.18 221.89-35.8 227.09-35.8L227.09-35.8Q230.44-35.8 233.74-34.7 237.04-33.6 239.44-31.6L239.44-31.6 236.29-27.15Q234.74-28.55 232.09-29.45 229.44-30.35 226.86-30.35 224.29-30.35 222.64-29.3 220.99-28.25 220.99-26.13 220.99-24 222.64-22.88 224.29-21.75 229.66-20.45 235.04-19.15 237.76-16.8 240.49-14.45 240.49-10.2L240.49-10.2Q240.49-5.05 236.69-2.15L236.69-2.15ZM242.93-2.15L256.63-2.15 256.63 0 242.93 0 242.93-2.15ZM292.78-2.15L298.58-2.15 298.58 0 287.43 0 283.93-7.95 266.43-7.95 262.93 0 251.78 0 251.78-2.15 257.58-2.15 272.03-34.95 278.33-34.95 292.78-2.15ZM268.83-13.4L281.53-13.4 275.18-27.8 268.83-13.4ZM293.73-2.15L307.43-2.15 307.43 0 293.73 0 293.73-2.15ZM336.28-2.15L342.73-2.15 342.73 0 307.43 0 307.43-2.15 312.28-2.15 312.28-34.95 325.88-34.95Q329.43-34.95 332-34.1 334.58-33.25 335.83-31.8L335.83-31.8Q338.23-29.1 338.23-25.7L338.23-25.7Q338.23-21.6 335.63-19.6L335.63-19.6Q334.68-18.9 334.33-18.73 333.98-18.55 333.08-18.15L333.08-18.15Q336.33-17.45 338.25-15.23 340.18-13 340.18-9.7L340.18-9.7Q340.18-4.75 336.28-2.15L336.28-2.15ZM318.18-15L318.18-5.45 327.43-5.45Q330.68-5.45 332.4-6.48 334.13-7.5 334.13-10.35L334.13-10.35Q334.13-15 326.68-15L326.68-15 318.18-15ZM318.18-29.5L318.18-20.45 325.68-20.45Q332.08-20.45 332.08-24.8L332.08-24.8Q332.08-27.3 330.53-28.4 328.98-29.5 325.73-29.5L325.73-29.5 318.18-29.5ZM342.72-2.15L347.57-2.15 347.57-34.95 372.12-34.95 372.12-29.4 353.47-29.4 353.47-20.15 370.22-20.15 370.22-14.9 353.47-14.9 353.47-5.55 372.72-5.55 372.72-2.15 377.57-2.15 377.57 0 342.72 0 342.72-2.15ZM405.87-2.15L413.27-2.15 413.27 0 375.42 0 375.42-2.15 387.52-2.15Q383.17-4.35 380.6-8.6 378.02-12.85 378.02-18.2L378.02-18.2Q378.02-25.85 383.32-30.83 388.62-35.8 396.2-35.8 403.77-35.8 408.77-31.4L408.77-31.4 405.62-26.9Q403.57-28.65 401.5-29.33 399.42-30 396.67-30L396.67-30Q391.32-30 387.75-26.8 384.17-23.6 384.17-18.05 384.17-12.5 387.67-9.13 391.17-5.75 396.15-5.75 401.12-5.75 404.47-7.9L404.47-7.9 404.47-17.5 410.37-17.5 410.37-5.55Q408.52-3.5 405.87-2.15L405.87-2.15ZM413.27-2.15L418.12-2.15 418.12-34.95 424.02-34.95 424.02-2.15 428.87-2.15 428.87 0 413.27 0 413.27-2.15ZM428.87-2.15L433.72-2.15 433.72-34.95 439.62-34.95 459.92-8.85 459.92-34.95 465.82-34.95 465.82-2.15 470.67-2.15 470.67 0 459.42 0 439.62-25.5 439.62 0 428.87 0 428.87-2.15ZM470.66-2.15L475.51-2.15 475.51-34.95 481.41-34.95 501.71-8.85 501.71-34.95 507.61-34.95 507.61-2.15 512.46-2.15 512.46 0 501.21 0 481.41-25.5 481.41 0 470.66 0 470.66-2.15ZM512.46-2.15L517.31-2.15 517.31-34.95 541.86-34.95 541.86-29.4 523.21-29.4 523.21-20.15 539.96-20.15 539.96-14.9 523.21-14.9 523.21-5.55 542.46-5.55 542.46-2.15 547.31-2.15 547.31 0 512.46 0 512.46-2.15ZM577.96-2.15L582.81-2.15 582.81 0 572.01 0 563.66-11.75 555.91-11.75 555.91 0 545.16 0 545.16-2.15 550.01-2.15 550.01-34.95 563.01-34.95Q571.01-34.95 574.46-32.25 577.91-29.55 577.91-23.6L577.91-23.6Q577.91-14.95 570.36-12.7L570.36-12.7 577.96-2.15ZM563.26-17.1Q568.26-17.1 570.06-18.65 571.86-20.2 571.86-23.63 571.86-27.05 570.01-28.33 568.16-29.6 563.41-29.6L563.41-29.6 555.91-29.6 555.91-17.1 563.26-17.1ZM591.45-2.15L595.5-2.15 595.5 0 590.15 0 587.9 3.75 585 3.75 586.3 0 581.55 0 581.55-2.15 585.85-2.15Q584.8-3.2 584.8-4.78 584.8-6.35 585.9-7.43 587-8.5 588.5-8.5 590-8.5 591.13-7.43 592.25-6.35 592.25-4.95 592.25-3.55 591.45-2.15L591.45-2.15ZM595.5-2.15L609.2-2.15 609.2 0 595.5 0 595.5-2.15ZM635.9-2.15L640.75-2.15 640.75 0 609.2 0 609.2-2.15 614.05-2.15 614.05-34.95 619.95-34.95 619.95-5.6 635.9-5.6 635.9-2.15ZM637.5-2.15L642.35-2.15 642.35-34.95 666.9-34.95 666.9-29.4 648.25-29.4 648.25-20.15 665-20.15 665-14.9 648.25-14.9 648.25-5.55 667.5-5.55 667.5-2.15 672.35-2.15 672.35 0 637.5 0 637.5-2.15ZM706.34-2.15L712.14-2.15 712.14 0 700.99 0 697.49-7.95 679.99-7.95 676.49 0 665.34 0 665.34-2.15 671.14-2.15 685.59-34.95 691.89-34.95 706.34-2.15ZM682.39-13.4L695.09-13.4 688.74-27.8 682.39-13.4ZM728.94-2.15L742.29-2.15 742.29 0 707.29 0 707.29-2.15 720.59-2.15 707.44-34.95 714.04-34.95 724.79-8.85 735.54-34.95 742.14-34.95 728.94-2.15ZM742.29-2.15L747.14-2.15 747.14-34.95 771.69-34.95 771.69-29.4 753.04-29.4 753.04-20.15 769.79-20.15 769.79-14.9 753.04-14.9 753.04-5.55 772.29-5.55 772.29-2.15 777.14-2.15 777.14 0 742.29 0 742.29-2.15ZM774.99-2.15L788.69-2.15 788.69 0 774.99 0 774.99-2.15ZM824.83-2.15L830.63-2.15 830.63 0 819.48 0 815.98-7.95 798.48-7.95 794.98 0 783.83 0 783.83-2.15 789.63-2.15 804.08-34.95 810.38-34.95 824.83-2.15ZM800.88-13.4L813.58-13.4 807.23-27.8 800.88-13.4ZM851.03-2.15L857.28-2.15 857.28 0 825.78 0 825.78-2.15 832.18-2.15Q829.78-3.4 827.78-5.25L827.78-5.25 831.48-9.7Q836.78-5.1 842.48-5.1L842.48-5.1Q845.33-5.1 847.01-6.33 848.68-7.55 848.68-9.58 848.68-11.6 847.11-12.73 845.53-13.85 841.68-14.78 837.83-15.7 835.83-16.48 833.83-17.25 832.28-18.5L832.28-18.5Q829.18-20.85 829.18-25.7 829.18-30.55 832.71-33.18 836.23-35.8 841.43-35.8L841.43-35.8Q844.78-35.8 848.08-34.7 851.38-33.6 853.78-31.6L853.78-31.6 850.63-27.15Q849.08-28.55 846.43-29.45 843.78-30.35 841.21-30.35 838.63-30.35 836.98-29.3 835.33-28.25 835.33-26.13 835.33-24 836.98-22.88 838.63-21.75 844.01-20.45 849.38-19.15 852.11-16.8 854.83-14.45 854.83-10.2L854.83-10.2Q854.83-5.05 851.03-2.15L851.03-2.15ZM857.28-2.15L870.98-2.15 870.98 0 857.28 0 857.28-2.15ZM907.13-2.15L912.93-2.15 912.93 0 901.78 0 898.28-7.95 880.78-7.95 877.28 0 866.13 0 866.13-2.15 871.93-2.15 886.38-34.95 892.68-34.95 907.13-2.15ZM883.18-13.4L895.88-13.4 889.53-27.8 883.18-13.4ZM908.07-2.15L921.77-2.15 921.77 0 908.07 0 908.07-2.15ZM947.02-2.15L953.27-2.15 953.27 0 921.77 0 921.77-2.15 928.17-2.15Q925.77-3.4 923.77-5.25L923.77-5.25 927.47-9.7Q932.77-5.1 938.47-5.1L938.47-5.1Q941.32-5.1 943-6.33 944.67-7.55 944.67-9.58 944.67-11.6 943.1-12.73 941.52-13.85 937.67-14.78 933.82-15.7 931.82-16.48 929.82-17.25 928.27-18.5L928.27-18.5Q925.17-20.85 925.17-25.7 925.17-30.55 928.7-33.18 932.22-35.8 937.42-35.8L937.42-35.8Q940.77-35.8 944.07-34.7 947.37-33.6 949.77-31.6L949.77-31.6 946.62-27.15Q945.07-28.55 942.42-29.45 939.77-30.35 937.2-30.35 934.62-30.35 932.97-29.3 931.32-28.25 931.32-26.13 931.32-24 932.97-22.88 934.62-21.75 940-20.45 945.37-19.15 948.1-16.8 950.82-14.45 950.82-10.2L950.82-10.2Q950.82-5.05 947.02-2.15L947.02-2.15ZM964.02-2.15L987.47-2.15 987.47 0 953.27 0 953.27-2.15 958.12-2.15 958.12-34.95 970.12-34.95Q978.07-34.95 981.72-31.9 985.37-28.85 985.37-22.5 985.37-16.15 981.64-13.2 977.92-10.25 970.22-10.25L970.22-10.25 964.02-10.25 964.02-2.15ZM970.87-15.6Q975.77-15.6 977.54-17.48 979.32-19.35 979.32-22.98 979.32-26.6 977.07-28.1 974.82-29.6 970.02-29.6L970.02-29.6 964.02-29.6 964.02-15.6 970.87-15.6ZM987.47-2.15L992.32-2.15 992.32-34.95 1016.87-34.95 1016.87-29.4 998.22-29.4 998.22-20.15 1014.97-20.15 1014.97-14.9 998.22-14.9 998.22-5.55 1017.47-5.55 1017.47-2.15 1022.32-2.15 1022.32 0 987.47 0 987.47-2.15ZM1056.31-2.15L1062.11-2.15 1062.11 0 1050.96 0 1047.46-7.95 1029.96-7.95 1026.46 0 1015.31 0 1015.31-2.15 1021.11-2.15 1035.56-34.95 1041.86-34.95 1056.31-2.15ZM1032.36-13.4L1045.06-13.4 1038.71-27.8 1032.36-13.4ZM1057.26-2.15L1062.11-2.15 1062.11-34.95 1068.01-34.95 1068.01-17.9 1084.01-34.95 1091.51-34.95 1077.46-19.65 1090.16-2.1 1090.16-2.15 1095.01-2.15 1095.01 0 1084.71 0 1073.11-15.3 1068.01-9.8 1068.01 0 1057.26 0 1057.26-2.15ZM1092.46-2.15L1097.31-2.15 1097.31-34.95 1121.86-34.95 1121.86-29.4 1103.21-29.4 1103.21-20.15 1119.96-20.15 1119.96-14.9 1103.21-14.9 1103.21-5.55 1122.46-5.55 1122.46-2.15 1127.31-2.15 1127.31 0 1092.46 0 1092.46-2.15ZM1157.96-2.15L1162.81-2.15 1162.81 0 1152.01 0 1143.66-11.75 1135.91-11.75 1135.91 0 1125.16 0 1125.16-2.15 1130.01-2.15 1130.01-34.95 1143.01-34.95Q1151.01-34.95 1154.46-32.25 1157.91-29.55 1157.91-23.6L1157.91-23.6Q1157.91-14.95 1150.36-12.7L1150.36-12.7 1157.96-2.15ZM1143.26-17.1Q1148.26-17.1 1150.06-18.65 1151.86-20.2 1151.86-23.63 1151.86-27.05 1150.01-28.33 1148.16-29.6 1143.41-29.6L1143.41-29.6 1135.91-29.6 1135.91-17.1 1143.26-17.1Z" opacity="1" transform="matrix(1,0,0,1,0,0)" fill="white" class="slogan-text-1" id="SvgjsPath1243"></path></svg></g></svg></g></svg></g></svg></g><g></g></svg></g></svg></g></svg></g><g><path d="M91.75 62.785A122.216 122.216 0 0 1 303.77 62.785L297.788 62.785A116.233 116.233 0 0 0 97.732 62.785L91.75 62.785M91.75 184.415A122.216 122.216 0 0 0 303.77 184.415L297.788 184.415A116.233 116.233 0 0 1 97.732 184.415L91.75 184.415" fill="black" stroke="transparent"></path></g></svg></g><defs><mask></mask></defs><mask><g id="SvgjsG1242"><svg viewBox="0 0 395.52 247.2" height="247.2" width="395.52"><g><svg></svg></g><g><svg viewBox="0 0 395.52 247.2" height="247.2" width="395.52"><g transform="matrix(1,0,0,1,75.54432,78.44534440868276)"><svg viewBox="0 0 244.43135999999998 90.30931118263447" height="90.30931118263447" width="244.43135999999998"><g><svg viewBox="0 0 244.43135999999998 90.30931118263447" height="90.30931118263447" width="244.43135999999998"><g><svg viewBox="0 0 244.43135999999998 90.30931118263447" height="90.30931118263447" width="244.43135999999998"><g><svg viewBox="0 0 244.43135999999998 90.30931118263447" height="90.30931118263447" width="244.43135999999998"><g id="SvgjsG1241"><svg viewBox="0 0 244.43135999999998 90.30931118263447" height="90.30931118263447" width="244.43135999999998" id="SvgjsSvg1240"><g><svg viewBox="0 0 244.43135999999998 66.33592818145642" height="66.33592818145642" width="244.43135999999998"><g transform="matrix(1,0,0,1,0,0)"><svg width="244.43135999999998" viewBox="-1.3 -33.8 125.64 34.099999999999994" height="66.33592818145642" data-palette-color="url(#ba50b9b3-6ac3-4fb5-8640-23018ab271f6)"><path d="M22.2-33.3Q23.25-33.3 23.83-32.98 24.4-32.65 24.4-32.05L24.4-32.05Q24.4-31.8 24.25-31.4L24.25-31.4Q24.1-31.05 23.83-30.78 23.55-30.5 23.33-30.38 23.1-30.25 23-30.15L23-30.15Q22.2-29.7 21.7-29.15 21.2-28.6 20.85-27.45L20.85-27.45 14.8-5.9Q14.6-5.25 14.6-4.65L14.6-4.65Q14.6-4.05 14.78-3.65 14.95-3.25 15.3-2.8L15.3-2.8Q15.75-2.15 15.75-1.75L15.75-1.75Q15.75-1.65 15.65-1.25L15.65-1.25Q15.45-0.55 14.75-0.28 14.05 0 12.65 0L12.65 0 0.9 0Q-0.15 0-0.73-0.35-1.3-0.7-1.3-1.3L-1.3-1.3Q-1.3-1.6-1.15-1.95L-1.15-1.95Q-0.95-2.5-0.5-2.8-0.05-3.1 0.05-3.15L0.05-3.15Q0.85-3.65 1.35-4.17 1.85-4.7 2.2-5.9L2.2-5.9 8.3-27.45Q8.5-28.1 8.5-28.7L8.5-28.7Q8.5-29.25 8.33-29.63 8.15-30 7.85-30.5L7.85-30.5Q7.4-31.15 7.4-31.55L7.4-31.55Q7.4-31.7 7.5-32.1L7.5-32.1Q7.7-32.75 8.38-33.02 9.05-33.3 10.45-33.3L10.45-33.3 22.2-33.3ZM54.35-33.3Q56.2-33.3 57.22-32.5 58.25-31.7 58.25-30.3L58.25-30.3Q58.25-29.6 58.05-28.95L58.05-28.95 56.75-24.3Q56.4-22.95 55.72-22.43 55.05-21.9 53.8-21.9L53.8-21.9Q52.6-21.9 51.92-22.43 51.25-22.95 50.9-24.15L50.9-24.15 50.1-27Q49.85-27.9 49.5-28.2 49.15-28.5 48.15-28.5L48.15-28.5 42.9-28.5 40.4-19.6 42.6-19.6Q42.95-19.6 43.55-20.1L43.55-20.1 45.25-21.6Q46-22.25 46.55-22.55 47.1-22.85 47.9-22.85L47.9-22.85Q48.8-22.85 49.37-22.38 49.95-21.9 49.95-21.15L49.95-21.15Q49.95-20.95 49.85-20.55L49.85-20.55 47.8-13.6Q47.5-12.5 46.77-11.98 46.05-11.45 45.2-11.45L45.2-11.45Q43.8-11.45 43.1-12.9L43.1-12.9 42.25-14.65Q41.9-15.4 41.15-15.4L41.15-15.4 39.2-15.4 36.25-4.8 40.65-4.8Q41.6-4.8 42.32-5.18 43.05-5.55 43.9-6.5L43.9-6.5 46.9-9.8Q47.7-10.65 48.42-11.03 49.15-11.4 50.2-11.4L50.2-11.4Q51.3-11.4 52-10.9 52.7-10.4 52.7-9.4L52.7-9.4Q52.7-9 52.55-8.45L52.55-8.45 51.1-3.4Q50.55-1.5 49.5-0.75 48.45 0 46.45 0L46.45 0 22.6 0Q21.55 0 20.97-0.35 20.4-0.7 20.4-1.3L20.4-1.3Q20.4-1.6 20.55-1.95L20.55-1.95Q20.75-2.5 21.2-2.8 21.65-3.1 21.75-3.15L21.75-3.15Q22.55-3.65 23.05-4.17 23.55-4.7 23.9-5.9L23.9-5.9 30.05-27.45Q30.25-28.1 30.25-28.65L30.25-28.65Q30.25-29.25 30.07-29.65 29.9-30.05 29.55-30.5L29.55-30.5Q29.1-31.15 29.1-31.55L29.1-31.55Q29.1-31.7 29.2-32.1L29.2-32.1Q29.4-32.75 30.1-33.02 30.8-33.3 32.15-33.3L32.15-33.3 54.35-33.3ZM83.4-12.9Q84.8-12.9 85.52-12.33 86.25-11.75 86.25-10.7L86.25-10.7Q86.25-10.25 86.09-9.7L86.09-9.7 84.45-3.85Q83.8-1.7 82.62-0.85 81.45 0 79.15 0L79.15 0 55.65 0Q54.6 0 54.02-0.35 53.45-0.7 53.45-1.3L53.45-1.3Q53.45-1.6 53.6-1.95L53.6-1.95Q53.75-2.35 54.1-2.63 54.45-2.9 54.85-3.15L54.85-3.15Q55.65-3.65 56.15-4.17 56.65-4.7 57-5.9L57-5.9 63.1-27.45Q63.3-28.1 63.3-28.7L63.3-28.7Q63.3-29.25 63.12-29.63 62.95-30 62.65-30.5L62.65-30.5Q62.2-31.15 62.2-31.55L62.2-31.55Q62.2-31.7 62.3-32.1L62.3-32.1Q62.5-32.75 63.17-33.02 63.85-33.3 65.25-33.3L65.25-33.3 77-33.3Q78.05-33.3 78.62-32.98 79.2-32.65 79.2-32.05L79.2-32.05Q79.2-31.8 79.05-31.4L79.05-31.4Q78.9-31.05 78.62-30.78 78.34-30.5 78.12-30.38 77.9-30.25 77.8-30.15L77.8-30.15Q77-29.7 76.5-29.15 76-28.6 75.65-27.45L75.65-27.45 69.2-4.8 72.3-4.8Q73.45-4.8 74.27-5.2 75.09-5.6 76-6.7L76-6.7 79.45-10.8Q80.4-11.9 81.27-12.4 82.15-12.9 83.4-12.9L83.4-12.9ZM103.69 0.3Q99.49 0.3 96.14-1.25 92.79-2.8 90.82-5.83 88.84-8.85 88.84-13.15L88.84-13.15Q88.84-16.15 89.89-19.65L89.89-19.65Q92.19-27.15 96.84-30.48 101.49-33.8 106.79-33.8L106.79-33.8Q109.64-33.8 111.84-32.95 114.04-32.1 115.89-30.5L115.89-30.5 117.24-31.55Q118.59-32.6 119.52-33 120.44-33.4 121.59-33.4L121.59-33.4Q122.84-33.4 123.59-32.85 124.34-32.3 124.34-31.25L124.34-31.25Q124.34-30.7 124.14-30.15L124.14-30.15 121.34-22.35Q120.89-21 120.27-20.45 119.64-19.9 118.39-19.9L118.39-19.9Q117.09-19.9 116.27-20.83 115.44-21.75 114.39-24L114.39-24Q113.19-26.35 112.44-27.1 111.69-27.85 110.24-27.85L110.24-27.85Q108.19-27.85 106.29-25.33 104.39-22.8 102.84-17.75L102.84-17.75Q101.54-13.5 101.54-10.65L101.54-10.65Q101.54-8.15 102.49-6.93 103.44-5.7 105.04-5.7L105.04-5.7Q107.39-5.7 108.92-6.75 110.44-7.8 112.04-9.6L112.04-9.6Q113.04-10.7 113.67-11.23 114.29-11.75 114.99-11.75L114.99-11.75Q115.89-11.75 116.89-10.85 117.89-9.95 117.84-9.05L117.84-9.05Q117.89-7.95 116.07-5.65 114.24-3.35 111.02-1.53 107.79 0.3 103.69 0.3L103.69 0.3Z" opacity="1" transform="matrix(1,0,0,1,0,0)" fill="black" class="wordmark-text-0" id="SvgjsPath1239"></path></svg></g></svg></g><g transform="matrix(1,0,0,1,0,81.99624876282193)"><svg viewBox="0 0 244.43135999999998 8.313062419812537" height="8.313062419812537" width="244.43135999999998"><g transform="matrix(1,0,0,1,0,0)"><svg width="244.43135999999998" viewBox="0 -35.8 1162.81 39.55" height="8.313062419812537" data-palette-color="url(#927b2045-7317-4892-9ea4-48c5ff533f6c)"><path d="M30.25-2.15L36.8-2.15 36.8 0 0 0 0-2.15 11.1-2.15Q7.15-4.5 4.88-8.55 2.6-12.6 2.6-17.7L2.6-17.7Q2.6-25.4 7.93-30.6 13.25-35.8 21.38-35.8 29.5-35.8 34.95-29.8L34.95-29.8 31.2-25.7Q28.7-28.1 26.48-29.05 24.25-30 21.25-30L21.25-30Q15.95-30 12.35-26.58 8.75-23.15 8.75-17.82 8.75-12.5 12.33-8.93 15.9-5.35 20.8-5.35L20.8-5.35Q23.85-5.35 26.05-6.38 28.25-7.4 30.65-9.65L30.65-9.65 34.45-5.75Q32.25-3.35 30.25-2.15L30.25-2.15ZM67.35-2.15L78.8-2.15 78.8 0 36.8 0 36.8-2.15 48.25-2.15Q44.15-4.5 41.77-8.6 39.4-12.7 39.4-17.75L39.4-17.75Q39.4-25.45 44.7-30.63 50-35.8 57.8-35.8 65.6-35.8 70.9-30.63 76.2-25.45 76.2-17.75L76.2-17.75Q76.2-12.75 73.82-8.6 71.45-4.45 67.35-2.15L67.35-2.15ZM66.57-26.7Q63-30.4 57.8-30.4 52.6-30.4 49.02-26.7 45.45-23 45.45-17.73 45.45-12.45 49.02-8.75 52.6-5.05 57.8-5.05 63-5.05 66.57-8.75 70.15-12.45 70.15-17.73 70.15-23 66.57-26.7ZM123.1-2.15L127.95-2.15 127.95 0 117.2 0 117.2-27.3 105-3.05 101.7-3.05 89.55-27.3 89.55 0 78.8 0 78.8-2.15 83.65-2.15 83.65-34.95 92.85-34.95 103.4-13 113.95-34.95 123.1-34.95 123.1-2.15ZM127.94-2.15L132.79-2.15 132.79-34.95 157.34-34.95 157.34-29.4 138.69-29.4 138.69-20.15 155.44-20.15 155.44-14.9 138.69-14.9 138.69-5.55 157.94-5.55 157.94-2.15 162.79-2.15 162.79 0 127.94 0 127.94-2.15ZM160.64-2.15L174.34-2.15 174.34 0 160.64 0 160.64-2.15ZM210.49-2.15L216.29-2.15 216.29 0 205.14 0 201.64-7.95 184.14-7.95 180.64 0 169.49 0 169.49-2.15 175.29-2.15 189.74-34.95 196.04-34.95 210.49-2.15ZM186.54-13.4L199.24-13.4 192.89-27.8 186.54-13.4ZM236.69-2.15L242.94-2.15 242.94 0 211.44 0 211.44-2.15 217.84-2.15Q215.44-3.4 213.44-5.25L213.44-5.25 217.14-9.7Q222.44-5.1 228.14-5.1L228.14-5.1Q230.99-5.1 232.66-6.33 234.34-7.55 234.34-9.58 234.34-11.6 232.76-12.73 231.19-13.85 227.34-14.78 223.49-15.7 221.49-16.48 219.49-17.25 217.94-18.5L217.94-18.5Q214.84-20.85 214.84-25.7 214.84-30.55 218.36-33.18 221.89-35.8 227.09-35.8L227.09-35.8Q230.44-35.8 233.74-34.7 237.04-33.6 239.44-31.6L239.44-31.6 236.29-27.15Q234.74-28.55 232.09-29.45 229.44-30.35 226.86-30.35 224.29-30.35 222.64-29.3 220.99-28.25 220.99-26.13 220.99-24 222.64-22.88 224.29-21.75 229.66-20.45 235.04-19.15 237.76-16.8 240.49-14.45 240.49-10.2L240.49-10.2Q240.49-5.05 236.69-2.15L236.69-2.15ZM242.93-2.15L256.63-2.15 256.63 0 242.93 0 242.93-2.15ZM292.78-2.15L298.58-2.15 298.58 0 287.43 0 283.93-7.95 266.43-7.95 262.93 0 251.78 0 251.78-2.15 257.58-2.15 272.03-34.95 278.33-34.95 292.78-2.15ZM268.83-13.4L281.53-13.4 275.18-27.8 268.83-13.4ZM293.73-2.15L307.43-2.15 307.43 0 293.73 0 293.73-2.15ZM336.28-2.15L342.73-2.15 342.73 0 307.43 0 307.43-2.15 312.28-2.15 312.28-34.95 325.88-34.95Q329.43-34.95 332-34.1 334.58-33.25 335.83-31.8L335.83-31.8Q338.23-29.1 338.23-25.7L338.23-25.7Q338.23-21.6 335.63-19.6L335.63-19.6Q334.68-18.9 334.33-18.73 333.98-18.55 333.08-18.15L333.08-18.15Q336.33-17.45 338.25-15.23 340.18-13 340.18-9.7L340.18-9.7Q340.18-4.75 336.28-2.15L336.28-2.15ZM318.18-15L318.18-5.45 327.43-5.45Q330.68-5.45 332.4-6.48 334.13-7.5 334.13-10.35L334.13-10.35Q334.13-15 326.68-15L326.68-15 318.18-15ZM318.18-29.5L318.18-20.45 325.68-20.45Q332.08-20.45 332.08-24.8L332.08-24.8Q332.08-27.3 330.53-28.4 328.98-29.5 325.73-29.5L325.73-29.5 318.18-29.5ZM342.72-2.15L347.57-2.15 347.57-34.95 372.12-34.95 372.12-29.4 353.47-29.4 353.47-20.15 370.22-20.15 370.22-14.9 353.47-14.9 353.47-5.55 372.72-5.55 372.72-2.15 377.57-2.15 377.57 0 342.72 0 342.72-2.15ZM405.87-2.15L413.27-2.15 413.27 0 375.42 0 375.42-2.15 387.52-2.15Q383.17-4.35 380.6-8.6 378.02-12.85 378.02-18.2L378.02-18.2Q378.02-25.85 383.32-30.83 388.62-35.8 396.2-35.8 403.77-35.8 408.77-31.4L408.77-31.4 405.62-26.9Q403.57-28.65 401.5-29.33 399.42-30 396.67-30L396.67-30Q391.32-30 387.75-26.8 384.17-23.6 384.17-18.05 384.17-12.5 387.67-9.13 391.17-5.75 396.15-5.75 401.12-5.75 404.47-7.9L404.47-7.9 404.47-17.5 410.37-17.5 410.37-5.55Q408.52-3.5 405.87-2.15L405.87-2.15ZM413.27-2.15L418.12-2.15 418.12-34.95 424.02-34.95 424.02-2.15 428.87-2.15 428.87 0 413.27 0 413.27-2.15ZM428.87-2.15L433.72-2.15 433.72-34.95 439.62-34.95 459.92-8.85 459.92-34.95 465.82-34.95 465.82-2.15 470.67-2.15 470.67 0 459.42 0 439.62-25.5 439.62 0 428.87 0 428.87-2.15ZM470.66-2.15L475.51-2.15 475.51-34.95 481.41-34.95 501.71-8.85 501.71-34.95 507.61-34.95 507.61-2.15 512.46-2.15 512.46 0 501.21 0 481.41-25.5 481.41 0 470.66 0 470.66-2.15ZM512.46-2.15L517.31-2.15 517.31-34.95 541.86-34.95 541.86-29.4 523.21-29.4 523.21-20.15 539.96-20.15 539.96-14.9 523.21-14.9 523.21-5.55 542.46-5.55 542.46-2.15 547.31-2.15 547.31 0 512.46 0 512.46-2.15ZM577.96-2.15L582.81-2.15 582.81 0 572.01 0 563.66-11.75 555.91-11.75 555.91 0 545.16 0 545.16-2.15 550.01-2.15 550.01-34.95 563.01-34.95Q571.01-34.95 574.46-32.25 577.91-29.55 577.91-23.6L577.91-23.6Q577.91-14.95 570.36-12.7L570.36-12.7 577.96-2.15ZM563.26-17.1Q568.26-17.1 570.06-18.65 571.86-20.2 571.86-23.63 571.86-27.05 570.01-28.33 568.16-29.6 563.41-29.6L563.41-29.6 555.91-29.6 555.91-17.1 563.26-17.1ZM591.45-2.15L595.5-2.15 595.5 0 590.15 0 587.9 3.75 585 3.75 586.3 0 581.55 0 581.55-2.15 585.85-2.15Q584.8-3.2 584.8-4.78 584.8-6.35 585.9-7.43 587-8.5 588.5-8.5 590-8.5 591.13-7.43 592.25-6.35 592.25-4.95 592.25-3.55 591.45-2.15L591.45-2.15ZM595.5-2.15L609.2-2.15 609.2 0 595.5 0 595.5-2.15ZM635.9-2.15L640.75-2.15 640.75 0 609.2 0 609.2-2.15 614.05-2.15 614.05-34.95 619.95-34.95 619.95-5.6 635.9-5.6 635.9-2.15ZM637.5-2.15L642.35-2.15 642.35-34.95 666.9-34.95 666.9-29.4 648.25-29.4 648.25-20.15 665-20.15 665-14.9 648.25-14.9 648.25-5.55 667.5-5.55 667.5-2.15 672.35-2.15 672.35 0 637.5 0 637.5-2.15ZM706.34-2.15L712.14-2.15 712.14 0 700.99 0 697.49-7.95 679.99-7.95 676.49 0 665.34 0 665.34-2.15 671.14-2.15 685.59-34.95 691.89-34.95 706.34-2.15ZM682.39-13.4L695.09-13.4 688.74-27.8 682.39-13.4ZM728.94-2.15L742.29-2.15 742.29 0 707.29 0 707.29-2.15 720.59-2.15 707.44-34.95 714.04-34.95 724.79-8.85 735.54-34.95 742.14-34.95 728.94-2.15ZM742.29-2.15L747.14-2.15 747.14-34.95 771.69-34.95 771.69-29.4 753.04-29.4 753.04-20.15 769.79-20.15 769.79-14.9 753.04-14.9 753.04-5.55 772.29-5.55 772.29-2.15 777.14-2.15 777.14 0 742.29 0 742.29-2.15ZM774.99-2.15L788.69-2.15 788.69 0 774.99 0 774.99-2.15ZM824.83-2.15L830.63-2.15 830.63 0 819.48 0 815.98-7.95 798.48-7.95 794.98 0 783.83 0 783.83-2.15 789.63-2.15 804.08-34.95 810.38-34.95 824.83-2.15ZM800.88-13.4L813.58-13.4 807.23-27.8 800.88-13.4ZM851.03-2.15L857.28-2.15 857.28 0 825.78 0 825.78-2.15 832.18-2.15Q829.78-3.4 827.78-5.25L827.78-5.25 831.48-9.7Q836.78-5.1 842.48-5.1L842.48-5.1Q845.33-5.1 847.01-6.33 848.68-7.55 848.68-9.58 848.68-11.6 847.11-12.73 845.53-13.85 841.68-14.78 837.83-15.7 835.83-16.48 833.83-17.25 832.28-18.5L832.28-18.5Q829.18-20.85 829.18-25.7 829.18-30.55 832.71-33.18 836.23-35.8 841.43-35.8L841.43-35.8Q844.78-35.8 848.08-34.7 851.38-33.6 853.78-31.6L853.78-31.6 850.63-27.15Q849.08-28.55 846.43-29.45 843.78-30.35 841.21-30.35 838.63-30.35 836.98-29.3 835.33-28.25 835.33-26.13 835.33-24 836.98-22.88 838.63-21.75 844.01-20.45 849.38-19.15 852.11-16.8 854.83-14.45 854.83-10.2L854.83-10.2Q854.83-5.05 851.03-2.15L851.03-2.15ZM857.28-2.15L870.98-2.15 870.98 0 857.28 0 857.28-2.15ZM907.13-2.15L912.93-2.15 912.93 0 901.78 0 898.28-7.95 880.78-7.95 877.28 0 866.13 0 866.13-2.15 871.93-2.15 886.38-34.95 892.68-34.95 907.13-2.15ZM883.18-13.4L895.88-13.4 889.53-27.8 883.18-13.4ZM908.07-2.15L921.77-2.15 921.77 0 908.07 0 908.07-2.15ZM947.02-2.15L953.27-2.15 953.27 0 921.77 0 921.77-2.15 928.17-2.15Q925.77-3.4 923.77-5.25L923.77-5.25 927.47-9.7Q932.77-5.1 938.47-5.1L938.47-5.1Q941.32-5.1 943-6.33 944.67-7.55 944.67-9.58 944.67-11.6 943.1-12.73 941.52-13.85 937.67-14.78 933.82-15.7 931.82-16.48 929.82-17.25 928.27-18.5L928.27-18.5Q925.17-20.85 925.17-25.7 925.17-30.55 928.7-33.18 932.22-35.8 937.42-35.8L937.42-35.8Q940.77-35.8 944.07-34.7 947.37-33.6 949.77-31.6L949.77-31.6 946.62-27.15Q945.07-28.55 942.42-29.45 939.77-30.35 937.2-30.35 934.62-30.35 932.97-29.3 931.32-28.25 931.32-26.13 931.32-24 932.97-22.88 934.62-21.75 940-20.45 945.37-19.15 948.1-16.8 950.82-14.45 950.82-10.2L950.82-10.2Q950.82-5.05 947.02-2.15L947.02-2.15ZM964.02-2.15L987.47-2.15 987.47 0 953.27 0 953.27-2.15 958.12-2.15 958.12-34.95 970.12-34.95Q978.07-34.95 981.72-31.9 985.37-28.85 985.37-22.5 985.37-16.15 981.64-13.2 977.92-10.25 970.22-10.25L970.22-10.25 964.02-10.25 964.02-2.15ZM970.87-15.6Q975.77-15.6 977.54-17.48 979.32-19.35 979.32-22.98 979.32-26.6 977.07-28.1 974.82-29.6 970.02-29.6L970.02-29.6 964.02-29.6 964.02-15.6 970.87-15.6ZM987.47-2.15L992.32-2.15 992.32-34.95 1016.87-34.95 1016.87-29.4 998.22-29.4 998.22-20.15 1014.97-20.15 1014.97-14.9 998.22-14.9 998.22-5.55 1017.47-5.55 1017.47-2.15 1022.32-2.15 1022.32 0 987.47 0 987.47-2.15ZM1056.31-2.15L1062.11-2.15 1062.11 0 1050.96 0 1047.46-7.95 1029.96-7.95 1026.46 0 1015.31 0 1015.31-2.15 1021.11-2.15 1035.56-34.95 1041.86-34.95 1056.31-2.15ZM1032.36-13.4L1045.06-13.4 1038.71-27.8 1032.36-13.4ZM1057.26-2.15L1062.11-2.15 1062.11-34.95 1068.01-34.95 1068.01-17.9 1084.01-34.95 1091.51-34.95 1077.46-19.65 1090.16-2.1 1090.16-2.15 1095.01-2.15 1095.01 0 1084.71 0 1073.11-15.3 1068.01-9.8 1068.01 0 1057.26 0 1057.26-2.15ZM1092.46-2.15L1097.31-2.15 1097.31-34.95 1121.86-34.95 1121.86-29.4 1103.21-29.4 1103.21-20.15 1119.96-20.15 1119.96-14.9 1103.21-14.9 1103.21-5.55 1122.46-5.55 1122.46-2.15 1127.31-2.15 1127.31 0 1092.46 0 1092.46-2.15ZM1157.96-2.15L1162.81-2.15 1162.81 0 1152.01 0 1143.66-11.75 1135.91-11.75 1135.91 0 1125.16 0 1125.16-2.15 1130.01-2.15 1130.01-34.95 1143.01-34.95Q1151.01-34.95 1154.46-32.25 1157.91-29.55 1157.91-23.6L1157.91-23.6Q1157.91-14.95 1150.36-12.7L1150.36-12.7 1157.96-2.15ZM1143.26-17.1Q1148.26-17.1 1150.06-18.65 1151.86-20.2 1151.86-23.63 1151.86-27.05 1150.01-28.33 1148.16-29.6 1143.41-29.6L1143.41-29.6 1135.91-29.6 1135.91-17.1 1143.26-17.1Z" opacity="1" transform="matrix(1,0,0,1,0,0)" fill="black" class="slogan-text-1" id="SvgjsPath1238"></path></svg></g></svg></g></svg></g></svg></g><g></g></svg></g></svg></g></svg></g><g><path d="M91.75 62.785A122.216 122.216 0 0 1 303.77 62.785L297.788 62.785A116.233 116.233 0 0 0 97.732 62.785L91.75 62.785M91.75 184.415A122.216 122.216 0 0 0 303.77 184.415L297.788 184.415A116.233 116.233 0 0 1 97.732 184.415L91.75 184.415" fill="black" stroke="transparent"></path></g></svg></g><defs><mask></mask></defs></svg><rect width="395.52" height="247.2" fill="black" stroke="none" visibility="hidden"></rect></g></mask></svg><rect width="395.52" height="247.2" fill="black" stroke="none" visibility="hidden"></rect></g></mask><linearGradient x1="0" x2="1" y1="0.548" y2="0.55" id="927b2045-7317-4892-9ea4-48c5ff533f6c"><stop stop-color="#ff6cab" offset="0"></stop><stop stop-color="#7366ff" offset="1"></stop></linearGradient><rect width="395.52" height="247.2" fill="url(#927b2045-7317-4892-9ea4-48c5ff533f6c)" mask="url(#ef6f195f-702b-4446-a7fb-502b9d7080cf)" data-fill-palette-color="secondary"></rect><mask id="9e7750b6-3252-46d2-825e-32250925575b"><g id="SvgjsG1281"><svg viewBox="0 0 395.52 247.2" height="247.2" width="395.52"><g><svg></svg></g><g><svg viewBox="0 0 395.52 247.2" height="247.2" width="395.52"><g transform="matrix(1,0,0,1,75.54432,78.44534440868276)"><svg viewBox="0 0 244.43135999999998 90.30931118263447" height="90.30931118263447" width="244.43135999999998"><g><svg viewBox="0 0 244.43135999999998 90.30931118263447" height="90.30931118263447" width="244.43135999999998"><g><svg viewBox="0 0 244.43135999999998 90.30931118263447" height="90.30931118263447" width="244.43135999999998"><g><svg viewBox="0 0 244.43135999999998 90.30931118263447" height="90.30931118263447" width="244.43135999999998"><g id="SvgjsG1280"><svg viewBox="0 0 244.43135999999998 90.30931118263447" height="90.30931118263447" width="244.43135999999998" id="SvgjsSvg1279"><g><svg viewBox="0 0 244.43135999999998 66.33592818145642" height="66.33592818145642" width="244.43135999999998"><g transform="matrix(1,0,0,1,0,0)"><svg width="244.43135999999998" viewBox="-1.3 -33.8 125.64 34.099999999999994" height="66.33592818145642" data-palette-color="url(#ba50b9b3-6ac3-4fb5-8640-23018ab271f6)"></svg></g></svg></g><g transform="matrix(1,0,0,1,0,81.99624876282193)"><svg viewBox="0 0 244.43135999999998 8.313062419812537" height="8.313062419812537" width="244.43135999999998"><g transform="matrix(1,0,0,1,0,0)"><svg width="244.43135999999998" viewBox="0 -35.8 1162.81 39.55" height="8.313062419812537" data-palette-color="url(#927b2045-7317-4892-9ea4-48c5ff533f6c)"></svg></g></svg></g></svg></g></svg></g><g></g></svg></g></svg></g></svg></g><g><path d="M91.75 62.785A122.216 122.216 0 0 1 303.77 62.785L297.788 62.785A116.233 116.233 0 0 0 97.732 62.785L91.75 62.785M91.75 184.415A122.216 122.216 0 0 0 303.77 184.415L297.788 184.415A116.233 116.233 0 0 1 97.732 184.415L91.75 184.415" fill="white" stroke="transparent"></path></g></svg></g><defs><mask></mask></defs><mask><g id="SvgjsG1278"><svg viewBox="0 0 395.52 247.2" height="247.2" width="395.52"><g><svg></svg></g><g><svg viewBox="0 0 395.52 247.2" height="247.2" width="395.52"><g transform="matrix(1,0,0,1,75.54432,78.44534440868276)"><svg viewBox="0 0 244.43135999999998 90.30931118263447" height="90.30931118263447" width="244.43135999999998"><g><svg viewBox="0 0 244.43135999999998 90.30931118263447" height="90.30931118263447" width="244.43135999999998"><g><svg viewBox="0 0 244.43135999999998 90.30931118263447" height="90.30931118263447" width="244.43135999999998"><g><svg viewBox="0 0 244.43135999999998 90.30931118263447" height="90.30931118263447" width="244.43135999999998"><g id="SvgjsG1277"><svg viewBox="0 0 244.43135999999998 90.30931118263447" height="90.30931118263447" width="244.43135999999998" id="SvgjsSvg1276"><g><svg viewBox="0 0 244.43135999999998 66.33592818145642" height="66.33592818145642" width="244.43135999999998"><g transform="matrix(1,0,0,1,0,0)"><svg width="244.43135999999998" viewBox="-1.3 -33.8 125.64 34.099999999999994" height="66.33592818145642" data-palette-color="url(#ba50b9b3-6ac3-4fb5-8640-23018ab271f6)"><path d="M22.2-33.3Q23.25-33.3 23.83-32.98 24.4-32.65 24.4-32.05L24.4-32.05Q24.4-31.8 24.25-31.4L24.25-31.4Q24.1-31.05 23.83-30.78 23.55-30.5 23.33-30.38 23.1-30.25 23-30.15L23-30.15Q22.2-29.7 21.7-29.15 21.2-28.6 20.85-27.45L20.85-27.45 14.8-5.9Q14.6-5.25 14.6-4.65L14.6-4.65Q14.6-4.05 14.78-3.65 14.95-3.25 15.3-2.8L15.3-2.8Q15.75-2.15 15.75-1.75L15.75-1.75Q15.75-1.65 15.65-1.25L15.65-1.25Q15.45-0.55 14.75-0.28 14.05 0 12.65 0L12.65 0 0.9 0Q-0.15 0-0.73-0.35-1.3-0.7-1.3-1.3L-1.3-1.3Q-1.3-1.6-1.15-1.95L-1.15-1.95Q-0.95-2.5-0.5-2.8-0.05-3.1 0.05-3.15L0.05-3.15Q0.85-3.65 1.35-4.17 1.85-4.7 2.2-5.9L2.2-5.9 8.3-27.45Q8.5-28.1 8.5-28.7L8.5-28.7Q8.5-29.25 8.33-29.63 8.15-30 7.85-30.5L7.85-30.5Q7.4-31.15 7.4-31.55L7.4-31.55Q7.4-31.7 7.5-32.1L7.5-32.1Q7.7-32.75 8.38-33.02 9.05-33.3 10.45-33.3L10.45-33.3 22.2-33.3ZM54.35-33.3Q56.2-33.3 57.22-32.5 58.25-31.7 58.25-30.3L58.25-30.3Q58.25-29.6 58.05-28.95L58.05-28.95 56.75-24.3Q56.4-22.95 55.72-22.43 55.05-21.9 53.8-21.9L53.8-21.9Q52.6-21.9 51.92-22.43 51.25-22.95 50.9-24.15L50.9-24.15 50.1-27Q49.85-27.9 49.5-28.2 49.15-28.5 48.15-28.5L48.15-28.5 42.9-28.5 40.4-19.6 42.6-19.6Q42.95-19.6 43.55-20.1L43.55-20.1 45.25-21.6Q46-22.25 46.55-22.55 47.1-22.85 47.9-22.85L47.9-22.85Q48.8-22.85 49.37-22.38 49.95-21.9 49.95-21.15L49.95-21.15Q49.95-20.95 49.85-20.55L49.85-20.55 47.8-13.6Q47.5-12.5 46.77-11.98 46.05-11.45 45.2-11.45L45.2-11.45Q43.8-11.45 43.1-12.9L43.1-12.9 42.25-14.65Q41.9-15.4 41.15-15.4L41.15-15.4 39.2-15.4 36.25-4.8 40.65-4.8Q41.6-4.8 42.32-5.18 43.05-5.55 43.9-6.5L43.9-6.5 46.9-9.8Q47.7-10.65 48.42-11.03 49.15-11.4 50.2-11.4L50.2-11.4Q51.3-11.4 52-10.9 52.7-10.4 52.7-9.4L52.7-9.4Q52.7-9 52.55-8.45L52.55-8.45 51.1-3.4Q50.55-1.5 49.5-0.75 48.45 0 46.45 0L46.45 0 22.6 0Q21.55 0 20.97-0.35 20.4-0.7 20.4-1.3L20.4-1.3Q20.4-1.6 20.55-1.95L20.55-1.95Q20.75-2.5 21.2-2.8 21.65-3.1 21.75-3.15L21.75-3.15Q22.55-3.65 23.05-4.17 23.55-4.7 23.9-5.9L23.9-5.9 30.05-27.45Q30.25-28.1 30.25-28.65L30.25-28.65Q30.25-29.25 30.07-29.65 29.9-30.05 29.55-30.5L29.55-30.5Q29.1-31.15 29.1-31.55L29.1-31.55Q29.1-31.7 29.2-32.1L29.2-32.1Q29.4-32.75 30.1-33.02 30.8-33.3 32.15-33.3L32.15-33.3 54.35-33.3ZM83.4-12.9Q84.8-12.9 85.52-12.33 86.25-11.75 86.25-10.7L86.25-10.7Q86.25-10.25 86.09-9.7L86.09-9.7 84.45-3.85Q83.8-1.7 82.62-0.85 81.45 0 79.15 0L79.15 0 55.65 0Q54.6 0 54.02-0.35 53.45-0.7 53.45-1.3L53.45-1.3Q53.45-1.6 53.6-1.95L53.6-1.95Q53.75-2.35 54.1-2.63 54.45-2.9 54.85-3.15L54.85-3.15Q55.65-3.65 56.15-4.17 56.65-4.7 57-5.9L57-5.9 63.1-27.45Q63.3-28.1 63.3-28.7L63.3-28.7Q63.3-29.25 63.12-29.63 62.95-30 62.65-30.5L62.65-30.5Q62.2-31.15 62.2-31.55L62.2-31.55Q62.2-31.7 62.3-32.1L62.3-32.1Q62.5-32.75 63.17-33.02 63.85-33.3 65.25-33.3L65.25-33.3 77-33.3Q78.05-33.3 78.62-32.98 79.2-32.65 79.2-32.05L79.2-32.05Q79.2-31.8 79.05-31.4L79.05-31.4Q78.9-31.05 78.62-30.78 78.34-30.5 78.12-30.38 77.9-30.25 77.8-30.15L77.8-30.15Q77-29.7 76.5-29.15 76-28.6 75.65-27.45L75.65-27.45 69.2-4.8 72.3-4.8Q73.45-4.8 74.27-5.2 75.09-5.6 76-6.7L76-6.7 79.45-10.8Q80.4-11.9 81.27-12.4 82.15-12.9 83.4-12.9L83.4-12.9ZM103.69 0.3Q99.49 0.3 96.14-1.25 92.79-2.8 90.82-5.83 88.84-8.85 88.84-13.15L88.84-13.15Q88.84-16.15 89.89-19.65L89.89-19.65Q92.19-27.15 96.84-30.48 101.49-33.8 106.79-33.8L106.79-33.8Q109.64-33.8 111.84-32.95 114.04-32.1 115.89-30.5L115.89-30.5 117.24-31.55Q118.59-32.6 119.52-33 120.44-33.4 121.59-33.4L121.59-33.4Q122.84-33.4 123.59-32.85 124.34-32.3 124.34-31.25L124.34-31.25Q124.34-30.7 124.14-30.15L124.14-30.15 121.34-22.35Q120.89-21 120.27-20.45 119.64-19.9 118.39-19.9L118.39-19.9Q117.09-19.9 116.27-20.83 115.44-21.75 114.39-24L114.39-24Q113.19-26.35 112.44-27.1 111.69-27.85 110.24-27.85L110.24-27.85Q108.19-27.85 106.29-25.33 104.39-22.8 102.84-17.75L102.84-17.75Q101.54-13.5 101.54-10.65L101.54-10.65Q101.54-8.15 102.49-6.93 103.44-5.7 105.04-5.7L105.04-5.7Q107.39-5.7 108.92-6.75 110.44-7.8 112.04-9.6L112.04-9.6Q113.04-10.7 113.67-11.23 114.29-11.75 114.99-11.75L114.99-11.75Q115.89-11.75 116.89-10.85 117.89-9.95 117.84-9.05L117.84-9.05Q117.89-7.95 116.07-5.65 114.24-3.35 111.02-1.53 107.79 0.3 103.69 0.3L103.69 0.3Z" opacity="1" transform="matrix(1,0,0,1,0,0)" fill="black" class="wordmark-text-0" id="SvgjsPath1275"></path></svg></g></svg></g><g transform="matrix(1,0,0,1,0,81.99624876282193)"><svg viewBox="0 0 244.43135999999998 8.313062419812537" height="8.313062419812537" width="244.43135999999998"><g transform="matrix(1,0,0,1,0,0)"><svg width="244.43135999999998" viewBox="0 -35.8 1162.81 39.55" height="8.313062419812537" data-palette-color="url(#927b2045-7317-4892-9ea4-48c5ff533f6c)"><path d="M30.25-2.15L36.8-2.15 36.8 0 0 0 0-2.15 11.1-2.15Q7.15-4.5 4.88-8.55 2.6-12.6 2.6-17.7L2.6-17.7Q2.6-25.4 7.93-30.6 13.25-35.8 21.38-35.8 29.5-35.8 34.95-29.8L34.95-29.8 31.2-25.7Q28.7-28.1 26.48-29.05 24.25-30 21.25-30L21.25-30Q15.95-30 12.35-26.58 8.75-23.15 8.75-17.82 8.75-12.5 12.33-8.93 15.9-5.35 20.8-5.35L20.8-5.35Q23.85-5.35 26.05-6.38 28.25-7.4 30.65-9.65L30.65-9.65 34.45-5.75Q32.25-3.35 30.25-2.15L30.25-2.15ZM67.35-2.15L78.8-2.15 78.8 0 36.8 0 36.8-2.15 48.25-2.15Q44.15-4.5 41.77-8.6 39.4-12.7 39.4-17.75L39.4-17.75Q39.4-25.45 44.7-30.63 50-35.8 57.8-35.8 65.6-35.8 70.9-30.63 76.2-25.45 76.2-17.75L76.2-17.75Q76.2-12.75 73.82-8.6 71.45-4.45 67.35-2.15L67.35-2.15ZM66.57-26.7Q63-30.4 57.8-30.4 52.6-30.4 49.02-26.7 45.45-23 45.45-17.73 45.45-12.45 49.02-8.75 52.6-5.05 57.8-5.05 63-5.05 66.57-8.75 70.15-12.45 70.15-17.73 70.15-23 66.57-26.7ZM123.1-2.15L127.95-2.15 127.95 0 117.2 0 117.2-27.3 105-3.05 101.7-3.05 89.55-27.3 89.55 0 78.8 0 78.8-2.15 83.65-2.15 83.65-34.95 92.85-34.95 103.4-13 113.95-34.95 123.1-34.95 123.1-2.15ZM127.94-2.15L132.79-2.15 132.79-34.95 157.34-34.95 157.34-29.4 138.69-29.4 138.69-20.15 155.44-20.15 155.44-14.9 138.69-14.9 138.69-5.55 157.94-5.55 157.94-2.15 162.79-2.15 162.79 0 127.94 0 127.94-2.15ZM160.64-2.15L174.34-2.15 174.34 0 160.64 0 160.64-2.15ZM210.49-2.15L216.29-2.15 216.29 0 205.14 0 201.64-7.95 184.14-7.95 180.64 0 169.49 0 169.49-2.15 175.29-2.15 189.74-34.95 196.04-34.95 210.49-2.15ZM186.54-13.4L199.24-13.4 192.89-27.8 186.54-13.4ZM236.69-2.15L242.94-2.15 242.94 0 211.44 0 211.44-2.15 217.84-2.15Q215.44-3.4 213.44-5.25L213.44-5.25 217.14-9.7Q222.44-5.1 228.14-5.1L228.14-5.1Q230.99-5.1 232.66-6.33 234.34-7.55 234.34-9.58 234.34-11.6 232.76-12.73 231.19-13.85 227.34-14.78 223.49-15.7 221.49-16.48 219.49-17.25 217.94-18.5L217.94-18.5Q214.84-20.85 214.84-25.7 214.84-30.55 218.36-33.18 221.89-35.8 227.09-35.8L227.09-35.8Q230.44-35.8 233.74-34.7 237.04-33.6 239.44-31.6L239.44-31.6 236.29-27.15Q234.74-28.55 232.09-29.45 229.44-30.35 226.86-30.35 224.29-30.35 222.64-29.3 220.99-28.25 220.99-26.13 220.99-24 222.64-22.88 224.29-21.75 229.66-20.45 235.04-19.15 237.76-16.8 240.49-14.45 240.49-10.2L240.49-10.2Q240.49-5.05 236.69-2.15L236.69-2.15ZM242.93-2.15L256.63-2.15 256.63 0 242.93 0 242.93-2.15ZM292.78-2.15L298.58-2.15 298.58 0 287.43 0 283.93-7.95 266.43-7.95 262.93 0 251.78 0 251.78-2.15 257.58-2.15 272.03-34.95 278.33-34.95 292.78-2.15ZM268.83-13.4L281.53-13.4 275.18-27.8 268.83-13.4ZM293.73-2.15L307.43-2.15 307.43 0 293.73 0 293.73-2.15ZM336.28-2.15L342.73-2.15 342.73 0 307.43 0 307.43-2.15 312.28-2.15 312.28-34.95 325.88-34.95Q329.43-34.95 332-34.1 334.58-33.25 335.83-31.8L335.83-31.8Q338.23-29.1 338.23-25.7L338.23-25.7Q338.23-21.6 335.63-19.6L335.63-19.6Q334.68-18.9 334.33-18.73 333.98-18.55 333.08-18.15L333.08-18.15Q336.33-17.45 338.25-15.23 340.18-13 340.18-9.7L340.18-9.7Q340.18-4.75 336.28-2.15L336.28-2.15ZM318.18-15L318.18-5.45 327.43-5.45Q330.68-5.45 332.4-6.48 334.13-7.5 334.13-10.35L334.13-10.35Q334.13-15 326.68-15L326.68-15 318.18-15ZM318.18-29.5L318.18-20.45 325.68-20.45Q332.08-20.45 332.08-24.8L332.08-24.8Q332.08-27.3 330.53-28.4 328.98-29.5 325.73-29.5L325.73-29.5 318.18-29.5ZM342.72-2.15L347.57-2.15 347.57-34.95 372.12-34.95 372.12-29.4 353.47-29.4 353.47-20.15 370.22-20.15 370.22-14.9 353.47-14.9 353.47-5.55 372.72-5.55 372.72-2.15 377.57-2.15 377.57 0 342.72 0 342.72-2.15ZM405.87-2.15L413.27-2.15 413.27 0 375.42 0 375.42-2.15 387.52-2.15Q383.17-4.35 380.6-8.6 378.02-12.85 378.02-18.2L378.02-18.2Q378.02-25.85 383.32-30.83 388.62-35.8 396.2-35.8 403.77-35.8 408.77-31.4L408.77-31.4 405.62-26.9Q403.57-28.65 401.5-29.33 399.42-30 396.67-30L396.67-30Q391.32-30 387.75-26.8 384.17-23.6 384.17-18.05 384.17-12.5 387.67-9.13 391.17-5.75 396.15-5.75 401.12-5.75 404.47-7.9L404.47-7.9 404.47-17.5 410.37-17.5 410.37-5.55Q408.52-3.5 405.87-2.15L405.87-2.15ZM413.27-2.15L418.12-2.15 418.12-34.95 424.02-34.95 424.02-2.15 428.87-2.15 428.87 0 413.27 0 413.27-2.15ZM428.87-2.15L433.72-2.15 433.72-34.95 439.62-34.95 459.92-8.85 459.92-34.95 465.82-34.95 465.82-2.15 470.67-2.15 470.67 0 459.42 0 439.62-25.5 439.62 0 428.87 0 428.87-2.15ZM470.66-2.15L475.51-2.15 475.51-34.95 481.41-34.95 501.71-8.85 501.71-34.95 507.61-34.95 507.61-2.15 512.46-2.15 512.46 0 501.21 0 481.41-25.5 481.41 0 470.66 0 470.66-2.15ZM512.46-2.15L517.31-2.15 517.31-34.95 541.86-34.95 541.86-29.4 523.21-29.4 523.21-20.15 539.96-20.15 539.96-14.9 523.21-14.9 523.21-5.55 542.46-5.55 542.46-2.15 547.31-2.15 547.31 0 512.46 0 512.46-2.15ZM577.96-2.15L582.81-2.15 582.81 0 572.01 0 563.66-11.75 555.91-11.75 555.91 0 545.16 0 545.16-2.15 550.01-2.15 550.01-34.95 563.01-34.95Q571.01-34.95 574.46-32.25 577.91-29.55 577.91-23.6L577.91-23.6Q577.91-14.95 570.36-12.7L570.36-12.7 577.96-2.15ZM563.26-17.1Q568.26-17.1 570.06-18.65 571.86-20.2 571.86-23.63 571.86-27.05 570.01-28.33 568.16-29.6 563.41-29.6L563.41-29.6 555.91-29.6 555.91-17.1 563.26-17.1ZM591.45-2.15L595.5-2.15 595.5 0 590.15 0 587.9 3.75 585 3.75 586.3 0 581.55 0 581.55-2.15 585.85-2.15Q584.8-3.2 584.8-4.78 584.8-6.35 585.9-7.43 587-8.5 588.5-8.5 590-8.5 591.13-7.43 592.25-6.35 592.25-4.95 592.25-3.55 591.45-2.15L591.45-2.15ZM595.5-2.15L609.2-2.15 609.2 0 595.5 0 595.5-2.15ZM635.9-2.15L640.75-2.15 640.75 0 609.2 0 609.2-2.15 614.05-2.15 614.05-34.95 619.95-34.95 619.95-5.6 635.9-5.6 635.9-2.15ZM637.5-2.15L642.35-2.15 642.35-34.95 666.9-34.95 666.9-29.4 648.25-29.4 648.25-20.15 665-20.15 665-14.9 648.25-14.9 648.25-5.55 667.5-5.55 667.5-2.15 672.35-2.15 672.35 0 637.5 0 637.5-2.15ZM706.34-2.15L712.14-2.15 712.14 0 700.99 0 697.49-7.95 679.99-7.95 676.49 0 665.34 0 665.34-2.15 671.14-2.15 685.59-34.95 691.89-34.95 706.34-2.15ZM682.39-13.4L695.09-13.4 688.74-27.8 682.39-13.4ZM728.94-2.15L742.29-2.15 742.29 0 707.29 0 707.29-2.15 720.59-2.15 707.44-34.95 714.04-34.95 724.79-8.85 735.54-34.95 742.14-34.95 728.94-2.15ZM742.29-2.15L747.14-2.15 747.14-34.95 771.69-34.95 771.69-29.4 753.04-29.4 753.04-20.15 769.79-20.15 769.79-14.9 753.04-14.9 753.04-5.55 772.29-5.55 772.29-2.15 777.14-2.15 777.14 0 742.29 0 742.29-2.15ZM774.99-2.15L788.69-2.15 788.69 0 774.99 0 774.99-2.15ZM824.83-2.15L830.63-2.15 830.63 0 819.48 0 815.98-7.95 798.48-7.95 794.98 0 783.83 0 783.83-2.15 789.63-2.15 804.08-34.95 810.38-34.95 824.83-2.15ZM800.88-13.4L813.58-13.4 807.23-27.8 800.88-13.4ZM851.03-2.15L857.28-2.15 857.28 0 825.78 0 825.78-2.15 832.18-2.15Q829.78-3.4 827.78-5.25L827.78-5.25 831.48-9.7Q836.78-5.1 842.48-5.1L842.48-5.1Q845.33-5.1 847.01-6.33 848.68-7.55 848.68-9.58 848.68-11.6 847.11-12.73 845.53-13.85 841.68-14.78 837.83-15.7 835.83-16.48 833.83-17.25 832.28-18.5L832.28-18.5Q829.18-20.85 829.18-25.7 829.18-30.55 832.71-33.18 836.23-35.8 841.43-35.8L841.43-35.8Q844.78-35.8 848.08-34.7 851.38-33.6 853.78-31.6L853.78-31.6 850.63-27.15Q849.08-28.55 846.43-29.45 843.78-30.35 841.21-30.35 838.63-30.35 836.98-29.3 835.33-28.25 835.33-26.13 835.33-24 836.98-22.88 838.63-21.75 844.01-20.45 849.38-19.15 852.11-16.8 854.83-14.45 854.83-10.2L854.83-10.2Q854.83-5.05 851.03-2.15L851.03-2.15ZM857.28-2.15L870.98-2.15 870.98 0 857.28 0 857.28-2.15ZM907.13-2.15L912.93-2.15 912.93 0 901.78 0 898.28-7.95 880.78-7.95 877.28 0 866.13 0 866.13-2.15 871.93-2.15 886.38-34.95 892.68-34.95 907.13-2.15ZM883.18-13.4L895.88-13.4 889.53-27.8 883.18-13.4ZM908.07-2.15L921.77-2.15 921.77 0 908.07 0 908.07-2.15ZM947.02-2.15L953.27-2.15 953.27 0 921.77 0 921.77-2.15 928.17-2.15Q925.77-3.4 923.77-5.25L923.77-5.25 927.47-9.7Q932.77-5.1 938.47-5.1L938.47-5.1Q941.32-5.1 943-6.33 944.67-7.55 944.67-9.58 944.67-11.6 943.1-12.73 941.52-13.85 937.67-14.78 933.82-15.7 931.82-16.48 929.82-17.25 928.27-18.5L928.27-18.5Q925.17-20.85 925.17-25.7 925.17-30.55 928.7-33.18 932.22-35.8 937.42-35.8L937.42-35.8Q940.77-35.8 944.07-34.7 947.37-33.6 949.77-31.6L949.77-31.6 946.62-27.15Q945.07-28.55 942.42-29.45 939.77-30.35 937.2-30.35 934.62-30.35 932.97-29.3 931.32-28.25 931.32-26.13 931.32-24 932.97-22.88 934.62-21.75 940-20.45 945.37-19.15 948.1-16.8 950.82-14.45 950.82-10.2L950.82-10.2Q950.82-5.05 947.02-2.15L947.02-2.15ZM964.02-2.15L987.47-2.15 987.47 0 953.27 0 953.27-2.15 958.12-2.15 958.12-34.95 970.12-34.95Q978.07-34.95 981.72-31.9 985.37-28.85 985.37-22.5 985.37-16.15 981.64-13.2 977.92-10.25 970.22-10.25L970.22-10.25 964.02-10.25 964.02-2.15ZM970.87-15.6Q975.77-15.6 977.54-17.48 979.32-19.35 979.32-22.98 979.32-26.6 977.07-28.1 974.82-29.6 970.02-29.6L970.02-29.6 964.02-29.6 964.02-15.6 970.87-15.6ZM987.47-2.15L992.32-2.15 992.32-34.95 1016.87-34.95 1016.87-29.4 998.22-29.4 998.22-20.15 1014.97-20.15 1014.97-14.9 998.22-14.9 998.22-5.55 1017.47-5.55 1017.47-2.15 1022.32-2.15 1022.32 0 987.47 0 987.47-2.15ZM1056.31-2.15L1062.11-2.15 1062.11 0 1050.96 0 1047.46-7.95 1029.96-7.95 1026.46 0 1015.31 0 1015.31-2.15 1021.11-2.15 1035.56-34.95 1041.86-34.95 1056.31-2.15ZM1032.36-13.4L1045.06-13.4 1038.71-27.8 1032.36-13.4ZM1057.26-2.15L1062.11-2.15 1062.11-34.95 1068.01-34.95 1068.01-17.9 1084.01-34.95 1091.51-34.95 1077.46-19.65 1090.16-2.1 1090.16-2.15 1095.01-2.15 1095.01 0 1084.71 0 1073.11-15.3 1068.01-9.8 1068.01 0 1057.26 0 1057.26-2.15ZM1092.46-2.15L1097.31-2.15 1097.31-34.95 1121.86-34.95 1121.86-29.4 1103.21-29.4 1103.21-20.15 1119.96-20.15 1119.96-14.9 1103.21-14.9 1103.21-5.55 1122.46-5.55 1122.46-2.15 1127.31-2.15 1127.31 0 1092.46 0 1092.46-2.15ZM1157.96-2.15L1162.81-2.15 1162.81 0 1152.01 0 1143.66-11.75 1135.91-11.75 1135.91 0 1125.16 0 1125.16-2.15 1130.01-2.15 1130.01-34.95 1143.01-34.95Q1151.01-34.95 1154.46-32.25 1157.91-29.55 1157.91-23.6L1157.91-23.6Q1157.91-14.95 1150.36-12.7L1150.36-12.7 1157.96-2.15ZM1143.26-17.1Q1148.26-17.1 1150.06-18.65 1151.86-20.2 1151.86-23.63 1151.86-27.05 1150.01-28.33 1148.16-29.6 1143.41-29.6L1143.41-29.6 1135.91-29.6 1135.91-17.1 1143.26-17.1Z" opacity="1" transform="matrix(1,0,0,1,0,0)" fill="black" class="slogan-text-1" id="SvgjsPath1274"></path></svg></g></svg></g></svg></g></svg></g><g></g></svg></g></svg></g></svg></g><g><path d="M91.75 62.785A122.216 122.216 0 0 1 303.77 62.785L297.788 62.785A116.233 116.233 0 0 0 97.732 62.785L91.75 62.785M91.75 184.415A122.216 122.216 0 0 0 303.77 184.415L297.788 184.415A116.233 116.233 0 0 1 97.732 184.415L91.75 184.415" fill="black" stroke="transparent"></path></g></svg></g><defs><mask></mask></defs></svg><rect width="395.52" height="247.2" fill="black" stroke="none" visibility="hidden"></rect></g></mask><mask><g id="SvgjsG1273"><svg viewBox="0 0 395.52 247.2" height="247.2" width="395.52"><g><svg></svg></g><g><svg viewBox="0 0 395.52 247.2" height="247.2" width="395.52"><g transform="matrix(1,0,0,1,75.54432,78.44534440868276)"><svg viewBox="0 0 244.43135999999998 90.30931118263447" height="90.30931118263447" width="244.43135999999998"><g><svg viewBox="0 0 244.43135999999998 90.30931118263447" height="90.30931118263447" width="244.43135999999998"><g><svg viewBox="0 0 244.43135999999998 90.30931118263447" height="90.30931118263447" width="244.43135999999998"><g><svg viewBox="0 0 244.43135999999998 90.30931118263447" height="90.30931118263447" width="244.43135999999998"><g id="SvgjsG1272"><svg viewBox="0 0 244.43135999999998 90.30931118263447" height="90.30931118263447" width="244.43135999999998" id="SvgjsSvg1271"><g><svg viewBox="0 0 244.43135999999998 66.33592818145642" height="66.33592818145642" width="244.43135999999998"><g transform="matrix(1,0,0,1,0,0)"><svg width="244.43135999999998" viewBox="-1.3 -33.8 125.64 34.099999999999994" height="66.33592818145642" data-palette-color="url(#ba50b9b3-6ac3-4fb5-8640-23018ab271f6)"></svg></g></svg></g><g transform="matrix(1,0,0,1,0,81.99624876282193)"><svg viewBox="0 0 244.43135999999998 8.313062419812537" height="8.313062419812537" width="244.43135999999998"><g transform="matrix(1,0,0,1,0,0)"><svg width="244.43135999999998" viewBox="0 -35.8 1162.81 39.55" height="8.313062419812537" data-palette-color="url(#927b2045-7317-4892-9ea4-48c5ff533f6c)"><path d="M30.25-2.15L36.8-2.15 36.8 0 0 0 0-2.15 11.1-2.15Q7.15-4.5 4.88-8.55 2.6-12.6 2.6-17.7L2.6-17.7Q2.6-25.4 7.93-30.6 13.25-35.8 21.38-35.8 29.5-35.8 34.95-29.8L34.95-29.8 31.2-25.7Q28.7-28.1 26.48-29.05 24.25-30 21.25-30L21.25-30Q15.95-30 12.35-26.58 8.75-23.15 8.75-17.82 8.75-12.5 12.33-8.93 15.9-5.35 20.8-5.35L20.8-5.35Q23.85-5.35 26.05-6.38 28.25-7.4 30.65-9.65L30.65-9.65 34.45-5.75Q32.25-3.35 30.25-2.15L30.25-2.15ZM67.35-2.15L78.8-2.15 78.8 0 36.8 0 36.8-2.15 48.25-2.15Q44.15-4.5 41.77-8.6 39.4-12.7 39.4-17.75L39.4-17.75Q39.4-25.45 44.7-30.63 50-35.8 57.8-35.8 65.6-35.8 70.9-30.63 76.2-25.45 76.2-17.75L76.2-17.75Q76.2-12.75 73.82-8.6 71.45-4.45 67.35-2.15L67.35-2.15ZM66.57-26.7Q63-30.4 57.8-30.4 52.6-30.4 49.02-26.7 45.45-23 45.45-17.73 45.45-12.45 49.02-8.75 52.6-5.05 57.8-5.05 63-5.05 66.57-8.75 70.15-12.45 70.15-17.73 70.15-23 66.57-26.7ZM123.1-2.15L127.95-2.15 127.95 0 117.2 0 117.2-27.3 105-3.05 101.7-3.05 89.55-27.3 89.55 0 78.8 0 78.8-2.15 83.65-2.15 83.65-34.95 92.85-34.95 103.4-13 113.95-34.95 123.1-34.95 123.1-2.15ZM127.94-2.15L132.79-2.15 132.79-34.95 157.34-34.95 157.34-29.4 138.69-29.4 138.69-20.15 155.44-20.15 155.44-14.9 138.69-14.9 138.69-5.55 157.94-5.55 157.94-2.15 162.79-2.15 162.79 0 127.94 0 127.94-2.15ZM160.64-2.15L174.34-2.15 174.34 0 160.64 0 160.64-2.15ZM210.49-2.15L216.29-2.15 216.29 0 205.14 0 201.64-7.95 184.14-7.95 180.64 0 169.49 0 169.49-2.15 175.29-2.15 189.74-34.95 196.04-34.95 210.49-2.15ZM186.54-13.4L199.24-13.4 192.89-27.8 186.54-13.4ZM236.69-2.15L242.94-2.15 242.94 0 211.44 0 211.44-2.15 217.84-2.15Q215.44-3.4 213.44-5.25L213.44-5.25 217.14-9.7Q222.44-5.1 228.14-5.1L228.14-5.1Q230.99-5.1 232.66-6.33 234.34-7.55 234.34-9.58 234.34-11.6 232.76-12.73 231.19-13.85 227.34-14.78 223.49-15.7 221.49-16.48 219.49-17.25 217.94-18.5L217.94-18.5Q214.84-20.85 214.84-25.7 214.84-30.55 218.36-33.18 221.89-35.8 227.09-35.8L227.09-35.8Q230.44-35.8 233.74-34.7 237.04-33.6 239.44-31.6L239.44-31.6 236.29-27.15Q234.74-28.55 232.09-29.45 229.44-30.35 226.86-30.35 224.29-30.35 222.64-29.3 220.99-28.25 220.99-26.13 220.99-24 222.64-22.88 224.29-21.75 229.66-20.45 235.04-19.15 237.76-16.8 240.49-14.45 240.49-10.2L240.49-10.2Q240.49-5.05 236.69-2.15L236.69-2.15ZM242.93-2.15L256.63-2.15 256.63 0 242.93 0 242.93-2.15ZM292.78-2.15L298.58-2.15 298.58 0 287.43 0 283.93-7.95 266.43-7.95 262.93 0 251.78 0 251.78-2.15 257.58-2.15 272.03-34.95 278.33-34.95 292.78-2.15ZM268.83-13.4L281.53-13.4 275.18-27.8 268.83-13.4ZM293.73-2.15L307.43-2.15 307.43 0 293.73 0 293.73-2.15ZM336.28-2.15L342.73-2.15 342.73 0 307.43 0 307.43-2.15 312.28-2.15 312.28-34.95 325.88-34.95Q329.43-34.95 332-34.1 334.58-33.25 335.83-31.8L335.83-31.8Q338.23-29.1 338.23-25.7L338.23-25.7Q338.23-21.6 335.63-19.6L335.63-19.6Q334.68-18.9 334.33-18.73 333.98-18.55 333.08-18.15L333.08-18.15Q336.33-17.45 338.25-15.23 340.18-13 340.18-9.7L340.18-9.7Q340.18-4.75 336.28-2.15L336.28-2.15ZM318.18-15L318.18-5.45 327.43-5.45Q330.68-5.45 332.4-6.48 334.13-7.5 334.13-10.35L334.13-10.35Q334.13-15 326.68-15L326.68-15 318.18-15ZM318.18-29.5L318.18-20.45 325.68-20.45Q332.08-20.45 332.08-24.8L332.08-24.8Q332.08-27.3 330.53-28.4 328.98-29.5 325.73-29.5L325.73-29.5 318.18-29.5ZM342.72-2.15L347.57-2.15 347.57-34.95 372.12-34.95 372.12-29.4 353.47-29.4 353.47-20.15 370.22-20.15 370.22-14.9 353.47-14.9 353.47-5.55 372.72-5.55 372.72-2.15 377.57-2.15 377.57 0 342.72 0 342.72-2.15ZM405.87-2.15L413.27-2.15 413.27 0 375.42 0 375.42-2.15 387.52-2.15Q383.17-4.35 380.6-8.6 378.02-12.85 378.02-18.2L378.02-18.2Q378.02-25.85 383.32-30.83 388.62-35.8 396.2-35.8 403.77-35.8 408.77-31.4L408.77-31.4 405.62-26.9Q403.57-28.65 401.5-29.33 399.42-30 396.67-30L396.67-30Q391.32-30 387.75-26.8 384.17-23.6 384.17-18.05 384.17-12.5 387.67-9.13 391.17-5.75 396.15-5.75 401.12-5.75 404.47-7.9L404.47-7.9 404.47-17.5 410.37-17.5 410.37-5.55Q408.52-3.5 405.87-2.15L405.87-2.15ZM413.27-2.15L418.12-2.15 418.12-34.95 424.02-34.95 424.02-2.15 428.87-2.15 428.87 0 413.27 0 413.27-2.15ZM428.87-2.15L433.72-2.15 433.72-34.95 439.62-34.95 459.92-8.85 459.92-34.95 465.82-34.95 465.82-2.15 470.67-2.15 470.67 0 459.42 0 439.62-25.5 439.62 0 428.87 0 428.87-2.15ZM470.66-2.15L475.51-2.15 475.51-34.95 481.41-34.95 501.71-8.85 501.71-34.95 507.61-34.95 507.61-2.15 512.46-2.15 512.46 0 501.21 0 481.41-25.5 481.41 0 470.66 0 470.66-2.15ZM512.46-2.15L517.31-2.15 517.31-34.95 541.86-34.95 541.86-29.4 523.21-29.4 523.21-20.15 539.96-20.15 539.96-14.9 523.21-14.9 523.21-5.55 542.46-5.55 542.46-2.15 547.31-2.15 547.31 0 512.46 0 512.46-2.15ZM577.96-2.15L582.81-2.15 582.81 0 572.01 0 563.66-11.75 555.91-11.75 555.91 0 545.16 0 545.16-2.15 550.01-2.15 550.01-34.95 563.01-34.95Q571.01-34.95 574.46-32.25 577.91-29.55 577.91-23.6L577.91-23.6Q577.91-14.95 570.36-12.7L570.36-12.7 577.96-2.15ZM563.26-17.1Q568.26-17.1 570.06-18.65 571.86-20.2 571.86-23.63 571.86-27.05 570.01-28.33 568.16-29.6 563.41-29.6L563.41-29.6 555.91-29.6 555.91-17.1 563.26-17.1ZM591.45-2.15L595.5-2.15 595.5 0 590.15 0 587.9 3.75 585 3.75 586.3 0 581.55 0 581.55-2.15 585.85-2.15Q584.8-3.2 584.8-4.78 584.8-6.35 585.9-7.43 587-8.5 588.5-8.5 590-8.5 591.13-7.43 592.25-6.35 592.25-4.95 592.25-3.55 591.45-2.15L591.45-2.15ZM595.5-2.15L609.2-2.15 609.2 0 595.5 0 595.5-2.15ZM635.9-2.15L640.75-2.15 640.75 0 609.2 0 609.2-2.15 614.05-2.15 614.05-34.95 619.95-34.95 619.95-5.6 635.9-5.6 635.9-2.15ZM637.5-2.15L642.35-2.15 642.35-34.95 666.9-34.95 666.9-29.4 648.25-29.4 648.25-20.15 665-20.15 665-14.9 648.25-14.9 648.25-5.55 667.5-5.55 667.5-2.15 672.35-2.15 672.35 0 637.5 0 637.5-2.15ZM706.34-2.15L712.14-2.15 712.14 0 700.99 0 697.49-7.95 679.99-7.95 676.49 0 665.34 0 665.34-2.15 671.14-2.15 685.59-34.95 691.89-34.95 706.34-2.15ZM682.39-13.4L695.09-13.4 688.74-27.8 682.39-13.4ZM728.94-2.15L742.29-2.15 742.29 0 707.29 0 707.29-2.15 720.59-2.15 707.44-34.95 714.04-34.95 724.79-8.85 735.54-34.95 742.14-34.95 728.94-2.15ZM742.29-2.15L747.14-2.15 747.14-34.95 771.69-34.95 771.69-29.4 753.04-29.4 753.04-20.15 769.79-20.15 769.79-14.9 753.04-14.9 753.04-5.55 772.29-5.55 772.29-2.15 777.14-2.15 777.14 0 742.29 0 742.29-2.15ZM774.99-2.15L788.69-2.15 788.69 0 774.99 0 774.99-2.15ZM824.83-2.15L830.63-2.15 830.63 0 819.48 0 815.98-7.95 798.48-7.95 794.98 0 783.83 0 783.83-2.15 789.63-2.15 804.08-34.95 810.38-34.95 824.83-2.15ZM800.88-13.4L813.58-13.4 807.23-27.8 800.88-13.4ZM851.03-2.15L857.28-2.15 857.28 0 825.78 0 825.78-2.15 832.18-2.15Q829.78-3.4 827.78-5.25L827.78-5.25 831.48-9.7Q836.78-5.1 842.48-5.1L842.48-5.1Q845.33-5.1 847.01-6.33 848.68-7.55 848.68-9.58 848.68-11.6 847.11-12.73 845.53-13.85 841.68-14.78 837.83-15.7 835.83-16.48 833.83-17.25 832.28-18.5L832.28-18.5Q829.18-20.85 829.18-25.7 829.18-30.55 832.71-33.18 836.23-35.8 841.43-35.8L841.43-35.8Q844.78-35.8 848.08-34.7 851.38-33.6 853.78-31.6L853.78-31.6 850.63-27.15Q849.08-28.55 846.43-29.45 843.78-30.35 841.21-30.35 838.63-30.35 836.98-29.3 835.33-28.25 835.33-26.13 835.33-24 836.98-22.88 838.63-21.75 844.01-20.45 849.38-19.15 852.11-16.8 854.83-14.45 854.83-10.2L854.83-10.2Q854.83-5.05 851.03-2.15L851.03-2.15ZM857.28-2.15L870.98-2.15 870.98 0 857.28 0 857.28-2.15ZM907.13-2.15L912.93-2.15 912.93 0 901.78 0 898.28-7.95 880.78-7.95 877.28 0 866.13 0 866.13-2.15 871.93-2.15 886.38-34.95 892.68-34.95 907.13-2.15ZM883.18-13.4L895.88-13.4 889.53-27.8 883.18-13.4ZM908.07-2.15L921.77-2.15 921.77 0 908.07 0 908.07-2.15ZM947.02-2.15L953.27-2.15 953.27 0 921.77 0 921.77-2.15 928.17-2.15Q925.77-3.4 923.77-5.25L923.77-5.25 927.47-9.7Q932.77-5.1 938.47-5.1L938.47-5.1Q941.32-5.1 943-6.33 944.67-7.55 944.67-9.58 944.67-11.6 943.1-12.73 941.52-13.85 937.67-14.78 933.82-15.7 931.82-16.48 929.82-17.25 928.27-18.5L928.27-18.5Q925.17-20.85 925.17-25.7 925.17-30.55 928.7-33.18 932.22-35.8 937.42-35.8L937.42-35.8Q940.77-35.8 944.07-34.7 947.37-33.6 949.77-31.6L949.77-31.6 946.62-27.15Q945.07-28.55 942.42-29.45 939.77-30.35 937.2-30.35 934.62-30.35 932.97-29.3 931.32-28.25 931.32-26.13 931.32-24 932.97-22.88 934.62-21.75 940-20.45 945.37-19.15 948.1-16.8 950.82-14.45 950.82-10.2L950.82-10.2Q950.82-5.05 947.02-2.15L947.02-2.15ZM964.02-2.15L987.47-2.15 987.47 0 953.27 0 953.27-2.15 958.12-2.15 958.12-34.95 970.12-34.95Q978.07-34.95 981.72-31.9 985.37-28.85 985.37-22.5 985.37-16.15 981.64-13.2 977.92-10.25 970.22-10.25L970.22-10.25 964.02-10.25 964.02-2.15ZM970.87-15.6Q975.77-15.6 977.54-17.48 979.32-19.35 979.32-22.98 979.32-26.6 977.07-28.1 974.82-29.6 970.02-29.6L970.02-29.6 964.02-29.6 964.02-15.6 970.87-15.6ZM987.47-2.15L992.32-2.15 992.32-34.95 1016.87-34.95 1016.87-29.4 998.22-29.4 998.22-20.15 1014.97-20.15 1014.97-14.9 998.22-14.9 998.22-5.55 1017.47-5.55 1017.47-2.15 1022.32-2.15 1022.32 0 987.47 0 987.47-2.15ZM1056.31-2.15L1062.11-2.15 1062.11 0 1050.96 0 1047.46-7.95 1029.96-7.95 1026.46 0 1015.31 0 1015.31-2.15 1021.11-2.15 1035.56-34.95 1041.86-34.95 1056.31-2.15ZM1032.36-13.4L1045.06-13.4 1038.71-27.8 1032.36-13.4ZM1057.26-2.15L1062.11-2.15 1062.11-34.95 1068.01-34.95 1068.01-17.9 1084.01-34.95 1091.51-34.95 1077.46-19.65 1090.16-2.1 1090.16-2.15 1095.01-2.15 1095.01 0 1084.71 0 1073.11-15.3 1068.01-9.8 1068.01 0 1057.26 0 1057.26-2.15ZM1092.46-2.15L1097.31-2.15 1097.31-34.95 1121.86-34.95 1121.86-29.4 1103.21-29.4 1103.21-20.15 1119.96-20.15 1119.96-14.9 1103.21-14.9 1103.21-5.55 1122.46-5.55 1122.46-2.15 1127.31-2.15 1127.31 0 1092.46 0 1092.46-2.15ZM1157.96-2.15L1162.81-2.15 1162.81 0 1152.01 0 1143.66-11.75 1135.91-11.75 1135.91 0 1125.16 0 1125.16-2.15 1130.01-2.15 1130.01-34.95 1143.01-34.95Q1151.01-34.95 1154.46-32.25 1157.91-29.55 1157.91-23.6L1157.91-23.6Q1157.91-14.95 1150.36-12.7L1150.36-12.7 1157.96-2.15ZM1143.26-17.1Q1148.26-17.1 1150.06-18.65 1151.86-20.2 1151.86-23.63 1151.86-27.05 1150.01-28.33 1148.16-29.6 1143.41-29.6L1143.41-29.6 1135.91-29.6 1135.91-17.1 1143.26-17.1Z" opacity="1" transform="matrix(1,0,0,1,0,0)" fill="black" class="slogan-text-1" id="SvgjsPath1270"></path></svg></g></svg></g></svg></g></svg></g><g></g></svg></g></svg></g></svg></g><g><path d="M91.75 62.785A122.216 122.216 0 0 1 303.77 62.785L297.788 62.785A116.233 116.233 0 0 0 97.732 62.785L91.75 62.785M91.75 184.415A122.216 122.216 0 0 0 303.77 184.415L297.788 184.415A116.233 116.233 0 0 1 97.732 184.415L91.75 184.415" fill="black" stroke="transparent"></path></g></svg></g><defs><mask></mask></defs><mask><g id="SvgjsG1269"><svg viewBox="0 0 395.52 247.2" height="247.2" width="395.52"><g><svg></svg></g><g><svg viewBox="0 0 395.52 247.2" height="247.2" width="395.52"><g transform="matrix(1,0,0,1,75.54432,78.44534440868276)"><svg viewBox="0 0 244.43135999999998 90.30931118263447" height="90.30931118263447" width="244.43135999999998"><g><svg viewBox="0 0 244.43135999999998 90.30931118263447" height="90.30931118263447" width="244.43135999999998"><g><svg viewBox="0 0 244.43135999999998 90.30931118263447" height="90.30931118263447" width="244.43135999999998"><g><svg viewBox="0 0 244.43135999999998 90.30931118263447" height="90.30931118263447" width="244.43135999999998"><g id="SvgjsG1268"><svg viewBox="0 0 244.43135999999998 90.30931118263447" height="90.30931118263447" width="244.43135999999998" id="SvgjsSvg1267"><g><svg viewBox="0 0 244.43135999999998 66.33592818145642" height="66.33592818145642" width="244.43135999999998"><g transform="matrix(1,0,0,1,0,0)"><svg width="244.43135999999998" viewBox="-1.3 -33.8 125.64 34.099999999999994" height="66.33592818145642" data-palette-color="url(#ba50b9b3-6ac3-4fb5-8640-23018ab271f6)"><path d="M22.2-33.3Q23.25-33.3 23.83-32.98 24.4-32.65 24.4-32.05L24.4-32.05Q24.4-31.8 24.25-31.4L24.25-31.4Q24.1-31.05 23.83-30.78 23.55-30.5 23.33-30.38 23.1-30.25 23-30.15L23-30.15Q22.2-29.7 21.7-29.15 21.2-28.6 20.85-27.45L20.85-27.45 14.8-5.9Q14.6-5.25 14.6-4.65L14.6-4.65Q14.6-4.05 14.78-3.65 14.95-3.25 15.3-2.8L15.3-2.8Q15.75-2.15 15.75-1.75L15.75-1.75Q15.75-1.65 15.65-1.25L15.65-1.25Q15.45-0.55 14.75-0.28 14.05 0 12.65 0L12.65 0 0.9 0Q-0.15 0-0.73-0.35-1.3-0.7-1.3-1.3L-1.3-1.3Q-1.3-1.6-1.15-1.95L-1.15-1.95Q-0.95-2.5-0.5-2.8-0.05-3.1 0.05-3.15L0.05-3.15Q0.85-3.65 1.35-4.17 1.85-4.7 2.2-5.9L2.2-5.9 8.3-27.45Q8.5-28.1 8.5-28.7L8.5-28.7Q8.5-29.25 8.33-29.63 8.15-30 7.85-30.5L7.85-30.5Q7.4-31.15 7.4-31.55L7.4-31.55Q7.4-31.7 7.5-32.1L7.5-32.1Q7.7-32.75 8.38-33.02 9.05-33.3 10.45-33.3L10.45-33.3 22.2-33.3ZM54.35-33.3Q56.2-33.3 57.22-32.5 58.25-31.7 58.25-30.3L58.25-30.3Q58.25-29.6 58.05-28.95L58.05-28.95 56.75-24.3Q56.4-22.95 55.72-22.43 55.05-21.9 53.8-21.9L53.8-21.9Q52.6-21.9 51.92-22.43 51.25-22.95 50.9-24.15L50.9-24.15 50.1-27Q49.85-27.9 49.5-28.2 49.15-28.5 48.15-28.5L48.15-28.5 42.9-28.5 40.4-19.6 42.6-19.6Q42.95-19.6 43.55-20.1L43.55-20.1 45.25-21.6Q46-22.25 46.55-22.55 47.1-22.85 47.9-22.85L47.9-22.85Q48.8-22.85 49.37-22.38 49.95-21.9 49.95-21.15L49.95-21.15Q49.95-20.95 49.85-20.55L49.85-20.55 47.8-13.6Q47.5-12.5 46.77-11.98 46.05-11.45 45.2-11.45L45.2-11.45Q43.8-11.45 43.1-12.9L43.1-12.9 42.25-14.65Q41.9-15.4 41.15-15.4L41.15-15.4 39.2-15.4 36.25-4.8 40.65-4.8Q41.6-4.8 42.32-5.18 43.05-5.55 43.9-6.5L43.9-6.5 46.9-9.8Q47.7-10.65 48.42-11.03 49.15-11.4 50.2-11.4L50.2-11.4Q51.3-11.4 52-10.9 52.7-10.4 52.7-9.4L52.7-9.4Q52.7-9 52.55-8.45L52.55-8.45 51.1-3.4Q50.55-1.5 49.5-0.75 48.45 0 46.45 0L46.45 0 22.6 0Q21.55 0 20.97-0.35 20.4-0.7 20.4-1.3L20.4-1.3Q20.4-1.6 20.55-1.95L20.55-1.95Q20.75-2.5 21.2-2.8 21.65-3.1 21.75-3.15L21.75-3.15Q22.55-3.65 23.05-4.17 23.55-4.7 23.9-5.9L23.9-5.9 30.05-27.45Q30.25-28.1 30.25-28.65L30.25-28.65Q30.25-29.25 30.07-29.65 29.9-30.05 29.55-30.5L29.55-30.5Q29.1-31.15 29.1-31.55L29.1-31.55Q29.1-31.7 29.2-32.1L29.2-32.1Q29.4-32.75 30.1-33.02 30.8-33.3 32.15-33.3L32.15-33.3 54.35-33.3ZM83.4-12.9Q84.8-12.9 85.52-12.33 86.25-11.75 86.25-10.7L86.25-10.7Q86.25-10.25 86.09-9.7L86.09-9.7 84.45-3.85Q83.8-1.7 82.62-0.85 81.45 0 79.15 0L79.15 0 55.65 0Q54.6 0 54.02-0.35 53.45-0.7 53.45-1.3L53.45-1.3Q53.45-1.6 53.6-1.95L53.6-1.95Q53.75-2.35 54.1-2.63 54.45-2.9 54.85-3.15L54.85-3.15Q55.65-3.65 56.15-4.17 56.65-4.7 57-5.9L57-5.9 63.1-27.45Q63.3-28.1 63.3-28.7L63.3-28.7Q63.3-29.25 63.12-29.63 62.95-30 62.65-30.5L62.65-30.5Q62.2-31.15 62.2-31.55L62.2-31.55Q62.2-31.7 62.3-32.1L62.3-32.1Q62.5-32.75 63.17-33.02 63.85-33.3 65.25-33.3L65.25-33.3 77-33.3Q78.05-33.3 78.62-32.98 79.2-32.65 79.2-32.05L79.2-32.05Q79.2-31.8 79.05-31.4L79.05-31.4Q78.9-31.05 78.62-30.78 78.34-30.5 78.12-30.38 77.9-30.25 77.8-30.15L77.8-30.15Q77-29.7 76.5-29.15 76-28.6 75.65-27.45L75.65-27.45 69.2-4.8 72.3-4.8Q73.45-4.8 74.27-5.2 75.09-5.6 76-6.7L76-6.7 79.45-10.8Q80.4-11.9 81.27-12.4 82.15-12.9 83.4-12.9L83.4-12.9ZM103.69 0.3Q99.49 0.3 96.14-1.25 92.79-2.8 90.82-5.83 88.84-8.85 88.84-13.15L88.84-13.15Q88.84-16.15 89.89-19.65L89.89-19.65Q92.19-27.15 96.84-30.48 101.49-33.8 106.79-33.8L106.79-33.8Q109.64-33.8 111.84-32.95 114.04-32.1 115.89-30.5L115.89-30.5 117.24-31.55Q118.59-32.6 119.52-33 120.44-33.4 121.59-33.4L121.59-33.4Q122.84-33.4 123.59-32.85 124.34-32.3 124.34-31.25L124.34-31.25Q124.34-30.7 124.14-30.15L124.14-30.15 121.34-22.35Q120.89-21 120.27-20.45 119.64-19.9 118.39-19.9L118.39-19.9Q117.09-19.9 116.27-20.83 115.44-21.75 114.39-24L114.39-24Q113.19-26.35 112.44-27.1 111.69-27.85 110.24-27.85L110.24-27.85Q108.19-27.85 106.29-25.33 104.39-22.8 102.84-17.75L102.84-17.75Q101.54-13.5 101.54-10.65L101.54-10.65Q101.54-8.15 102.49-6.93 103.44-5.7 105.04-5.7L105.04-5.7Q107.39-5.7 108.92-6.75 110.44-7.8 112.04-9.6L112.04-9.6Q113.04-10.7 113.67-11.23 114.29-11.75 114.99-11.75L114.99-11.75Q115.89-11.75 116.89-10.85 117.89-9.95 117.84-9.05L117.84-9.05Q117.89-7.95 116.07-5.65 114.24-3.35 111.02-1.53 107.79 0.3 103.69 0.3L103.69 0.3Z" opacity="1" transform="matrix(1,0,0,1,0,0)" fill="black" class="wordmark-text-0" id="SvgjsPath1266"></path></svg></g></svg></g><g transform="matrix(1,0,0,1,0,81.99624876282193)"><svg viewBox="0 0 244.43135999999998 8.313062419812537" height="8.313062419812537" width="244.43135999999998"><g transform="matrix(1,0,0,1,0,0)"><svg width="244.43135999999998" viewBox="0 -35.8 1162.81 39.55" height="8.313062419812537" data-palette-color="url(#927b2045-7317-4892-9ea4-48c5ff533f6c)"><path d="M30.25-2.15L36.8-2.15 36.8 0 0 0 0-2.15 11.1-2.15Q7.15-4.5 4.88-8.55 2.6-12.6 2.6-17.7L2.6-17.7Q2.6-25.4 7.93-30.6 13.25-35.8 21.38-35.8 29.5-35.8 34.95-29.8L34.95-29.8 31.2-25.7Q28.7-28.1 26.48-29.05 24.25-30 21.25-30L21.25-30Q15.95-30 12.35-26.58 8.75-23.15 8.75-17.82 8.75-12.5 12.33-8.93 15.9-5.35 20.8-5.35L20.8-5.35Q23.85-5.35 26.05-6.38 28.25-7.4 30.65-9.65L30.65-9.65 34.45-5.75Q32.25-3.35 30.25-2.15L30.25-2.15ZM67.35-2.15L78.8-2.15 78.8 0 36.8 0 36.8-2.15 48.25-2.15Q44.15-4.5 41.77-8.6 39.4-12.7 39.4-17.75L39.4-17.75Q39.4-25.45 44.7-30.63 50-35.8 57.8-35.8 65.6-35.8 70.9-30.63 76.2-25.45 76.2-17.75L76.2-17.75Q76.2-12.75 73.82-8.6 71.45-4.45 67.35-2.15L67.35-2.15ZM66.57-26.7Q63-30.4 57.8-30.4 52.6-30.4 49.02-26.7 45.45-23 45.45-17.73 45.45-12.45 49.02-8.75 52.6-5.05 57.8-5.05 63-5.05 66.57-8.75 70.15-12.45 70.15-17.73 70.15-23 66.57-26.7ZM123.1-2.15L127.95-2.15 127.95 0 117.2 0 117.2-27.3 105-3.05 101.7-3.05 89.55-27.3 89.55 0 78.8 0 78.8-2.15 83.65-2.15 83.65-34.95 92.85-34.95 103.4-13 113.95-34.95 123.1-34.95 123.1-2.15ZM127.94-2.15L132.79-2.15 132.79-34.95 157.34-34.95 157.34-29.4 138.69-29.4 138.69-20.15 155.44-20.15 155.44-14.9 138.69-14.9 138.69-5.55 157.94-5.55 157.94-2.15 162.79-2.15 162.79 0 127.94 0 127.94-2.15ZM160.64-2.15L174.34-2.15 174.34 0 160.64 0 160.64-2.15ZM210.49-2.15L216.29-2.15 216.29 0 205.14 0 201.64-7.95 184.14-7.95 180.64 0 169.49 0 169.49-2.15 175.29-2.15 189.74-34.95 196.04-34.95 210.49-2.15ZM186.54-13.4L199.24-13.4 192.89-27.8 186.54-13.4ZM236.69-2.15L242.94-2.15 242.94 0 211.44 0 211.44-2.15 217.84-2.15Q215.44-3.4 213.44-5.25L213.44-5.25 217.14-9.7Q222.44-5.1 228.14-5.1L228.14-5.1Q230.99-5.1 232.66-6.33 234.34-7.55 234.34-9.58 234.34-11.6 232.76-12.73 231.19-13.85 227.34-14.78 223.49-15.7 221.49-16.48 219.49-17.25 217.94-18.5L217.94-18.5Q214.84-20.85 214.84-25.7 214.84-30.55 218.36-33.18 221.89-35.8 227.09-35.8L227.09-35.8Q230.44-35.8 233.74-34.7 237.04-33.6 239.44-31.6L239.44-31.6 236.29-27.15Q234.74-28.55 232.09-29.45 229.44-30.35 226.86-30.35 224.29-30.35 222.64-29.3 220.99-28.25 220.99-26.13 220.99-24 222.64-22.88 224.29-21.75 229.66-20.45 235.04-19.15 237.76-16.8 240.49-14.45 240.49-10.2L240.49-10.2Q240.49-5.05 236.69-2.15L236.69-2.15ZM242.93-2.15L256.63-2.15 256.63 0 242.93 0 242.93-2.15ZM292.78-2.15L298.58-2.15 298.58 0 287.43 0 283.93-7.95 266.43-7.95 262.93 0 251.78 0 251.78-2.15 257.58-2.15 272.03-34.95 278.33-34.95 292.78-2.15ZM268.83-13.4L281.53-13.4 275.18-27.8 268.83-13.4ZM293.73-2.15L307.43-2.15 307.43 0 293.73 0 293.73-2.15ZM336.28-2.15L342.73-2.15 342.73 0 307.43 0 307.43-2.15 312.28-2.15 312.28-34.95 325.88-34.95Q329.43-34.95 332-34.1 334.58-33.25 335.83-31.8L335.83-31.8Q338.23-29.1 338.23-25.7L338.23-25.7Q338.23-21.6 335.63-19.6L335.63-19.6Q334.68-18.9 334.33-18.73 333.98-18.55 333.08-18.15L333.08-18.15Q336.33-17.45 338.25-15.23 340.18-13 340.18-9.7L340.18-9.7Q340.18-4.75 336.28-2.15L336.28-2.15ZM318.18-15L318.18-5.45 327.43-5.45Q330.68-5.45 332.4-6.48 334.13-7.5 334.13-10.35L334.13-10.35Q334.13-15 326.68-15L326.68-15 318.18-15ZM318.18-29.5L318.18-20.45 325.68-20.45Q332.08-20.45 332.08-24.8L332.08-24.8Q332.08-27.3 330.53-28.4 328.98-29.5 325.73-29.5L325.73-29.5 318.18-29.5ZM342.72-2.15L347.57-2.15 347.57-34.95 372.12-34.95 372.12-29.4 353.47-29.4 353.47-20.15 370.22-20.15 370.22-14.9 353.47-14.9 353.47-5.55 372.72-5.55 372.72-2.15 377.57-2.15 377.57 0 342.72 0 342.72-2.15ZM405.87-2.15L413.27-2.15 413.27 0 375.42 0 375.42-2.15 387.52-2.15Q383.17-4.35 380.6-8.6 378.02-12.85 378.02-18.2L378.02-18.2Q378.02-25.85 383.32-30.83 388.62-35.8 396.2-35.8 403.77-35.8 408.77-31.4L408.77-31.4 405.62-26.9Q403.57-28.65 401.5-29.33 399.42-30 396.67-30L396.67-30Q391.32-30 387.75-26.8 384.17-23.6 384.17-18.05 384.17-12.5 387.67-9.13 391.17-5.75 396.15-5.75 401.12-5.75 404.47-7.9L404.47-7.9 404.47-17.5 410.37-17.5 410.37-5.55Q408.52-3.5 405.87-2.15L405.87-2.15ZM413.27-2.15L418.12-2.15 418.12-34.95 424.02-34.95 424.02-2.15 428.87-2.15 428.87 0 413.27 0 413.27-2.15ZM428.87-2.15L433.72-2.15 433.72-34.95 439.62-34.95 459.92-8.85 459.92-34.95 465.82-34.95 465.82-2.15 470.67-2.15 470.67 0 459.42 0 439.62-25.5 439.62 0 428.87 0 428.87-2.15ZM470.66-2.15L475.51-2.15 475.51-34.95 481.41-34.95 501.71-8.85 501.71-34.95 507.61-34.95 507.61-2.15 512.46-2.15 512.46 0 501.21 0 481.41-25.5 481.41 0 470.66 0 470.66-2.15ZM512.46-2.15L517.31-2.15 517.31-34.95 541.86-34.95 541.86-29.4 523.21-29.4 523.21-20.15 539.96-20.15 539.96-14.9 523.21-14.9 523.21-5.55 542.46-5.55 542.46-2.15 547.31-2.15 547.31 0 512.46 0 512.46-2.15ZM577.96-2.15L582.81-2.15 582.81 0 572.01 0 563.66-11.75 555.91-11.75 555.91 0 545.16 0 545.16-2.15 550.01-2.15 550.01-34.95 563.01-34.95Q571.01-34.95 574.46-32.25 577.91-29.55 577.91-23.6L577.91-23.6Q577.91-14.95 570.36-12.7L570.36-12.7 577.96-2.15ZM563.26-17.1Q568.26-17.1 570.06-18.65 571.86-20.2 571.86-23.63 571.86-27.05 570.01-28.33 568.16-29.6 563.41-29.6L563.41-29.6 555.91-29.6 555.91-17.1 563.26-17.1ZM591.45-2.15L595.5-2.15 595.5 0 590.15 0 587.9 3.75 585 3.75 586.3 0 581.55 0 581.55-2.15 585.85-2.15Q584.8-3.2 584.8-4.78 584.8-6.35 585.9-7.43 587-8.5 588.5-8.5 590-8.5 591.13-7.43 592.25-6.35 592.25-4.95 592.25-3.55 591.45-2.15L591.45-2.15ZM595.5-2.15L609.2-2.15 609.2 0 595.5 0 595.5-2.15ZM635.9-2.15L640.75-2.15 640.75 0 609.2 0 609.2-2.15 614.05-2.15 614.05-34.95 619.95-34.95 619.95-5.6 635.9-5.6 635.9-2.15ZM637.5-2.15L642.35-2.15 642.35-34.95 666.9-34.95 666.9-29.4 648.25-29.4 648.25-20.15 665-20.15 665-14.9 648.25-14.9 648.25-5.55 667.5-5.55 667.5-2.15 672.35-2.15 672.35 0 637.5 0 637.5-2.15ZM706.34-2.15L712.14-2.15 712.14 0 700.99 0 697.49-7.95 679.99-7.95 676.49 0 665.34 0 665.34-2.15 671.14-2.15 685.59-34.95 691.89-34.95 706.34-2.15ZM682.39-13.4L695.09-13.4 688.74-27.8 682.39-13.4ZM728.94-2.15L742.29-2.15 742.29 0 707.29 0 707.29-2.15 720.59-2.15 707.44-34.95 714.04-34.95 724.79-8.85 735.54-34.95 742.14-34.95 728.94-2.15ZM742.29-2.15L747.14-2.15 747.14-34.95 771.69-34.95 771.69-29.4 753.04-29.4 753.04-20.15 769.79-20.15 769.79-14.9 753.04-14.9 753.04-5.55 772.29-5.55 772.29-2.15 777.14-2.15 777.14 0 742.29 0 742.29-2.15ZM774.99-2.15L788.69-2.15 788.69 0 774.99 0 774.99-2.15ZM824.83-2.15L830.63-2.15 830.63 0 819.48 0 815.98-7.95 798.48-7.95 794.98 0 783.83 0 783.83-2.15 789.63-2.15 804.08-34.95 810.38-34.95 824.83-2.15ZM800.88-13.4L813.58-13.4 807.23-27.8 800.88-13.4ZM851.03-2.15L857.28-2.15 857.28 0 825.78 0 825.78-2.15 832.18-2.15Q829.78-3.4 827.78-5.25L827.78-5.25 831.48-9.7Q836.78-5.1 842.48-5.1L842.48-5.1Q845.33-5.1 847.01-6.33 848.68-7.55 848.68-9.58 848.68-11.6 847.11-12.73 845.53-13.85 841.68-14.78 837.83-15.7 835.83-16.48 833.83-17.25 832.28-18.5L832.28-18.5Q829.18-20.85 829.18-25.7 829.18-30.55 832.71-33.18 836.23-35.8 841.43-35.8L841.43-35.8Q844.78-35.8 848.08-34.7 851.38-33.6 853.78-31.6L853.78-31.6 850.63-27.15Q849.08-28.55 846.43-29.45 843.78-30.35 841.21-30.35 838.63-30.35 836.98-29.3 835.33-28.25 835.33-26.13 835.33-24 836.98-22.88 838.63-21.75 844.01-20.45 849.38-19.15 852.11-16.8 854.83-14.45 854.83-10.2L854.83-10.2Q854.83-5.05 851.03-2.15L851.03-2.15ZM857.28-2.15L870.98-2.15 870.98 0 857.28 0 857.28-2.15ZM907.13-2.15L912.93-2.15 912.93 0 901.78 0 898.28-7.95 880.78-7.95 877.28 0 866.13 0 866.13-2.15 871.93-2.15 886.38-34.95 892.68-34.95 907.13-2.15ZM883.18-13.4L895.88-13.4 889.53-27.8 883.18-13.4ZM908.07-2.15L921.77-2.15 921.77 0 908.07 0 908.07-2.15ZM947.02-2.15L953.27-2.15 953.27 0 921.77 0 921.77-2.15 928.17-2.15Q925.77-3.4 923.77-5.25L923.77-5.25 927.47-9.7Q932.77-5.1 938.47-5.1L938.47-5.1Q941.32-5.1 943-6.33 944.67-7.55 944.67-9.58 944.67-11.6 943.1-12.73 941.52-13.85 937.67-14.78 933.82-15.7 931.82-16.48 929.82-17.25 928.27-18.5L928.27-18.5Q925.17-20.85 925.17-25.7 925.17-30.55 928.7-33.18 932.22-35.8 937.42-35.8L937.42-35.8Q940.77-35.8 944.07-34.7 947.37-33.6 949.77-31.6L949.77-31.6 946.62-27.15Q945.07-28.55 942.42-29.45 939.77-30.35 937.2-30.35 934.62-30.35 932.97-29.3 931.32-28.25 931.32-26.13 931.32-24 932.97-22.88 934.62-21.75 940-20.45 945.37-19.15 948.1-16.8 950.82-14.45 950.82-10.2L950.82-10.2Q950.82-5.05 947.02-2.15L947.02-2.15ZM964.02-2.15L987.47-2.15 987.47 0 953.27 0 953.27-2.15 958.12-2.15 958.12-34.95 970.12-34.95Q978.07-34.95 981.72-31.9 985.37-28.85 985.37-22.5 985.37-16.15 981.64-13.2 977.92-10.25 970.22-10.25L970.22-10.25 964.02-10.25 964.02-2.15ZM970.87-15.6Q975.77-15.6 977.54-17.48 979.32-19.35 979.32-22.98 979.32-26.6 977.07-28.1 974.82-29.6 970.02-29.6L970.02-29.6 964.02-29.6 964.02-15.6 970.87-15.6ZM987.47-2.15L992.32-2.15 992.32-34.95 1016.87-34.95 1016.87-29.4 998.22-29.4 998.22-20.15 1014.97-20.15 1014.97-14.9 998.22-14.9 998.22-5.55 1017.47-5.55 1017.47-2.15 1022.32-2.15 1022.32 0 987.47 0 987.47-2.15ZM1056.31-2.15L1062.11-2.15 1062.11 0 1050.96 0 1047.46-7.95 1029.96-7.95 1026.46 0 1015.31 0 1015.31-2.15 1021.11-2.15 1035.56-34.95 1041.86-34.95 1056.31-2.15ZM1032.36-13.4L1045.06-13.4 1038.71-27.8 1032.36-13.4ZM1057.26-2.15L1062.11-2.15 1062.11-34.95 1068.01-34.95 1068.01-17.9 1084.01-34.95 1091.51-34.95 1077.46-19.65 1090.16-2.1 1090.16-2.15 1095.01-2.15 1095.01 0 1084.71 0 1073.11-15.3 1068.01-9.8 1068.01 0 1057.26 0 1057.26-2.15ZM1092.46-2.15L1097.31-2.15 1097.31-34.95 1121.86-34.95 1121.86-29.4 1103.21-29.4 1103.21-20.15 1119.96-20.15 1119.96-14.9 1103.21-14.9 1103.21-5.55 1122.46-5.55 1122.46-2.15 1127.31-2.15 1127.31 0 1092.46 0 1092.46-2.15ZM1157.96-2.15L1162.81-2.15 1162.81 0 1152.01 0 1143.66-11.75 1135.91-11.75 1135.91 0 1125.16 0 1125.16-2.15 1130.01-2.15 1130.01-34.95 1143.01-34.95Q1151.01-34.95 1154.46-32.25 1157.91-29.55 1157.91-23.6L1157.91-23.6Q1157.91-14.95 1150.36-12.7L1150.36-12.7 1157.96-2.15ZM1143.26-17.1Q1148.26-17.1 1150.06-18.65 1151.86-20.2 1151.86-23.63 1151.86-27.05 1150.01-28.33 1148.16-29.6 1143.41-29.6L1143.41-29.6 1135.91-29.6 1135.91-17.1 1143.26-17.1Z" opacity="1" transform="matrix(1,0,0,1,0,0)" fill="black" class="slogan-text-1" id="SvgjsPath1265"></path></svg></g></svg></g></svg></g></svg></g><g></g></svg></g></svg></g></svg></g><g><path d="M91.75 62.785A122.216 122.216 0 0 1 303.77 62.785L297.788 62.785A116.233 116.233 0 0 0 97.732 62.785L91.75 62.785M91.75 184.415A122.216 122.216 0 0 0 303.77 184.415L297.788 184.415A116.233 116.233 0 0 1 97.732 184.415L91.75 184.415" fill="black" stroke="transparent"></path></g></svg></g><defs><mask></mask></defs></svg><rect width="395.52" height="247.2" fill="black" stroke="none" visibility="hidden"></rect></g></mask></svg><rect width="395.52" height="247.2" fill="black" stroke="none" visibility="hidden"></rect></g></mask></svg><rect width="395.52" height="247.2" fill="black" stroke="none" visibility="hidden"></rect></g></mask><linearGradient x1="0" x2="1" y1="0.548" y2="0.55" id="c98f24ab-31dd-481a-87b7-69dd5edbd8ae"><stop stop-color="#ff6cab" offset="0"></stop><stop stop-color="#7366ff" offset="1"></stop></linearGradient></svg><rect width="395.52" height="247.2" fill="none" stroke="none" visibility="hidden"></rect></g></svg></g></svg>